<svg id="svg" version="1.1" xmlns="http://www.w3.org/2000/svg" xmlns:xlink="http://www.w3.org/1999/xlink" width="400" height="565.1006711409395" viewBox="0, 0, 400,565.1006711409395"><g id="svgg"><path id="path0" d="M199.600 164.433 C 197.730 164.587,195.840 164.818,195.400 164.946 C 194.960 165.075,189.740 166.356,183.800 167.794 C 171.739 170.712,171.082 170.878,168.054 171.769 C 166.874 172.116,165.730 172.400,165.512 172.400 C 164.559 172.400,153.905 178.143,150.867 180.294 C 145.430 184.143,141.791 191.174,137.976 205.200 C 133.661 221.058,133.874 265.477,138.380 289.600 C 139.006 292.954,141.219 302.415,142.449 307.000 C 143.142 309.581,143.736 312.264,144.885 318.000 C 148.135 334.225,159.991 347.007,179.557 355.382 C 194.649 361.841,202.416 361.724,219.000 354.786 C 225.816 351.934,236.375 345.672,240.037 342.310 C 247.046 335.875,251.887 327.529,254.136 318.000 C 254.474 316.570,254.960 313.960,255.216 312.200 C 255.472 310.440,256.282 306.480,257.016 303.400 C 259.399 293.389,259.560 292.675,260.779 286.600 C 262.827 276.397,263.198 273.955,263.426 269.200 C 263.547 266.670,263.806 263.880,264.001 263.000 C 264.343 261.458,264.979 257.212,266.067 249.200 C 266.894 243.103,266.761 223.749,265.850 217.800 C 264.723 210.436,263.756 206.364,262.018 201.647 C 258.502 192.113,252.642 184.192,247.000 181.347 C 242.486 179.071,236.601 175.867,231.400 172.852 C 218.683 165.480,211.143 163.484,199.600 164.433 M180.000 202.802 C 188.211 204.432,211.876 204.846,220.038 203.502 C 226.357 202.461,229.364 202.898,235.093 205.689 C 246.850 211.416,253.496 224.779,256.831 249.400 C 257.469 254.112,257.512 270.103,256.902 276.200 C 256.638 278.840,256.142 284.960,255.801 289.800 C 254.654 306.043,254.492 306.554,247.923 314.670 C 240.306 324.081,227.210 332.390,224.267 329.679 C 219.834 325.595,208.481 323.513,201.090 325.428 C 198.823 326.016,198.545 326.009,196.832 325.331 C 191.917 323.383,184.461 324.648,175.800 328.900 C 170.411 331.546,166.099 331.070,160.400 327.200 C 157.017 324.903,154.671 322.590,150.269 317.211 C 146.371 312.449,144.152 305.756,143.238 296.000 C 143.000 293.470,142.623 289.420,142.398 287.000 C 137.085 229.797,151.655 197.173,180.000 202.802 M199.600 330.838 C 200.150 330.849,201.961 330.733,203.624 330.581 C 207.792 330.200,216.335 332.389,216.148 333.791 C 215.925 335.458,204.066 339.600,199.516 339.600 C 195.948 339.600,187.879 337.085,184.702 334.982 C 182.909 333.796,182.852 333.487,184.300 332.826 C 188.193 331.049,191.450 330.406,195.400 330.634 C 197.160 330.736,199.050 330.828,199.600 330.838 M247.571 383.500 C 247.261 384.105,246.421 385.536,245.704 386.681 C 244.987 387.825,244.400 388.877,244.400 389.019 C 244.400 389.161,244.063 389.754,243.651 390.338 C 243.239 390.922,242.369 392.390,241.718 393.600 C 240.449 395.955,240.167 396.453,236.605 402.600 C 233.863 407.332,233.351 408.235,231.612 411.400 C 230.887 412.720,230.156 413.980,229.988 414.200 C 229.550 414.774,225.600 421.683,225.600 421.877 C 225.600 421.966,224.970 423.023,224.200 424.227 C 223.430 425.431,222.800 426.499,222.800 426.601 C 222.800 426.703,222.080 427.962,221.200 429.400 C 220.320 430.838,219.600 432.073,219.600 432.145 C 219.600 432.216,218.046 434.958,216.147 438.238 C 214.247 441.517,212.297 444.920,211.813 445.800 C 210.712 447.803,209.210 450.449,206.732 454.757 C 205.669 456.604,204.800 458.196,204.800 458.296 C 204.800 458.395,204.465 458.954,204.057 459.538 C 203.648 460.122,202.722 461.680,201.998 463.000 C 199.438 467.674,200.205 468.068,194.987 459.400 C 193.265 456.540,188.873 449.430,185.226 443.600 C 181.580 437.770,178.242 432.325,177.807 431.500 C 177.373 430.675,176.879 430.000,176.709 430.000 C 176.539 430.000,176.400 429.819,176.400 429.599 C 176.400 429.378,173.250 424.159,169.400 418.000 C 165.550 411.841,162.400 406.637,162.400 406.435 C 162.400 406.232,162.255 406.007,162.077 405.933 C 161.899 405.860,160.786 404.180,159.603 402.200 C 158.420 400.220,156.164 396.530,154.590 394.000 C 153.016 391.470,151.654 389.220,151.564 389.000 C 150.746 387.004,148.518 384.407,147.800 384.612 C 147.360 384.737,145.470 385.210,143.600 385.662 C 141.730 386.115,139.840 386.622,139.400 386.789 C 138.607 387.091,135.892 387.803,133.200 388.417 C 131.002 388.919,124.405 390.680,122.200 391.353 C 119.467 392.189,101.115 396.960,94.800 398.477 C 84.276 401.005,77.074 404.447,70.663 410.013 C 68.442 411.941,68.430 411.912,73.663 417.050 C 76.324 419.663,78.704 422.024,78.951 422.298 C 80.989 424.556,82.104 425.600,82.479 425.600 C 82.721 425.600,83.783 426.500,84.837 427.600 C 85.892 428.700,86.937 429.600,87.159 429.600 C 87.645 429.600,89.600 431.497,89.600 431.968 C 89.600 432.151,90.126 432.405,90.768 432.534 C 91.438 432.668,92.041 433.099,92.183 433.547 C 92.320 433.977,92.729 434.569,93.092 434.864 C 93.561 435.244,93.666 435.255,93.453 434.900 C 92.974 434.103,93.483 434.319,94.516 435.352 C 95.039 435.876,95.858 436.428,96.334 436.579 C 96.810 436.730,97.200 437.022,97.200 437.227 C 97.200 437.432,97.431 437.600,97.713 437.600 C 98.243 437.600,99.879 438.777,101.371 440.230 C 101.840 440.686,102.443 440.986,102.711 440.896 C 102.980 440.807,103.200 440.928,103.200 441.167 C 103.200 441.405,103.404 441.600,103.653 441.600 C 103.902 441.600,104.433 441.977,104.832 442.437 C 105.231 442.897,105.714 443.177,105.906 443.058 C 106.098 442.940,106.507 443.193,106.815 443.621 C 107.124 444.050,107.607 444.400,107.888 444.400 C 108.170 444.400,108.400 444.580,108.400 444.800 C 108.400 445.020,108.747 445.200,109.171 445.200 C 109.596 445.200,110.213 445.470,110.543 445.800 C 110.873 446.130,111.336 446.400,111.571 446.400 C 111.807 446.400,112.000 446.574,112.000 446.787 C 112.000 447.001,112.270 447.071,112.600 446.945 C 112.930 446.818,113.200 446.914,113.200 447.157 C 113.200 447.401,113.470 447.600,113.800 447.600 C 114.130 447.600,114.400 447.780,114.400 448.000 C 114.400 448.220,114.738 448.400,115.151 448.400 C 115.564 448.400,116.126 448.670,116.400 449.000 C 116.674 449.330,117.146 449.600,117.449 449.600 C 117.752 449.600,118.000 449.780,118.000 450.000 C 118.000 450.220,118.360 450.400,118.800 450.400 C 119.240 450.400,119.600 450.580,119.600 450.800 C 119.600 451.020,119.735 451.181,119.900 451.157 C 120.504 451.070,122.000 451.703,122.000 452.047 C 122.000 452.241,122.360 452.400,122.800 452.400 C 123.240 452.400,123.600 452.588,123.600 452.818 C 123.600 453.047,123.825 453.208,124.100 453.174 C 124.882 453.079,126.400 453.655,126.400 454.047 C 126.400 454.241,126.760 454.400,127.200 454.400 C 127.640 454.400,128.000 454.564,128.000 454.765 C 128.000 454.966,128.720 455.251,129.600 455.400 C 130.480 455.549,131.200 455.834,131.200 456.035 C 131.200 456.236,131.560 456.400,132.000 456.400 C 132.440 456.400,132.800 456.580,132.800 456.800 C 132.800 457.020,133.171 457.200,133.624 457.200 C 134.141 457.200,134.342 457.371,134.164 457.658 C 133.965 457.981,134.195 458.038,134.940 457.851 C 135.567 457.693,136.000 457.751,136.000 457.992 C 136.000 458.217,136.450 458.400,137.000 458.400 C 137.550 458.400,138.000 458.580,138.000 458.800 C 138.000 459.020,138.450 459.200,139.000 459.200 C 139.550 459.200,140.000 459.392,140.000 459.627 C 140.000 459.872,140.341 459.946,140.800 459.800 C 141.259 459.654,141.600 459.728,141.600 459.973 C 141.600 460.208,142.050 460.400,142.600 460.400 C 143.150 460.400,143.600 460.580,143.600 460.800 C 143.600 461.020,144.050 461.200,144.600 461.200 C 145.150 461.200,145.600 461.394,145.600 461.632 C 145.600 461.903,146.045 461.966,146.800 461.800 C 147.555 461.634,148.000 461.697,148.000 461.968 C 148.000 462.206,148.540 462.400,149.200 462.400 C 149.860 462.400,150.400 462.580,150.400 462.800 C 150.400 463.020,150.951 463.200,151.624 463.200 C 152.416 463.200,152.751 463.356,152.574 463.643 C 152.384 463.949,152.673 464.004,153.512 463.819 C 154.223 463.663,154.832 463.728,154.986 463.977 C 155.129 464.209,155.877 464.400,156.647 464.400 C 157.479 464.400,157.947 464.562,157.800 464.800 C 157.651 465.042,158.196 465.200,159.176 465.200 C 160.101 465.200,160.800 465.392,160.800 465.645 C 160.800 465.936,161.282 465.999,162.200 465.826 C 163.075 465.662,163.600 465.721,163.600 465.982 C 163.600 466.212,164.410 466.400,165.400 466.400 C 166.390 466.400,167.200 466.580,167.200 466.800 C 167.200 467.020,168.010 467.200,169.000 467.200 C 170.057 467.200,170.800 467.384,170.800 467.646 C 170.800 467.952,171.477 468.008,172.962 467.822 C 174.339 467.650,175.218 467.706,175.385 467.976 C 175.529 468.209,176.537 468.400,177.624 468.400 C 178.711 468.400,179.600 468.580,179.600 468.800 C 179.600 469.033,180.933 469.200,182.800 469.200 C 184.667 469.200,186.000 469.367,186.000 469.600 C 186.000 469.859,191.000 470.000,200.200 470.000 C 209.400 470.000,214.400 469.859,214.400 469.600 C 214.400 469.374,215.533 469.200,217.000 469.200 C 218.430 469.200,219.600 469.037,219.600 468.837 C 219.600 468.421,223.208 467.952,226.300 467.968 C 227.455 467.973,228.400 467.803,228.400 467.589 C 228.400 467.375,229.300 467.200,230.400 467.200 C 231.500 467.200,232.400 467.020,232.400 466.800 C 232.400 466.580,233.210 466.400,234.200 466.400 C 235.254 466.400,236.000 466.216,236.000 465.955 C 236.000 465.664,236.482 465.601,237.400 465.774 C 238.275 465.938,238.800 465.879,238.800 465.618 C 238.800 465.388,239.430 465.200,240.200 465.200 C 240.970 465.200,241.600 465.020,241.600 464.800 C 241.600 464.580,242.219 464.400,242.976 464.400 C 243.733 464.400,244.464 464.219,244.601 463.999 C 244.737 463.778,245.288 463.707,245.825 463.842 C 246.419 463.991,246.800 463.914,246.800 463.643 C 246.800 463.400,247.430 463.200,248.200 463.200 C 248.970 463.200,249.600 463.020,249.600 462.800 C 249.600 462.580,250.050 462.400,250.600 462.400 C 251.150 462.400,251.600 462.198,251.600 461.950 C 251.600 461.662,252.038 461.588,252.820 461.744 C 253.576 461.895,253.947 461.838,253.796 461.594 C 253.661 461.375,254.006 461.200,254.576 461.200 C 255.139 461.200,255.600 461.020,255.600 460.800 C 255.600 460.580,256.039 460.400,256.576 460.400 C 257.113 460.400,257.674 460.204,257.822 459.965 C 257.969 459.726,258.430 459.619,258.845 459.728 C 259.260 459.836,259.600 459.762,259.600 459.563 C 259.600 459.363,260.050 459.200,260.600 459.200 C 261.150 459.200,261.600 459.020,261.600 458.800 C 261.600 458.580,261.960 458.400,262.400 458.400 C 262.840 458.400,263.200 458.199,263.200 457.953 C 263.200 457.693,263.616 457.586,264.200 457.698 C 264.750 457.803,265.200 457.734,265.200 457.545 C 265.200 457.355,265.560 457.200,266.000 457.200 C 266.440 457.200,266.800 457.020,266.800 456.800 C 266.800 456.580,267.160 456.400,267.600 456.400 C 268.040 456.400,268.400 456.236,268.400 456.035 C 268.400 455.834,269.120 455.549,270.000 455.400 C 270.880 455.251,271.600 454.966,271.600 454.765 C 271.600 454.564,271.960 454.400,272.400 454.400 C 272.840 454.400,273.200 454.241,273.200 454.047 C 273.200 453.655,274.718 453.079,275.500 453.174 C 275.775 453.208,276.000 453.047,276.000 452.818 C 276.000 452.588,276.270 452.400,276.600 452.400 C 276.930 452.400,277.200 452.241,277.200 452.047 C 277.200 451.655,278.718 451.079,279.500 451.174 C 279.775 451.208,280.000 451.047,280.000 450.818 C 280.000 450.588,280.270 450.400,280.600 450.400 C 280.930 450.400,281.200 450.220,281.200 450.000 C 281.200 449.780,281.560 449.600,282.000 449.600 C 282.440 449.600,282.800 449.426,282.800 449.213 C 282.800 448.999,283.070 448.929,283.400 449.055 C 283.730 449.182,284.000 449.086,284.000 448.843 C 284.000 448.599,284.270 448.400,284.600 448.400 C 284.930 448.400,285.200 448.247,285.200 448.061 C 285.200 447.874,285.965 447.384,286.900 446.972 C 287.835 446.559,288.690 446.127,288.800 446.011 C 289.177 445.613,290.600 444.777,291.300 444.542 C 291.685 444.412,292.000 444.148,292.000 443.953 C 292.000 443.759,292.248 443.600,292.551 443.600 C 292.854 443.600,293.326 443.330,293.600 443.000 C 293.874 442.670,294.393 442.400,294.753 442.400 C 295.113 442.400,295.637 442.033,295.917 441.584 C 296.197 441.136,296.615 440.885,296.845 441.028 C 297.075 441.170,297.530 440.907,297.855 440.443 C 298.180 439.980,298.705 439.600,299.023 439.600 C 299.340 439.600,299.600 439.401,299.600 439.157 C 299.600 438.914,299.879 438.822,300.221 438.953 C 300.577 439.089,300.737 439.022,300.597 438.795 C 300.463 438.578,300.535 438.400,300.758 438.400 C 300.981 438.400,301.612 437.995,302.159 437.500 C 302.707 437.005,303.606 436.197,304.158 435.705 C 304.788 435.143,305.416 434.908,305.846 435.073 C 306.264 435.233,306.433 435.177,306.279 434.928 C 305.990 434.461,307.745 432.800,308.528 432.800 C 308.815 432.800,309.449 432.260,309.937 431.600 C 310.425 430.940,311.179 430.400,311.612 430.400 C 312.045 430.400,312.400 430.235,312.400 430.034 C 312.400 429.520,315.097 426.800,315.607 426.800 C 315.839 426.800,317.645 425.180,319.622 423.200 C 321.598 421.220,323.404 419.600,323.636 419.600 C 324.028 419.600,324.360 419.360,325.686 418.119 C 326.610 417.255,327.200 416.441,327.200 416.032 C 327.200 415.812,327.920 414.918,328.800 414.047 C 330.919 411.949,330.855 411.661,327.700 409.094 C 321.367 403.942,314.974 400.895,306.200 398.847 C 305.100 398.590,303.300 398.112,302.200 397.785 C 301.100 397.457,296.780 396.214,292.600 395.022 C 276.832 390.524,273.199 389.457,271.400 388.794 C 270.680 388.529,269.495 388.191,264.200 386.740 C 260.111 385.620,253.987 383.857,251.125 382.977 C 248.557 382.187,248.219 382.237,247.571 383.500 " stroke="none" fill="#18262f" fill-rule="evenodd"></path><path id="path1" d="M198.400 114.737 C 198.400 114.922,193.692 115.183,187.939 115.318 C 181.519 115.468,177.316 115.724,177.059 115.981 C 176.828 116.212,175.596 116.400,174.320 116.400 C 173.044 116.400,172.000 116.557,172.000 116.748 C 172.000 116.940,170.380 117.224,168.400 117.378 C 166.420 117.533,164.800 117.827,164.800 118.030 C 164.800 118.234,164.080 118.400,163.200 118.400 C 162.320 118.400,161.600 118.554,161.600 118.743 C 161.600 118.931,160.295 119.206,158.700 119.354 C 157.105 119.501,155.740 119.797,155.667 120.011 C 155.593 120.225,155.008 120.400,154.367 120.400 C 153.725 120.400,153.200 120.562,153.200 120.761 C 153.200 120.959,152.120 121.247,150.799 121.400 C 149.479 121.553,148.298 121.841,148.176 122.039 C 148.053 122.238,147.513 122.400,146.976 122.400 C 146.439 122.400,146.000 122.557,146.000 122.749 C 146.000 123.066,143.017 123.799,142.300 123.659 C 142.135 123.626,142.000 123.780,142.000 124.000 C 142.000 124.220,141.550 124.400,141.000 124.400 C 140.450 124.400,140.000 124.580,140.000 124.800 C 140.000 125.020,139.561 125.200,139.024 125.200 C 138.487 125.200,137.934 125.383,137.796 125.607 C 137.658 125.830,137.377 125.909,137.172 125.783 C 136.968 125.656,136.800 125.743,136.800 125.976 C 136.800 126.209,136.350 126.400,135.800 126.400 C 135.250 126.400,134.800 126.558,134.800 126.750 C 134.800 126.942,134.215 127.238,133.500 127.406 C 132.785 127.574,132.110 127.756,132.000 127.810 C 131.890 127.864,131.395 128.039,130.900 128.200 C 130.405 128.362,130.000 128.652,130.000 128.847 C 130.000 129.041,129.550 129.200,129.000 129.200 C 128.450 129.200,128.000 129.360,128.000 129.555 C 128.000 129.751,127.370 130.029,126.600 130.174 C 125.830 130.318,125.200 130.608,125.200 130.818 C 125.200 131.028,124.930 131.200,124.600 131.200 C 124.270 131.200,124.000 131.360,124.000 131.555 C 124.000 131.751,123.370 132.029,122.600 132.174 C 121.830 132.318,121.200 132.608,121.200 132.818 C 121.200 133.028,120.930 133.200,120.600 133.200 C 120.270 133.200,120.000 133.360,120.000 133.555 C 120.000 133.751,119.370 134.029,118.600 134.174 C 117.830 134.318,117.200 134.608,117.200 134.818 C 117.200 135.028,116.840 135.200,116.400 135.200 C 115.960 135.200,115.600 135.366,115.600 135.568 C 115.600 135.771,115.060 136.055,114.400 136.200 C 113.740 136.345,113.200 136.629,113.200 136.832 C 113.200 137.034,112.952 137.200,112.649 137.200 C 112.346 137.200,111.874 137.470,111.600 137.800 C 111.326 138.130,110.764 138.400,110.351 138.400 C 109.938 138.400,109.600 138.580,109.600 138.800 C 109.600 139.020,109.330 139.200,109.000 139.200 C 108.670 139.200,108.400 139.377,108.400 139.592 C 108.400 139.808,107.950 140.098,107.400 140.236 C 106.850 140.374,106.400 140.647,106.400 140.843 C 106.400 141.040,106.130 141.200,105.800 141.200 C 105.470 141.200,105.200 141.339,105.200 141.509 C 105.200 141.679,104.570 142.157,103.800 142.572 C 103.030 142.987,102.400 143.458,102.400 143.620 C 102.400 143.781,101.950 144.026,101.400 144.164 C 100.850 144.302,100.400 144.592,100.400 144.808 C 100.400 145.023,100.130 145.200,99.800 145.200 C 99.470 145.200,99.200 145.339,99.200 145.509 C 99.200 145.679,98.570 146.157,97.800 146.572 C 97.030 146.987,96.400 147.437,96.400 147.572 C 96.400 147.707,95.770 148.157,95.000 148.572 C 94.230 148.987,93.600 149.478,93.600 149.663 C 93.600 149.848,93.393 150.000,93.140 150.000 C 92.888 150.000,92.069 150.630,91.321 151.400 C 90.573 152.170,89.765 152.800,89.524 152.800 C 89.283 152.800,88.571 153.340,87.940 154.000 C 87.309 154.660,86.604 155.200,86.374 155.200 C 86.143 155.200,85.092 156.100,84.037 157.200 C 82.983 158.300,81.964 159.200,81.774 159.200 C 81.584 159.200,81.062 159.562,80.614 160.005 C 70.384 170.118,66.800 173.807,66.800 174.223 C 66.800 174.364,65.900 175.361,64.800 176.438 C 63.700 177.515,62.800 178.584,62.800 178.814 C 62.800 179.044,62.080 179.917,61.200 180.754 C 60.320 181.591,59.600 182.474,59.600 182.715 C 59.600 182.957,59.282 183.390,58.893 183.677 C 58.504 183.965,57.844 184.735,57.425 185.390 C 57.006 186.044,56.337 186.931,55.937 187.360 C 55.536 187.790,55.105 188.469,54.978 188.871 C 54.850 189.272,54.578 189.600,54.373 189.600 C 54.168 189.600,54.000 189.870,54.000 190.200 C 54.000 190.530,53.823 190.800,53.608 190.800 C 53.392 190.800,53.102 191.250,52.964 191.800 C 52.826 192.350,52.581 192.800,52.420 192.800 C 52.258 192.800,51.787 193.430,51.372 194.200 C 50.957 194.970,50.479 195.600,50.309 195.600 C 50.139 195.600,50.000 195.870,50.000 196.200 C 50.000 196.530,49.832 196.800,49.627 196.800 C 49.422 196.800,49.126 197.205,48.970 197.700 C 48.813 198.195,48.352 198.891,47.944 199.246 C 47.535 199.602,47.089 200.457,46.951 201.146 C 46.813 201.836,46.543 202.400,46.350 202.400 C 46.158 202.400,46.000 202.670,46.000 203.000 C 46.000 203.330,45.823 203.600,45.608 203.600 C 45.392 203.600,45.102 204.050,44.964 204.600 C 44.826 205.150,44.553 205.600,44.357 205.600 C 44.160 205.600,44.000 205.870,44.000 206.200 C 44.000 206.530,43.840 206.800,43.645 206.800 C 43.449 206.800,43.171 207.430,43.026 208.200 C 42.882 208.970,42.615 209.600,42.432 209.600 C 42.035 209.600,39.200 215.094,39.200 215.863 C 39.200 216.158,39.009 216.400,38.776 216.400 C 38.543 216.400,38.456 216.568,38.583 216.772 C 38.709 216.977,38.630 217.258,38.407 217.396 C 38.183 217.534,38.000 217.982,38.000 218.390 C 38.000 218.799,37.865 219.193,37.700 219.267 C 37.165 219.504,36.000 221.900,36.000 222.762 C 36.000 223.223,35.820 223.600,35.600 223.600 C 35.380 223.600,35.200 223.960,35.200 224.400 C 35.200 224.840,35.020 225.200,34.800 225.200 C 34.580 225.200,34.399 225.605,34.398 226.100 C 34.396 226.595,34.126 227.516,33.798 228.146 C 33.469 228.776,33.200 229.541,33.200 229.846 C 33.200 230.151,33.037 230.400,32.838 230.400 C 32.638 230.400,32.351 231.300,32.200 232.400 C 32.049 233.500,31.762 234.400,31.562 234.400 C 31.363 234.400,31.200 234.839,31.200 235.376 C 31.200 235.913,31.030 236.458,30.823 236.586 C 30.616 236.714,30.325 237.624,30.178 238.609 C 30.030 239.594,29.770 240.400,29.600 240.400 C 29.266 240.400,29.070 241.149,28.322 245.300 C 28.054 246.785,27.693 248.000,27.518 248.000 C 27.343 248.000,27.200 248.540,27.200 249.200 C 27.200 249.860,27.035 250.400,26.834 250.400 C 26.633 250.400,26.342 251.750,26.187 253.400 C 26.033 255.050,25.747 256.400,25.553 256.400 C 25.359 256.400,25.200 257.210,25.200 258.200 C 25.200 259.190,25.035 260.000,24.834 260.000 C 24.632 260.000,24.339 261.980,24.182 264.400 C 24.025 266.820,23.740 268.800,23.549 268.800 C 23.357 268.800,23.200 269.955,23.200 271.367 C 23.200 273.046,23.029 273.990,22.706 274.098 C 21.984 274.339,21.978 309.338,22.700 310.060 C 23.009 310.369,23.200 311.678,23.200 313.480 C 23.200 315.086,23.358 316.400,23.552 316.400 C 23.746 316.400,24.033 318.290,24.191 320.600 C 24.348 322.910,24.640 324.800,24.838 324.800 C 25.037 324.800,25.200 325.610,25.200 326.600 C 25.200 327.590,25.359 328.400,25.553 328.400 C 25.747 328.400,26.033 329.750,26.187 331.400 C 26.342 333.050,26.633 334.400,26.834 334.400 C 27.035 334.400,27.200 335.030,27.200 335.800 C 27.200 336.570,27.359 337.200,27.554 337.200 C 27.869 337.200,28.644 341.346,28.469 342.100 C 28.431 342.265,28.580 342.400,28.800 342.400 C 29.020 342.400,29.200 342.850,29.200 343.400 C 29.200 343.950,29.363 344.400,29.562 344.400 C 29.762 344.400,30.049 345.300,30.200 346.400 C 30.351 347.500,30.638 348.400,30.838 348.400 C 31.037 348.400,31.200 348.850,31.200 349.400 C 31.200 349.950,31.360 350.400,31.555 350.400 C 31.750 350.400,32.030 351.206,32.178 352.191 C 32.325 353.176,32.616 354.086,32.823 354.214 C 33.030 354.342,33.200 354.887,33.200 355.424 C 33.200 355.961,33.357 356.400,33.550 356.400 C 33.742 356.400,34.017 356.984,34.159 357.697 C 34.478 359.288,35.300 361.200,35.666 361.200 C 35.815 361.200,36.058 361.755,36.207 362.434 C 36.357 363.113,36.984 364.629,37.602 365.804 C 38.220 366.979,38.623 368.044,38.496 368.170 C 38.370 368.297,38.477 368.400,38.733 368.400 C 38.990 368.400,39.200 368.760,39.200 369.200 C 39.200 369.640,39.380 370.000,39.600 370.000 C 39.820 370.000,40.000 370.270,40.000 370.600 C 40.000 370.930,40.160 371.200,40.355 371.200 C 40.551 371.200,40.829 371.830,40.974 372.600 C 41.118 373.370,41.408 374.000,41.618 374.000 C 41.828 374.000,42.000 374.270,42.000 374.600 C 42.000 374.930,42.160 375.200,42.355 375.200 C 42.551 375.200,42.829 375.830,42.974 376.600 C 43.118 377.370,43.408 378.000,43.618 378.000 C 43.828 378.000,44.000 378.270,44.000 378.600 C 44.000 378.930,44.160 379.200,44.357 379.200 C 44.553 379.200,44.826 379.650,44.964 380.200 C 45.102 380.750,45.392 381.200,45.608 381.200 C 45.823 381.200,46.000 381.560,46.000 382.000 C 46.000 382.440,46.160 382.800,46.357 382.800 C 46.553 382.800,46.826 383.250,46.964 383.800 C 47.102 384.350,47.392 384.800,47.608 384.800 C 47.823 384.800,48.000 385.070,48.000 385.400 C 48.000 385.730,48.160 386.000,48.357 386.000 C 48.553 386.000,48.826 386.450,48.964 387.000 C 49.102 387.550,49.392 388.000,49.608 388.000 C 49.823 388.000,50.000 388.270,50.000 388.600 C 50.000 388.930,50.177 389.200,50.392 389.200 C 50.608 389.200,50.899 389.654,51.038 390.209 C 51.177 390.764,51.605 391.439,51.988 391.709 C 52.372 391.979,52.813 392.605,52.970 393.100 C 53.126 393.595,53.422 394.000,53.627 394.000 C 53.832 394.000,54.000 394.188,54.000 394.417 C 54.000 394.647,54.450 395.320,55.000 395.913 C 55.550 396.507,56.000 397.137,56.000 397.313 C 56.000 397.490,56.450 398.120,57.000 398.713 C 57.550 399.307,58.000 399.976,58.000 400.201 C 58.000 400.426,58.450 400.948,59.000 401.361 C 59.550 401.774,60.000 402.324,60.000 402.584 C 60.000 402.843,60.405 403.436,60.900 403.900 C 62.052 404.981,62.800 405.896,62.800 406.225 C 62.800 406.367,63.880 407.540,65.200 408.832 C 66.520 410.123,67.600 411.365,67.600 411.590 C 67.600 412.328,68.096 412.031,70.766 409.693 C 73.971 406.886,76.213 405.200,76.740 405.200 C 76.956 405.200,77.193 405.047,77.267 404.860 C 77.377 404.579,82.422 402.048,85.400 400.781 C 87.190 400.019,90.086 399.200,90.990 399.200 C 91.520 399.200,92.064 399.020,92.200 398.800 C 92.336 398.580,93.056 398.400,93.800 398.400 C 94.544 398.400,95.249 398.244,95.367 398.053 C 95.485 397.862,96.527 397.580,97.681 397.427 C 98.835 397.274,99.965 397.003,100.190 396.825 C 100.416 396.646,101.140 396.396,101.800 396.268 C 105.826 395.486,107.973 394.963,108.235 394.700 C 108.399 394.535,108.923 394.400,109.400 394.400 C 109.877 394.400,110.401 394.265,110.565 394.100 C 110.827 393.837,112.974 393.314,117.000 392.532 C 117.660 392.404,118.384 392.154,118.610 391.975 C 118.835 391.797,119.965 391.526,121.119 391.373 C 122.273 391.220,123.315 390.938,123.433 390.747 C 123.551 390.556,124.166 390.400,124.800 390.400 C 125.434 390.400,126.056 390.233,126.183 390.028 C 126.309 389.823,127.402 389.532,128.612 389.381 C 129.821 389.230,130.909 388.948,131.029 388.753 C 131.149 388.559,131.766 388.400,132.400 388.400 C 133.034 388.400,133.653 388.238,133.776 388.039 C 133.898 387.841,135.079 387.553,136.400 387.400 C 137.721 387.247,138.902 386.959,139.024 386.761 C 139.147 386.562,139.766 386.400,140.400 386.400 C 141.034 386.400,141.651 386.241,141.771 386.046 C 141.892 385.852,142.757 385.577,143.695 385.435 C 147.695 384.832,148.371 384.428,153.400 379.644 C 156.654 376.549,159.844 373.575,167.133 366.844 L 171.200 363.088 171.200 357.353 L 171.200 351.618 170.100 350.930 C 154.407 341.105,146.908 331.238,144.363 317.063 C 144.120 315.708,143.778 313.790,143.602 312.800 C 143.292 311.049,141.959 305.849,141.184 303.372 C 140.973 302.696,140.800 301.751,140.800 301.272 C 140.800 300.550,140.570 300.400,139.460 300.400 C 133.591 300.400,127.668 287.923,126.558 273.219 L 126.296 269.746 127.585 268.279 C 129.054 266.605,131.314 265.814,133.545 266.191 L 135.000 266.437 134.680 259.119 C 134.316 250.784,134.611 232.142,135.220 225.000 C 135.905 216.967,136.822 208.679,137.189 207.200 C 141.267 190.764,145.091 183.548,152.080 179.101 C 157.360 175.743,164.286 172.436,168.206 171.402 C 170.403 170.823,172.830 170.180,173.600 169.974 C 178.625 168.626,195.307 164.692,198.068 164.204 C 207.963 162.454,218.054 164.855,230.200 171.848 C 236.926 175.721,243.956 179.551,247.078 181.045 C 259.446 186.961,267.897 210.179,267.079 236.000 C 266.762 246.037,265.835 255.756,264.790 260.000 C 264.601 260.770,264.328 262.480,264.184 263.800 L 263.922 266.200 265.535 266.219 C 267.649 266.243,268.946 266.977,270.187 268.852 C 271.550 270.912,271.548 270.968,269.741 280.800 C 267.887 290.886,263.317 299.296,259.199 300.200 C 258.277 300.403,258.014 300.758,257.627 302.322 C 257.371 303.355,257.007 304.740,256.819 305.400 C 256.219 307.499,255.652 310.525,255.394 313.000 C 255.256 314.320,254.963 316.120,254.742 317.000 C 253.630 321.425,253.034 323.435,252.732 323.780 C 252.550 323.989,252.400 324.389,252.400 324.669 C 252.400 328.048,243.796 339.895,238.400 343.945 C 237.630 344.523,236.910 345.095,236.800 345.216 C 236.690 345.337,234.890 346.500,232.800 347.800 C 228.028 350.769,228.413 349.950,228.406 357.123 L 228.400 363.246 230.111 364.923 C 231.052 365.845,234.157 368.753,237.011 371.384 C 241.313 375.350,245.080 378.883,248.222 381.900 C 248.509 382.175,248.994 382.400,249.300 382.400 C 249.607 382.400,250.655 382.649,251.629 382.953 C 252.603 383.257,254.210 383.728,255.200 383.999 C 256.190 384.271,257.450 384.638,258.000 384.814 C 259.645 385.343,267.039 387.450,269.400 388.063 C 270.280 388.291,271.313 388.640,271.695 388.839 C 272.077 389.038,272.638 389.200,272.942 389.200 C 273.247 389.200,274.644 389.576,276.048 390.035 C 278.166 390.728,282.532 392.005,291.000 394.407 C 291.660 394.595,293.280 395.038,294.600 395.392 C 295.920 395.746,297.630 396.219,298.400 396.443 C 300.426 397.033,304.406 398.021,305.800 398.278 C 306.460 398.401,307.180 398.635,307.400 398.800 C 307.620 398.964,308.651 399.222,309.691 399.373 C 310.731 399.523,311.686 399.816,311.814 400.023 C 311.942 400.230,312.399 400.400,312.829 400.400 C 313.259 400.400,313.923 400.571,314.305 400.780 C 314.687 400.988,316.170 401.711,317.600 402.385 C 322.740 404.810,326.396 407.251,330.059 410.706 L 331.518 412.082 332.359 411.241 C 332.822 410.778,333.200 410.302,333.200 410.183 C 333.200 409.910,333.802 409.203,335.700 407.243 C 336.525 406.391,337.200 405.559,337.200 405.394 C 337.200 405.229,337.830 404.500,338.600 403.774 C 339.370 403.048,340.000 402.305,340.000 402.123 C 340.000 401.941,340.450 401.307,341.000 400.713 C 341.550 400.120,342.000 399.529,342.000 399.400 C 342.000 399.271,342.450 398.680,343.000 398.087 C 343.550 397.493,344.000 396.863,344.000 396.685 C 344.000 396.507,344.409 395.965,344.908 395.481 C 345.408 394.996,346.169 393.925,346.599 393.100 C 347.030 392.275,347.500 391.600,347.645 391.600 C 347.790 391.600,348.208 390.970,348.573 390.200 C 348.939 389.430,349.409 388.800,349.619 388.800 C 349.828 388.800,350.000 388.440,350.000 388.000 C 350.000 387.560,350.160 387.200,350.357 387.200 C 350.553 387.200,350.826 386.750,350.964 386.200 C 351.102 385.650,351.392 385.200,351.608 385.200 C 351.823 385.200,352.000 384.930,352.000 384.600 C 352.000 384.270,352.160 384.000,352.357 384.000 C 352.553 384.000,352.826 383.550,352.964 383.000 C 353.102 382.450,353.392 382.000,353.608 382.000 C 353.823 382.000,354.000 381.730,354.000 381.400 C 354.000 381.070,354.160 380.800,354.355 380.800 C 354.551 380.800,354.822 380.209,354.957 379.487 C 355.093 378.765,355.562 377.916,356.000 377.600 C 356.438 377.284,356.907 376.435,357.043 375.713 C 357.178 374.991,357.449 374.400,357.645 374.400 C 357.840 374.400,358.000 374.130,358.000 373.800 C 358.000 373.470,358.180 373.200,358.400 373.200 C 358.620 373.200,358.800 373.002,358.800 372.760 C 358.800 372.280,360.023 369.522,360.379 369.200 C 360.843 368.780,362.000 365.939,362.000 365.220 C 362.000 364.806,362.135 364.407,362.300 364.333 C 362.769 364.125,364.000 361.747,364.000 361.050 C 364.000 360.706,364.338 359.822,364.752 359.085 C 365.166 358.349,365.630 357.173,365.784 356.473 C 365.938 355.773,366.229 355.200,366.432 355.200 C 366.634 355.200,366.800 354.761,366.800 354.224 C 366.800 353.687,366.970 353.142,367.177 353.014 C 367.384 352.886,367.675 351.976,367.822 350.991 C 367.970 350.006,368.250 349.200,368.445 349.200 C 368.640 349.200,368.800 348.750,368.800 348.200 C 368.800 347.650,368.971 347.200,369.180 347.200 C 369.389 347.200,369.682 346.120,369.832 344.800 C 369.981 343.480,370.260 342.400,370.452 342.400 C 370.643 342.400,370.800 341.950,370.800 341.400 C 370.800 340.850,370.959 340.400,371.153 340.400 C 371.348 340.400,371.632 339.230,371.785 337.800 C 371.938 336.370,372.229 335.200,372.432 335.200 C 372.634 335.200,372.800 334.570,372.800 333.800 C 372.800 333.030,372.964 332.400,373.164 332.400 C 373.364 332.400,373.656 330.870,373.811 329.000 C 373.967 327.130,374.253 325.600,374.447 325.600 C 374.641 325.600,374.800 324.891,374.800 324.024 C 374.800 323.157,374.964 322.346,375.165 322.222 C 375.366 322.098,375.659 319.837,375.816 317.198 C 375.974 314.559,376.260 312.400,376.451 312.400 C 376.643 312.400,376.800 310.611,376.800 308.424 C 376.800 306.204,376.977 304.338,377.200 304.200 C 377.745 303.863,377.745 280.537,377.200 280.200 C 376.980 280.064,376.800 278.343,376.800 276.376 C 376.800 274.409,376.645 272.800,376.457 272.800 C 376.268 272.800,375.986 270.595,375.829 267.900 C 375.673 265.205,375.378 262.940,375.173 262.867 C 374.968 262.793,374.800 261.848,374.800 260.767 C 374.800 259.685,374.646 258.800,374.457 258.800 C 374.269 258.800,373.994 257.499,373.846 255.909 C 373.698 254.319,373.403 252.843,373.189 252.629 C 372.975 252.415,372.800 251.736,372.800 251.120 C 372.800 250.504,372.638 250.000,372.441 250.000 C 372.243 250.000,371.955 248.740,371.800 247.200 C 371.645 245.660,371.357 244.400,371.159 244.400 C 370.962 244.400,370.800 243.860,370.800 243.200 C 370.800 242.540,370.637 242.000,370.438 242.000 C 370.238 242.000,369.951 241.100,369.800 240.000 C 369.649 238.900,369.362 238.000,369.162 238.000 C 368.963 238.000,368.800 237.561,368.800 237.024 C 368.800 236.487,368.644 235.951,368.453 235.832 C 368.261 235.714,367.988 234.886,367.845 233.991 C 367.702 233.097,367.423 232.058,367.226 231.683 C 366.553 230.402,365.600 228.080,365.600 227.719 C 365.600 227.109,364.617 225.206,364.300 225.203 C 364.135 225.201,364.000 224.841,364.000 224.403 C 364.000 223.417,362.723 220.400,362.306 220.400 C 362.138 220.400,362.000 219.984,362.000 219.476 C 362.000 218.969,361.736 218.204,361.413 217.776 C 361.090 217.349,360.820 216.685,360.813 216.300 C 360.806 215.915,360.620 215.600,360.400 215.600 C 360.180 215.600,360.000 215.330,360.000 215.000 C 360.000 214.670,359.828 214.400,359.618 214.400 C 359.408 214.400,359.118 213.770,358.974 213.000 C 358.829 212.230,358.551 211.600,358.355 211.600 C 358.160 211.600,358.000 211.330,358.000 211.000 C 358.000 210.670,357.840 210.400,357.645 210.400 C 357.449 210.400,357.171 209.770,357.026 209.000 C 356.882 208.230,356.592 207.600,356.382 207.600 C 356.172 207.600,356.000 207.330,356.000 207.000 C 356.000 206.670,355.823 206.400,355.608 206.400 C 355.392 206.400,355.102 205.950,354.964 205.400 C 354.826 204.850,354.553 204.400,354.357 204.400 C 354.160 204.400,354.000 204.040,354.000 203.600 C 354.000 203.160,353.841 202.800,353.647 202.800 C 353.452 202.800,353.188 202.485,353.058 202.100 C 352.803 201.340,351.949 199.921,351.554 199.600 C 351.419 199.490,351.181 198.995,351.027 198.500 C 350.872 198.005,350.578 197.600,350.373 197.600 C 350.168 197.600,350.000 197.330,350.000 197.000 C 350.000 196.670,349.861 196.400,349.691 196.400 C 349.521 196.400,349.043 195.770,348.628 195.000 C 348.213 194.230,347.742 193.600,347.580 193.600 C 347.419 193.600,347.174 193.150,347.036 192.600 C 346.898 192.050,346.608 191.600,346.392 191.600 C 346.177 191.600,346.000 191.428,346.000 191.218 C 346.000 190.758,344.375 188.318,343.458 187.400 C 343.096 187.039,342.800 186.621,342.799 186.471 C 342.799 186.322,342.258 185.570,341.597 184.800 C 340.937 184.030,340.298 183.094,340.178 182.720 C 340.057 182.347,339.617 181.933,339.200 181.800 C 338.783 181.667,338.317 181.168,338.165 180.690 C 338.013 180.212,337.104 179.058,336.145 178.125 C 335.185 177.193,334.400 176.249,334.400 176.027 C 334.400 175.484,316.938 158.000,316.396 158.000 C 316.161 158.000,315.283 157.280,314.446 156.400 C 313.609 155.520,312.638 154.800,312.289 154.800 C 311.940 154.800,311.543 154.449,311.406 154.020 C 311.270 153.592,310.808 153.130,310.380 152.994 C 309.951 152.857,309.600 152.578,309.600 152.373 C 309.600 152.168,309.396 152.000,309.146 152.000 C 308.896 152.000,308.275 151.550,307.765 151.000 C 307.255 150.450,306.641 150.000,306.400 150.000 C 306.159 150.000,305.545 149.550,305.035 149.000 C 304.525 148.450,303.904 148.000,303.654 148.000 C 303.404 148.000,303.200 147.848,303.200 147.663 C 303.200 147.478,302.570 146.987,301.800 146.572 C 301.030 146.157,300.400 145.720,300.400 145.600 C 300.400 145.480,299.770 145.043,299.000 144.628 C 298.230 144.213,297.600 143.722,297.600 143.537 C 297.600 143.352,297.330 143.200,297.000 143.200 C 296.670 143.200,296.400 143.020,296.400 142.800 C 296.400 142.580,296.034 142.400,295.587 142.400 C 295.141 142.400,294.671 142.130,294.545 141.800 C 294.418 141.470,293.974 141.200,293.557 141.200 C 293.141 141.200,292.800 141.023,292.800 140.808 C 292.800 140.592,292.350 140.302,291.800 140.164 C 291.250 140.026,290.800 139.753,290.800 139.557 C 290.800 139.360,290.530 139.200,290.200 139.200 C 289.870 139.200,289.600 139.032,289.600 138.827 C 289.600 138.622,289.195 138.328,288.700 138.173 C 288.205 138.019,287.710 137.772,287.600 137.625 C 287.322 137.254,284.575 136.000,284.040 136.000 C 283.798 136.000,283.600 135.820,283.600 135.600 C 283.600 135.380,283.352 135.200,283.049 135.200 C 282.746 135.200,282.274 134.930,282.000 134.600 C 281.726 134.270,281.164 134.000,280.751 134.000 C 280.338 134.000,280.000 133.820,280.000 133.600 C 280.000 133.380,279.730 133.200,279.400 133.200 C 279.070 133.200,278.800 133.043,278.800 132.851 C 278.800 132.659,278.080 132.387,277.200 132.246 C 276.320 132.106,275.600 131.813,275.600 131.595 C 275.600 131.378,275.240 131.200,274.800 131.200 C 274.360 131.200,274.000 131.034,274.000 130.832 C 274.000 130.629,273.460 130.345,272.800 130.200 C 272.140 130.055,271.600 129.771,271.600 129.568 C 271.600 129.366,271.150 129.200,270.600 129.200 C 270.050 129.200,269.600 129.020,269.600 128.800 C 269.600 128.580,269.285 128.394,268.900 128.387 C 268.515 128.380,267.851 128.110,267.424 127.787 C 266.996 127.464,266.246 127.200,265.757 127.200 C 265.267 127.200,264.807 127.065,264.733 126.900 C 264.562 126.514,260.817 125.195,259.900 125.198 C 259.515 125.199,259.200 125.020,259.200 124.800 C 259.200 124.580,258.761 124.400,258.224 124.400 C 257.687 124.400,257.142 124.230,257.014 124.023 C 256.886 123.816,255.976 123.525,254.991 123.378 C 254.006 123.230,253.200 122.950,253.200 122.755 C 253.200 122.560,252.761 122.400,252.224 122.400 C 251.687 122.400,251.146 122.237,251.023 122.037 C 250.900 121.838,249.900 121.551,248.800 121.400 C 247.700 121.249,246.700 120.962,246.577 120.763 C 246.454 120.563,245.823 120.400,245.176 120.400 C 244.529 120.400,244.000 120.235,244.000 120.034 C 244.000 119.833,242.650 119.542,241.000 119.387 C 239.350 119.233,238.000 118.947,238.000 118.753 C 238.000 118.559,237.370 118.400,236.600 118.400 C 235.830 118.400,235.200 118.220,235.200 118.000 C 235.200 117.780,235.065 117.630,234.900 117.667 C 234.036 117.861,227.200 117.046,227.200 116.748 C 227.200 116.557,226.135 116.400,224.833 116.400 C 223.532 116.400,222.405 116.216,222.330 115.990 C 222.245 115.734,218.271 115.486,211.681 115.326 C 205.899 115.186,201.074 114.920,200.960 114.736 C 200.689 114.297,198.400 114.298,198.400 114.737 " stroke="none" fill="#fbd35c" fill-rule="evenodd"></path><path id="path2" d="M168.195 366.308 C 166.872 367.568,163.182 371.028,159.995 373.996 C 148.787 384.433,149.044 384.160,149.555 385.115 C 150.322 386.549,153.484 388.555,167.200 396.309 C 168.190 396.869,169.671 397.749,170.492 398.264 C 171.313 398.779,172.074 399.200,172.184 399.200 C 172.294 399.200,173.369 399.830,174.573 400.600 C 175.777 401.370,176.864 402.000,176.989 402.000 C 177.114 402.000,177.917 402.442,178.773 402.983 C 180.412 404.018,181.213 403.754,181.456 402.100 C 181.506 401.759,181.703 401.372,181.895 401.240 C 182.086 401.108,182.772 400.280,183.419 399.400 C 184.066 398.520,184.699 397.710,184.824 397.600 C 184.950 397.490,185.850 396.320,186.824 395.000 C 187.799 393.680,188.695 392.510,188.817 392.400 C 188.939 392.290,190.290 390.580,191.819 388.600 C 193.349 386.621,194.817 384.731,195.081 384.400 C 197.990 380.774,199.595 378.664,199.507 378.583 C 199.332 378.425,190.305 373.745,183.034 370.044 C 179.313 368.150,175.173 366.024,173.834 365.320 C 170.718 363.681,171.002 363.631,168.195 366.308 M225.800 364.943 C 219.678 368.230,213.613 371.421,207.412 374.619 C 200.054 378.413,199.547 378.788,200.468 379.747 C 200.761 380.052,202.440 382.156,204.200 384.423 C 205.960 386.690,208.210 389.567,209.200 390.817 C 210.190 392.066,211.450 393.682,212.000 394.407 C 212.550 395.133,213.998 397.003,215.218 398.563 C 216.438 400.123,217.658 401.913,217.928 402.541 C 218.554 403.993,219.246 403.844,223.465 401.348 C 228.460 398.393,239.655 391.936,241.354 391.029 C 243.064 390.117,244.162 388.828,245.810 385.800 C 246.409 384.700,247.057 383.629,247.249 383.420 C 248.079 382.521,247.350 381.481,243.140 377.557 C 226.669 362.205,228.466 363.512,225.800 364.943 M153.200 391.002 C 153.200 391.113,155.479 394.848,158.264 399.302 C 165.058 410.167,164.779 409.707,165.052 410.500 C 165.185 410.885,165.431 411.200,165.600 411.200 C 165.769 411.200,166.012 411.515,166.142 411.900 C 166.387 412.631,167.235 414.056,167.629 414.400 C 167.755 414.510,167.982 414.870,168.133 415.200 C 168.466 415.930,168.618 416.178,174.941 426.298 C 177.723 430.751,180.000 434.576,180.000 434.798 C 180.000 435.019,180.139 435.200,180.309 435.200 C 180.479 435.200,180.972 435.875,181.405 436.700 C 181.839 437.525,182.743 439.010,183.415 440.000 C 184.087 440.990,184.884 442.295,185.186 442.900 C 185.906 444.343,186.266 444.289,186.523 442.700 C 186.738 441.378,187.789 436.543,188.416 434.000 C 188.606 433.230,188.943 431.790,189.165 430.800 C 189.773 428.093,190.724 423.926,191.426 420.900 C 192.842 414.794,193.118 415.629,187.726 409.706 C 186.065 407.882,184.354 405.941,183.924 405.394 C 182.921 404.119,182.725 404.142,181.844 405.633 C 180.896 407.238,180.438 407.112,174.852 403.702 C 162.515 396.172,159.882 394.586,159.460 394.433 C 159.207 394.342,157.783 393.487,156.296 392.533 C 153.619 390.817,153.200 390.610,153.200 391.002 M235.800 396.857 C 233.160 398.426,230.010 400.290,228.800 401.000 C 227.590 401.710,224.817 403.389,222.639 404.731 C 218.510 407.275,218.186 407.341,217.585 405.761 C 216.970 404.142,216.216 404.632,212.134 409.300 C 209.970 411.775,207.872 414.160,207.471 414.600 C 206.591 415.566,206.675 417.135,207.934 423.200 C 208.413 425.510,208.997 428.390,209.231 429.600 C 209.465 430.810,209.811 432.430,210.001 433.200 C 210.191 433.970,210.464 435.500,210.609 436.600 C 210.755 437.700,211.031 439.140,211.225 439.800 C 211.418 440.460,211.682 441.688,211.812 442.529 C 212.045 444.043,213.200 444.061,213.200 442.551 C 213.200 442.248,213.359 442.000,213.553 442.000 C 213.748 442.000,214.008 441.685,214.131 441.300 C 214.255 440.915,214.925 439.610,215.621 438.400 C 220.423 430.045,221.200 428.644,221.200 428.340 C 221.200 428.153,221.359 428.000,221.553 428.000 C 221.748 428.000,222.006 427.685,222.128 427.300 C 222.349 426.599,224.024 423.576,224.400 423.200 C 224.510 423.090,224.938 422.370,225.351 421.600 C 226.276 419.877,227.555 417.611,230.068 413.243 C 231.131 411.396,232.000 409.731,232.000 409.543 C 232.000 409.354,232.135 409.199,232.300 409.197 C 232.465 409.195,232.791 408.790,233.023 408.297 C 233.755 406.747,236.081 402.646,236.857 401.538 C 237.265 400.954,237.600 400.372,237.600 400.245 C 237.600 400.118,238.329 398.823,239.220 397.367 C 241.481 393.673,241.226 393.635,235.800 396.857 " stroke="none" fill="#f8f8f7" fill-rule="evenodd"></path><path id="path3" d="M170.767 202.813 C 158.359 204.264,148.167 216.527,144.347 234.600 C 141.767 246.805,140.764 265.585,141.986 278.800 C 142.200 281.110,142.648 286.240,142.983 290.200 C 143.883 300.847,144.153 302.729,145.332 306.600 C 145.668 307.700,146.144 309.278,146.392 310.106 C 147.509 313.851,154.783 322.779,159.617 326.338 C 165.640 330.773,170.314 331.327,176.400 328.327 C 184.568 324.300,190.321 323.248,195.809 324.778 C 198.459 325.518,198.781 325.525,202.200 324.931 C 210.250 323.533,218.704 325.144,223.838 329.057 C 225.742 330.508,226.862 330.286,232.600 327.323 C 240.129 323.435,247.216 316.482,252.295 308.000 L 254.331 304.600 254.968 296.400 C 255.318 291.890,255.787 285.680,256.009 282.600 C 256.232 279.520,256.591 275.551,256.807 273.779 C 257.647 266.890,257.270 254.129,255.956 245.000 C 252.744 222.690,244.571 208.987,231.800 204.498 C 227.511 202.991,225.152 202.936,216.200 204.139 C 207.114 205.359,192.391 204.914,179.200 203.020 C 174.627 202.364,174.612 202.363,170.767 202.813 M130.141 266.417 C 129.448 266.628,128.300 267.464,127.589 268.274 L 126.296 269.746 126.558 273.219 C 127.260 282.514,130.428 292.767,133.906 297.000 C 136.274 299.883,140.782 301.649,140.285 299.500 C 137.643 288.087,136.353 280.426,135.553 271.400 C 135.319 268.760,135.085 266.556,135.032 266.502 C 134.699 266.158,131.185 266.097,130.141 266.417 M264.300 266.232 C 264.135 266.398,264.000 267.220,264.000 268.059 C 264.000 270.352,263.266 275.089,261.561 283.800 C 261.087 286.220,260.557 289.010,260.383 290.000 C 260.209 290.990,259.609 293.682,259.049 295.983 C 257.917 300.639,257.910 300.538,259.323 300.184 C 263.394 299.162,267.911 290.757,269.741 280.800 C 271.541 271.007,271.547 270.868,270.240 268.944 C 268.763 266.771,265.326 265.202,264.300 266.232 M188.600 331.550 C 187.280 331.944,185.481 332.576,184.603 332.954 L 183.006 333.640 184.803 334.745 C 194.259 340.557,206.373 340.324,215.368 334.156 C 217.196 332.903,209.235 330.658,203.979 330.946 C 199.510 331.190,200.027 331.188,195.000 330.990 C 191.951 330.869,190.429 331.002,188.600 331.550 M227.000 351.214 C 224.968 352.582,213.493 357.600,212.395 357.600 C 212.046 357.600,211.589 357.746,211.380 357.924 C 211.171 358.103,209.560 358.573,207.800 358.969 C 206.040 359.365,204.130 359.861,203.556 360.070 C 202.003 360.636,195.318 360.600,192.800 360.012 C 186.625 358.571,181.154 356.572,174.700 353.399 L 171.200 351.678 171.200 357.383 L 171.200 363.088 167.135 366.844 C 164.899 368.910,162.684 370.960,162.214 371.400 C 161.743 371.840,160.195 373.280,158.774 374.600 C 157.353 375.920,154.448 378.650,152.318 380.667 L 148.446 384.333 149.923 386.467 C 150.735 387.640,151.748 389.260,152.173 390.066 C 152.598 390.872,153.294 391.952,153.720 392.466 L 154.495 393.400 153.816 392.265 C 152.783 390.541,153.262 390.588,156.258 392.509 C 157.766 393.476,159.207 394.342,159.460 394.433 C 159.882 394.586,162.515 396.172,174.852 403.702 C 180.438 407.112,180.896 407.238,181.844 405.633 C 182.725 404.142,182.921 404.119,183.924 405.394 C 184.354 405.941,186.065 407.882,187.726 409.706 C 193.118 415.629,192.842 414.794,191.426 420.900 C 189.805 427.891,189.547 429.093,189.385 430.400 L 189.212 431.800 189.635 430.400 C 190.179 428.594,190.578 426.942,191.420 423.000 C 191.796 421.240,192.260 419.278,192.452 418.640 C 193.313 415.773,192.988 414.900,189.700 411.251 C 187.995 409.359,186.060 407.194,185.400 406.440 C 184.740 405.687,183.705 404.619,183.100 404.069 C 181.552 402.660,181.673 402.230,184.705 398.354 C 186.187 396.459,188.919 392.949,190.776 390.554 C 192.634 388.159,194.614 385.641,195.176 384.958 C 195.739 384.274,196.916 382.789,197.792 381.658 C 199.747 379.132,199.537 379.119,201.650 381.900 C 202.612 383.165,203.496 384.290,203.615 384.400 C 203.805 384.575,205.516 386.760,214.373 398.148 C 217.218 401.806,217.582 402.224,217.591 401.855 C 217.596 401.665,216.565 400.209,215.300 398.618 C 214.035 397.028,212.550 395.133,212.000 394.407 C 211.450 393.682,210.190 392.066,209.200 390.817 C 208.210 389.567,205.960 386.690,204.200 384.423 C 202.440 382.156,200.761 380.052,200.468 379.747 C 199.547 378.788,200.057 378.409,207.213 374.729 C 211.056 372.753,215.820 370.271,217.800 369.212 C 225.380 365.159,227.683 364.000,228.134 364.012 C 228.390 364.018,230.868 366.133,233.640 368.712 C 249.633 383.589,248.204 381.859,246.600 384.400 C 245.604 385.979,245.273 386.902,245.963 386.180 C 246.943 385.155,248.450 381.878,248.055 381.634 C 247.820 381.489,246.406 380.199,244.914 378.768 C 243.421 377.338,239.865 374.015,237.011 371.384 C 234.157 368.753,231.044 365.837,230.092 364.904 L 228.362 363.209 228.481 356.804 C 228.546 353.281,228.510 350.400,228.400 350.402 C 228.290 350.404,227.660 350.769,227.000 351.214 M173.834 365.320 C 175.173 366.024,179.313 368.150,183.034 370.044 C 190.305 373.745,199.332 378.425,199.507 378.583 C 199.595 378.664,197.990 380.774,195.081 384.400 C 194.817 384.731,193.349 386.621,191.819 388.600 C 190.290 390.580,188.939 392.290,188.817 392.400 C 188.695 392.510,187.799 393.680,186.824 395.000 C 185.850 396.320,184.950 397.490,184.824 397.600 C 184.699 397.710,184.066 398.520,183.419 399.400 C 182.772 400.280,182.086 401.108,181.895 401.240 C 181.703 401.372,181.506 401.759,181.456 402.100 C 181.213 403.754,180.412 404.018,178.773 402.983 C 177.917 402.442,177.114 402.000,176.989 402.000 C 176.864 402.000,175.777 401.370,174.573 400.600 C 173.369 399.830,172.294 399.200,172.184 399.200 C 172.074 399.200,171.313 398.779,170.492 398.264 C 169.671 397.749,168.190 396.869,167.200 396.309 C 153.484 388.555,150.322 386.549,149.555 385.115 C 149.044 384.160,148.787 384.433,159.995 373.996 C 163.182 371.028,166.872 367.568,168.195 366.308 C 171.002 363.631,170.718 363.681,173.834 365.320 M244.148 388.500 C 243.485 389.435,242.235 390.573,241.371 391.029 C 239.710 391.906,228.749 398.223,223.465 401.348 C 219.706 403.571,218.509 403.950,218.155 403.028 C 217.835 402.194,216.196 403.856,208.170 413.156 C 207.527 413.901,206.752 414.767,206.449 415.079 C 206.025 415.514,205.992 415.941,206.308 416.923 L 206.718 418.200 206.759 416.775 C 206.782 415.992,207.115 415.002,207.500 414.575 C 207.885 414.149,209.970 411.775,212.134 409.300 C 216.216 404.632,216.970 404.142,217.585 405.761 C 218.186 407.341,218.510 407.275,222.639 404.731 C 224.817 403.389,227.590 401.710,228.800 401.000 C 230.010 400.290,233.160 398.426,235.800 396.857 C 240.634 393.986,241.413 393.811,240.178 395.876 L 239.505 397.000 240.346 396.000 C 240.808 395.450,241.306 394.640,241.452 394.200 C 241.598 393.760,242.154 392.707,242.689 391.860 C 244.028 389.737,245.654 386.800,245.490 386.800 C 245.415 386.800,244.811 387.565,244.148 388.500 M118.600 392.000 C 118.308 392.473,118.699 392.473,119.800 392.000 C 120.571 391.669,120.569 391.655,119.724 391.628 C 119.242 391.613,118.736 391.780,118.600 392.000 M110.600 394.000 C 110.285 394.509,111.212 394.509,112.000 394.000 C 112.488 393.685,112.436 393.611,111.724 393.606 C 111.242 393.603,110.736 393.780,110.600 394.000 M154.749 394.200 C 154.965 394.640,155.434 395.360,155.793 395.800 L 156.444 396.600 156.051 395.800 C 155.835 395.360,155.366 394.640,155.007 394.200 L 154.356 393.400 154.749 394.200 M103.200 396.000 C 102.405 396.514,103.404 396.514,104.600 396.000 L 105.400 395.656 104.600 395.634 C 104.160 395.622,103.530 395.787,103.200 396.000 M100.200 396.800 C 99.908 397.273,100.299 397.273,101.400 396.800 C 102.171 396.469,102.169 396.455,101.324 396.428 C 100.842 396.413,100.336 396.580,100.200 396.800 M157.385 398.500 C 157.951 399.435,159.176 401.503,160.107 403.095 C 161.038 404.687,161.956 405.992,162.146 405.995 C 162.336 405.998,162.227 405.595,161.904 405.100 C 161.580 404.605,160.281 402.535,159.017 400.500 C 157.753 398.465,156.637 396.800,156.537 396.800 C 156.437 396.800,156.818 397.565,157.385 398.500 M238.433 398.633 C 237.957 399.440,237.642 400.176,237.734 400.267 C 237.826 400.359,238.290 399.774,238.767 398.967 C 239.243 398.160,239.558 397.424,239.466 397.333 C 239.374 397.241,238.910 397.826,238.433 398.633 M95.390 398.016 C 95.221 398.289,95.523 398.338,96.266 398.160 C 97.799 397.792,97.944 397.600,96.690 397.600 C 96.117 397.600,95.532 397.787,95.390 398.016 M303.200 398.000 C 303.530 398.213,304.070 398.388,304.400 398.388 C 304.933 398.388,304.933 398.345,304.400 398.000 C 304.070 397.787,303.530 397.612,303.200 397.612 C 302.667 397.612,302.667 397.655,303.200 398.000 M92.200 398.800 C 91.885 399.309,92.812 399.309,93.600 398.800 C 94.088 398.485,94.036 398.411,93.324 398.406 C 92.842 398.403,92.336 398.580,92.200 398.800 M306.000 398.800 C 306.788 399.309,307.715 399.309,307.400 398.800 C 307.264 398.580,306.758 398.403,306.276 398.406 C 305.564 398.411,305.512 398.485,306.000 398.800 M310.000 399.773 C 311.674 400.450,312.316 400.547,311.780 400.042 C 311.571 399.845,310.770 399.577,310.000 399.446 L 308.600 399.207 310.000 399.773 M87.600 400.000 C 87.067 400.345,87.067 400.388,87.600 400.388 C 87.930 400.388,88.470 400.213,88.800 400.000 C 89.333 399.655,89.333 399.612,88.800 399.612 C 88.470 399.612,87.930 399.787,87.600 400.000 M236.708 401.700 C 236.387 402.195,235.551 403.680,234.851 405.000 C 233.305 407.914,234.481 406.392,236.296 403.130 C 237.584 400.815,237.825 399.978,236.708 401.700 M79.900 403.227 C 79.075 403.663,78.400 404.108,78.400 404.218 C 78.400 404.327,79.120 404.049,80.000 403.600 C 80.880 403.151,81.600 402.697,81.600 402.592 C 81.600 402.330,81.597 402.331,79.900 403.227 M72.967 407.829 L 71.400 409.258 73.100 407.962 C 74.653 406.778,75.032 406.400,74.667 406.400 C 74.593 406.400,73.828 407.043,72.967 407.829 M162.409 406.494 C 162.393 407.030,164.889 410.844,165.111 410.622 C 165.231 410.503,165.030 410.075,164.664 409.671 C 164.299 409.267,163.996 408.771,163.991 408.569 C 163.980 408.121,162.421 406.078,162.409 406.494 M328.679 409.800 C 330.799 411.763,330.807 412.060,328.800 414.047 C 327.920 414.918,327.200 415.833,327.200 416.081 C 327.200 416.328,328.100 415.607,329.200 414.477 C 331.698 411.913,331.597 411.511,327.775 408.788 C 327.322 408.464,327.728 408.920,328.679 409.800 M231.773 410.103 C 231.538 410.596,230.754 412.080,230.032 413.400 C 229.309 414.720,229.053 415.394,229.462 414.898 C 230.495 413.646,232.867 409.199,232.500 409.203 C 232.335 409.205,232.008 409.610,231.773 410.103 M69.024 411.175 L 67.897 412.351 74.194 418.575 C 77.658 421.999,80.694 424.800,80.941 424.800 C 81.189 424.800,80.944 424.358,80.396 423.819 C 79.848 423.279,79.198 422.604,78.951 422.319 C 78.704 422.033,76.311 419.650,73.634 417.021 L 68.766 412.242 69.595 411.121 C 70.665 409.673,70.442 409.695,69.024 411.175 M165.557 411.900 C 166.250 413.161,167.174 414.209,167.187 413.749 C 167.194 413.501,166.930 413.074,166.600 412.800 C 166.270 412.526,166.000 412.054,166.000 411.751 C 166.000 411.448,165.814 411.200,165.586 411.200 C 165.312 411.200,165.302 411.436,165.557 411.900 M167.557 415.100 C 168.250 416.361,169.174 417.409,169.187 416.949 C 169.194 416.701,168.930 416.274,168.600 416.000 C 168.270 415.726,168.000 415.254,168.000 414.951 C 168.000 414.648,167.814 414.400,167.586 414.400 C 167.312 414.400,167.302 414.636,167.557 415.100 M227.623 417.450 C 227.153 418.248,226.852 418.986,226.956 419.089 C 227.059 419.193,227.520 418.540,227.980 417.639 C 229.015 415.611,228.781 415.488,227.623 417.450 M169.549 418.200 C 169.765 418.640,170.234 419.360,170.593 419.800 L 171.244 420.600 170.851 419.800 C 170.635 419.360,170.166 418.640,169.807 418.200 L 169.156 417.400 169.549 418.200 M206.992 420.600 C 207.138 421.700,207.412 423.050,207.600 423.600 C 207.788 424.150,208.075 425.500,208.238 426.600 C 208.401 427.700,208.606 428.291,208.694 427.913 C 208.860 427.198,207.314 419.178,206.939 418.810 C 206.821 418.694,206.845 419.500,206.992 420.600 M225.587 421.021 C 225.104 421.803,224.797 422.530,224.905 422.638 C 225.013 422.746,225.481 422.107,225.944 421.217 C 226.985 419.220,226.772 419.103,225.587 421.021 M319.982 422.818 C 318.178 424.588,316.801 426.134,316.920 426.254 C 317.040 426.374,318.716 424.925,320.644 423.036 C 322.573 421.146,323.950 419.600,323.706 419.600 C 323.461 419.600,321.785 421.048,319.982 422.818 M171.697 421.700 C 172.021 422.195,172.867 423.545,173.577 424.700 C 174.287 425.855,174.954 426.800,175.058 426.800 C 175.275 426.800,175.204 426.674,173.093 423.300 C 172.232 421.925,171.434 420.800,171.318 420.800 C 171.203 420.800,171.373 421.205,171.697 421.700 M223.491 424.710 C 222.920 425.909,222.906 426.044,223.420 425.400 C 224.362 424.220,224.872 423.199,224.514 423.210 C 224.341 423.215,223.881 423.890,223.491 424.710 M82.400 425.840 C 82.400 426.299,85.228 428.905,85.467 428.667 C 85.599 428.535,85.071 427.791,84.293 427.013 C 82.937 425.657,82.400 425.324,82.400 425.840 M313.858 428.064 C 313.230 428.716,312.810 429.343,312.925 429.458 C 313.177 429.710,315.600 427.605,315.600 427.134 C 315.600 426.544,315.028 426.849,313.858 428.064 M175.891 428.490 C 176.281 429.310,176.741 429.985,176.914 429.990 C 177.272 430.001,176.762 428.980,175.820 427.800 C 175.306 427.156,175.320 427.291,175.891 428.490 M221.200 428.350 C 221.200 428.542,220.027 430.729,218.594 433.210 C 217.161 435.691,216.059 437.792,216.146 437.879 C 216.286 438.019,217.148 436.593,219.701 432.000 C 220.129 431.230,220.836 430.015,221.272 429.300 C 221.708 428.585,221.871 428.000,221.633 428.000 C 221.395 428.000,221.200 428.157,221.200 428.350 M209.036 430.400 C 209.270 432.449,209.904 435.631,210.430 437.400 C 210.912 439.023,210.571 435.838,209.958 433.000 C 209.191 429.443,208.800 428.341,209.036 430.400 M87.730 430.640 C 88.347 431.213,88.959 431.574,89.090 431.443 C 89.379 431.154,87.653 429.600,87.043 429.600 C 86.804 429.600,87.113 430.068,87.730 430.640 M178.224 432.300 C 179.289 434.229,180.000 435.183,180.000 434.686 C 180.000 434.319,177.580 430.400,177.353 430.400 C 177.255 430.400,177.647 431.255,178.224 432.300 M310.198 431.202 C 309.798 431.644,309.589 432.123,309.733 432.267 C 309.953 432.486,311.600 430.962,311.600 430.539 C 311.600 430.137,310.835 430.499,310.198 431.202 M188.640 432.853 C 188.530 433.374,188.161 434.982,187.820 436.426 C 187.154 439.247,186.995 441.423,187.589 439.600 C 188.268 437.515,189.291 432.358,189.070 432.137 C 188.943 432.010,188.749 432.332,188.640 432.853 M90.400 432.539 C 90.400 432.806,91.896 434.400,92.147 434.400 C 92.610 434.400,92.409 433.666,91.771 433.029 C 91.208 432.466,90.400 432.177,90.400 432.539 M306.890 433.748 C 306.390 434.242,306.094 434.760,306.232 434.899 C 306.474 435.141,308.400 433.470,308.400 433.018 C 308.400 432.572,307.773 432.875,306.890 433.748 M93.200 434.539 C 93.200 434.962,94.847 436.487,95.067 436.267 C 95.211 436.123,94.912 435.644,94.403 435.203 C 93.502 434.421,93.200 434.255,93.200 434.539 M304.125 435.724 C 303.644 436.206,302.834 436.897,302.325 437.259 C 301.816 437.622,301.520 438.042,301.667 438.193 C 301.813 438.343,302.291 438.137,302.729 437.733 C 303.166 437.330,303.991 436.677,304.562 436.281 C 305.133 435.886,305.600 435.391,305.600 435.181 C 305.600 434.581,305.074 434.774,304.125 435.724 M180.357 435.900 C 180.858 436.812,182.091 438.318,181.912 437.800 C 181.516 436.650,180.629 435.200,180.322 435.200 C 180.129 435.200,180.145 435.515,180.357 435.900 M95.600 436.757 C 95.600 437.201,96.831 437.703,97.146 437.388 C 97.273 437.261,97.112 436.989,96.788 436.784 C 96.040 436.311,95.600 436.301,95.600 436.757 M98.096 438.404 C 98.372 438.847,98.950 439.321,99.380 439.457 C 99.811 439.594,100.409 439.952,100.710 440.253 C 101.011 440.554,101.452 440.800,101.690 440.800 C 101.928 440.800,101.754 440.485,101.305 440.100 C 98.308 437.535,97.181 436.940,98.096 438.404 M182.247 438.800 C 183.399 441.064,186.117 444.839,186.388 444.550 C 186.570 444.358,186.837 443.390,186.982 442.400 C 187.174 441.096,187.132 440.765,186.830 441.200 C 186.600 441.530,186.409 442.295,186.406 442.900 C 186.397 444.474,185.860 444.260,184.840 442.278 C 184.353 441.331,183.502 440.026,182.948 439.378 C 182.395 438.730,182.079 438.470,182.247 438.800 M214.823 439.850 C 214.353 440.648,214.033 441.366,214.113 441.446 C 214.192 441.526,214.661 440.873,215.154 439.996 C 216.275 438.002,215.988 437.877,214.823 439.850 M211.038 441.000 C 211.488 444.324,211.923 445.182,212.659 444.200 C 213.720 442.784,214.060 442.000,213.614 442.000 C 213.386 442.000,213.200 442.248,213.200 442.551 C 213.200 442.854,212.952 443.308,212.649 443.559 C 212.042 444.063,211.622 443.118,211.599 441.200 C 211.593 440.650,211.403 439.930,211.177 439.600 C 210.886 439.174,210.846 439.581,211.038 441.000 M298.000 440.200 C 297.717 440.541,297.576 440.909,297.686 441.019 C 297.796 441.129,298.117 440.941,298.400 440.600 C 298.683 440.259,298.824 439.891,298.714 439.781 C 298.604 439.671,298.283 439.859,298.000 440.200 M102.400 441.029 C 102.400 441.407,103.514 442.400,103.938 442.400 C 104.155 442.400,104.414 442.625,104.512 442.900 C 104.610 443.175,104.827 443.274,104.993 443.119 C 105.341 442.795,104.268 441.600,103.629 441.600 C 103.393 441.600,103.200 441.420,103.200 441.200 C 103.200 440.980,103.020 440.800,102.800 440.800 C 102.580 440.800,102.400 440.903,102.400 441.029 M296.073 441.287 C 295.513 441.847,295.455 442.400,295.957 442.400 C 296.324 442.400,296.927 441.194,296.683 440.949 C 296.608 440.875,296.334 441.026,296.073 441.287 M293.562 443.046 C 293.098 443.605,293.127 443.673,293.780 443.546 C 294.194 443.466,294.609 443.175,294.700 442.900 C 294.938 442.186,294.196 442.282,293.562 443.046 M105.867 443.067 C 105.741 443.192,105.908 443.565,106.238 443.895 C 106.568 444.225,106.941 444.392,107.067 444.267 C 107.192 444.141,107.025 443.768,106.695 443.438 C 106.365 443.108,105.992 442.941,105.867 443.067 M290.400 445.000 C 289.859 445.651,289.989 445.733,290.967 445.357 C 291.315 445.224,291.600 444.954,291.600 444.757 C 291.600 444.204,290.952 444.335,290.400 445.000 M109.705 445.876 C 110.077 446.248,110.515 446.418,110.679 446.254 C 110.843 446.091,110.712 445.789,110.388 445.584 C 109.415 444.969,108.982 445.153,109.705 445.876 M286.500 447.098 C 285.438 447.627,284.748 448.400,285.339 448.400 C 285.715 448.400,288.014 447.102,288.216 446.775 C 288.542 446.247,288.008 446.348,286.500 447.098 M114.211 448.358 C 115.294 449.399,117.235 450.006,116.448 449.058 C 116.148 448.696,115.564 448.400,115.151 448.400 C 114.738 448.400,114.400 448.220,114.400 448.000 C 114.400 447.780,114.180 447.600,113.911 447.600 C 113.631 447.600,113.760 447.924,114.211 448.358 M281.200 450.000 C 281.200 450.220,281.470 450.400,281.800 450.400 C 282.130 450.400,282.400 450.220,282.400 450.000 C 282.400 449.780,282.130 449.600,281.800 449.600 C 281.470 449.600,281.200 449.780,281.200 450.000 M118.400 450.800 C 118.400 451.020,118.670 451.200,119.000 451.200 C 119.330 451.200,119.600 451.020,119.600 450.800 C 119.600 450.580,119.330 450.400,119.000 450.400 C 118.670 450.400,118.400 450.580,118.400 450.800 M122.400 452.800 C 122.400 453.020,122.670 453.200,123.000 453.200 C 123.330 453.200,123.600 453.020,123.600 452.800 C 123.600 452.580,123.330 452.400,123.000 452.400 C 122.670 452.400,122.400 452.580,122.400 452.800 M124.177 453.238 C 124.054 453.437,124.233 453.600,124.576 453.600 C 124.919 453.600,125.200 453.780,125.200 454.000 C 125.200 454.220,125.470 454.400,125.800 454.400 C 126.717 454.400,126.510 453.854,125.397 453.338 C 124.824 453.072,124.305 453.029,124.177 453.238 M271.600 454.800 C 271.600 455.020,271.870 455.200,272.200 455.200 C 272.530 455.200,272.800 455.020,272.800 454.800 C 272.800 454.580,272.530 454.400,272.200 454.400 C 271.870 454.400,271.600 454.580,271.600 454.800 M130.000 456.000 C 130.000 456.220,130.270 456.400,130.600 456.400 C 130.930 456.400,131.200 456.220,131.200 456.000 C 131.200 455.780,130.930 455.600,130.600 455.600 C 130.270 455.600,130.000 455.780,130.000 456.000 M268.400 456.000 C 268.400 456.220,268.670 456.400,269.000 456.400 C 269.330 456.400,269.600 456.220,269.600 456.000 C 269.600 455.780,269.330 455.600,269.000 455.600 C 268.670 455.600,268.400 455.780,268.400 456.000 M266.800 456.800 C 266.800 457.020,267.070 457.200,267.400 457.200 C 267.730 457.200,268.000 457.020,268.000 456.800 C 268.000 456.580,267.730 456.400,267.400 456.400 C 267.070 456.400,266.800 456.580,266.800 456.800 M263.200 458.000 C 263.200 458.220,263.560 458.400,264.000 458.400 C 264.440 458.400,264.800 458.220,264.800 458.000 C 264.800 457.780,264.440 457.600,264.000 457.600 C 263.560 457.600,263.200 457.780,263.200 458.000 M136.600 458.800 C 136.736 459.020,137.107 459.200,137.424 459.200 C 137.741 459.200,138.000 459.020,138.000 458.800 C 138.000 458.580,137.629 458.400,137.176 458.400 C 136.723 458.400,136.464 458.580,136.600 458.800 M261.600 458.800 C 261.600 459.020,261.870 459.200,262.200 459.200 C 262.530 459.200,262.800 459.020,262.800 458.800 C 262.800 458.580,262.530 458.400,262.200 458.400 C 261.870 458.400,261.600 458.580,261.600 458.800 M138.800 459.600 C 138.800 459.820,139.070 460.000,139.400 460.000 C 139.730 460.000,140.000 459.820,140.000 459.600 C 140.000 459.380,139.730 459.200,139.400 459.200 C 139.070 459.200,138.800 459.380,138.800 459.600 M257.800 460.000 C 257.664 460.220,257.923 460.400,258.376 460.400 C 258.829 460.400,259.200 460.220,259.200 460.000 C 259.200 459.780,258.941 459.600,258.624 459.600 C 258.307 459.600,257.936 459.780,257.800 460.000 M255.600 460.800 C 255.600 461.020,255.960 461.200,256.400 461.200 C 256.840 461.200,257.200 461.020,257.200 460.800 C 257.200 460.580,256.840 460.400,256.400 460.400 C 255.960 460.400,255.600 460.580,255.600 460.800 M253.920 461.680 C 254.293 462.053,254.507 462.053,254.880 461.680 C 255.253 461.307,255.147 461.200,254.400 461.200 C 253.653 461.200,253.547 461.307,253.920 461.680 M146.800 462.000 C 146.800 462.220,147.070 462.400,147.400 462.400 C 147.730 462.400,148.000 462.220,148.000 462.000 C 148.000 461.780,147.730 461.600,147.400 461.600 C 147.070 461.600,146.800 461.780,146.800 462.000 M251.600 462.000 C 251.600 462.220,251.960 462.400,252.400 462.400 C 252.840 462.400,253.200 462.220,253.200 462.000 C 253.200 461.780,252.840 461.600,252.400 461.600 C 251.960 461.600,251.600 461.780,251.600 462.000 M148.800 462.800 C 148.800 463.020,149.160 463.200,149.600 463.200 C 150.040 463.200,150.400 463.020,150.400 462.800 C 150.400 462.580,150.040 462.400,149.600 462.400 C 149.160 462.400,148.800 462.580,148.800 462.800 M249.600 462.800 C 249.600 463.020,249.870 463.200,250.200 463.200 C 250.530 463.200,250.800 463.020,250.800 462.800 C 250.800 462.580,250.530 462.400,250.200 462.400 C 249.870 462.400,249.600 462.580,249.600 462.800 M151.520 463.680 C 151.893 464.053,152.107 464.053,152.480 463.680 C 152.853 463.307,152.747 463.200,152.000 463.200 C 151.253 463.200,151.147 463.307,151.520 463.680 M246.800 463.600 C 246.800 463.820,247.149 464.000,247.576 464.000 C 248.003 464.000,248.464 463.820,248.600 463.600 C 248.740 463.373,248.404 463.200,247.824 463.200 C 247.261 463.200,246.800 463.380,246.800 463.600 M153.400 464.000 C 153.259 464.228,153.604 464.400,154.200 464.400 C 154.796 464.400,155.141 464.228,155.000 464.000 C 154.864 463.780,154.504 463.600,154.200 463.600 C 153.896 463.600,153.536 463.780,153.400 464.000 M244.600 464.000 C 244.464 464.220,244.734 464.400,245.200 464.400 C 245.666 464.400,245.936 464.220,245.800 464.000 C 245.664 463.780,245.394 463.600,245.200 463.600 C 245.006 463.600,244.736 463.780,244.600 464.000 M156.000 464.800 C 156.000 465.020,156.349 465.200,156.776 465.200 C 157.203 465.200,157.664 465.020,157.800 464.800 C 157.940 464.573,157.604 464.400,157.024 464.400 C 156.461 464.400,156.000 464.580,156.000 464.800 M241.600 464.800 C 241.600 465.020,241.960 465.200,242.400 465.200 C 242.840 465.200,243.200 465.020,243.200 464.800 C 243.200 464.580,242.840 464.400,242.400 464.400 C 241.960 464.400,241.600 464.580,241.600 464.800 M158.800 465.600 C 158.800 465.820,159.250 466.000,159.800 466.000 C 160.350 466.000,160.800 465.820,160.800 465.600 C 160.800 465.380,160.350 465.200,159.800 465.200 C 159.250 465.200,158.800 465.380,158.800 465.600 M238.800 465.600 C 238.800 465.820,239.149 466.000,239.576 466.000 C 240.003 466.000,240.464 465.820,240.600 465.600 C 240.740 465.373,240.404 465.200,239.824 465.200 C 239.261 465.200,238.800 465.380,238.800 465.600 M162.200 466.000 C 162.064 466.220,162.323 466.400,162.776 466.400 C 163.229 466.400,163.600 466.220,163.600 466.000 C 163.600 465.780,163.341 465.600,163.024 465.600 C 162.707 465.600,162.336 465.780,162.200 466.000 M236.000 466.000 C 236.000 466.220,236.461 466.400,237.024 466.400 C 237.604 466.400,237.940 466.227,237.800 466.000 C 237.664 465.780,237.203 465.600,236.776 465.600 C 236.349 465.600,236.000 465.780,236.000 466.000 M165.600 466.800 C 165.600 467.020,165.960 467.200,166.400 467.200 C 166.840 467.200,167.200 467.020,167.200 466.800 C 167.200 466.580,166.840 466.400,166.400 466.400 C 165.960 466.400,165.600 466.580,165.600 466.800 M232.400 466.800 C 232.400 467.020,232.850 467.200,233.400 467.200 C 233.950 467.200,234.400 467.020,234.400 466.800 C 234.400 466.580,233.950 466.400,233.400 466.400 C 232.850 466.400,232.400 466.580,232.400 466.800 M168.800 467.600 C 168.800 467.820,169.250 468.000,169.800 468.000 C 170.350 468.000,170.800 467.820,170.800 467.600 C 170.800 467.380,170.350 467.200,169.800 467.200 C 169.250 467.200,168.800 467.380,168.800 467.600 M228.400 467.600 C 228.400 467.820,228.850 468.000,229.400 468.000 C 229.950 468.000,230.400 467.820,230.400 467.600 C 230.400 467.380,229.950 467.200,229.400 467.200 C 228.850 467.200,228.400 467.380,228.400 467.600 M173.000 468.000 C 172.853 468.239,173.337 468.400,174.200 468.400 C 175.063 468.400,175.547 468.239,175.400 468.000 C 175.264 467.780,174.724 467.600,174.200 467.600 C 173.676 467.600,173.136 467.780,173.000 468.000 M224.000 468.000 C 223.554 468.288,223.784 468.389,224.900 468.394 C 225.725 468.397,226.400 468.220,226.400 468.000 C 226.400 467.491,224.788 467.491,224.000 468.000 M178.200 468.800 C 178.336 469.020,178.707 469.200,179.024 469.200 C 179.341 469.200,179.600 469.020,179.600 468.800 C 179.600 468.580,179.229 468.400,178.776 468.400 C 178.323 468.400,178.064 468.580,178.200 468.800 M219.600 468.800 C 219.600 469.020,219.960 469.200,220.400 469.200 C 220.840 469.200,221.200 469.020,221.200 468.800 C 221.200 468.580,220.840 468.400,220.400 468.400 C 219.960 468.400,219.600 468.580,219.600 468.800 " stroke="none" fill="#eabba3" fill-rule="evenodd"></path><path id="path4" d="M199.400 163.978 C 198.740 164.134,200.810 164.264,204.000 164.267 C 207.879 164.271,209.270 164.169,208.200 163.959 C 206.253 163.578,201.046 163.589,199.400 163.978 M194.800 164.800 C 193.996 165.057,193.957 165.123,194.600 165.132 C 195.040 165.138,195.760 164.989,196.200 164.800 C 197.219 164.362,196.168 164.362,194.800 164.800 M211.800 164.781 C 212.568 165.129,214.710 165.356,214.367 165.053 C 214.275 164.972,213.480 164.796,212.600 164.662 C 211.485 164.493,211.242 164.529,211.800 164.781 M189.800 166.000 C 188.781 166.438,189.832 166.438,191.200 166.000 C 192.004 165.743,192.043 165.677,191.400 165.668 C 190.960 165.662,190.240 165.811,189.800 166.000 M216.033 165.744 C 216.125 165.823,216.740 166.008,217.400 166.156 C 218.276 166.352,218.438 166.315,218.000 166.018 C 217.460 165.653,215.632 165.398,216.033 165.744 M186.400 166.800 C 185.596 167.057,185.557 167.123,186.200 167.132 C 186.640 167.138,187.360 166.989,187.800 166.800 C 188.819 166.362,187.768 166.362,186.400 166.800 M181.800 168.000 C 180.781 168.438,181.832 168.438,183.200 168.000 C 184.004 167.743,184.043 167.677,183.400 167.668 C 182.960 167.662,182.240 167.811,181.800 168.000 M178.400 168.800 C 177.596 169.057,177.557 169.123,178.200 169.132 C 178.640 169.138,179.360 168.989,179.800 168.800 C 180.819 168.362,179.768 168.362,178.400 168.800 M173.600 170.018 C 173.162 170.315,173.324 170.352,174.200 170.156 C 175.671 169.827,175.990 169.598,174.967 169.606 C 174.545 169.609,173.930 169.795,173.600 170.018 M170.200 170.800 L 169.400 171.144 170.200 171.166 C 170.640 171.178,171.270 171.013,171.600 170.800 C 172.395 170.286,171.396 170.286,170.200 170.800 M227.600 170.579 C 227.600 170.689,228.140 171.059,228.800 171.400 C 229.460 171.741,230.000 171.931,230.000 171.821 C 230.000 171.711,229.460 171.341,228.800 171.000 C 228.140 170.659,227.600 170.469,227.600 170.579 M166.600 171.815 C 165.016 172.363,165.014 172.366,166.400 172.138 C 167.170 172.012,168.070 171.754,168.400 171.566 C 169.281 171.064,168.430 171.182,166.600 171.815 M230.600 172.296 C 230.820 172.525,232.080 173.301,233.400 174.021 C 234.720 174.741,235.620 175.148,235.400 174.925 C 235.180 174.702,233.920 173.926,232.600 173.200 C 231.280 172.474,230.380 172.067,230.600 172.296 M161.100 174.027 C 160.275 174.463,159.600 174.908,159.600 175.018 C 159.600 175.127,160.320 174.849,161.200 174.400 C 162.080 173.951,162.800 173.497,162.800 173.392 C 162.800 173.130,162.797 173.131,161.100 174.027 M156.800 176.400 C 156.030 176.822,155.544 177.174,155.720 177.183 C 156.144 177.205,158.400 176.032,158.400 175.790 C 158.400 175.528,158.377 175.537,156.800 176.400 M242.000 178.584 C 242.000 178.694,242.720 179.151,243.600 179.600 C 244.480 180.049,245.200 180.326,245.200 180.216 C 245.200 180.106,244.480 179.649,243.600 179.200 C 242.720 178.751,242.000 178.474,242.000 178.584 M150.522 180.229 L 149.400 181.258 150.700 180.354 C 151.415 179.857,152.000 179.393,152.000 179.325 C 152.000 179.009,151.558 179.280,150.522 180.229 M247.403 181.605 C 247.537 181.822,247.924 182.000,248.263 182.000 C 248.602 182.000,250.435 183.575,252.337 185.500 C 254.619 187.811,255.194 188.274,254.029 186.863 C 251.567 183.883,246.158 179.591,247.403 181.605 M146.298 184.300 C 144.807 186.366,144.026 187.664,144.672 187.000 C 145.383 186.269,148.072 182.400,147.868 182.400 C 147.758 182.400,147.051 183.255,146.298 184.300 M142.780 190.040 C 142.102 191.383,141.614 192.547,141.694 192.628 C 141.775 192.708,142.415 191.610,143.117 190.187 C 143.818 188.764,144.307 187.600,144.202 187.600 C 144.097 187.600,143.457 188.698,142.780 190.040 M257.823 192.731 C 258.632 194.089,259.374 195.200,259.472 195.200 C 259.779 195.200,257.494 191.210,256.909 190.724 C 256.603 190.470,257.014 191.373,257.823 192.731 M259.634 195.800 C 259.634 196.020,259.978 196.830,260.400 197.600 C 260.822 198.370,261.166 198.820,261.166 198.600 C 261.166 198.380,260.822 197.570,260.400 196.800 C 259.978 196.030,259.634 195.580,259.634 195.800 M139.049 199.815 C 138.912 200.173,138.815 200.766,138.834 201.133 C 138.853 201.500,139.027 201.269,139.221 200.620 C 139.598 199.358,139.465 198.733,139.049 199.815 M261.432 200.000 C 261.816 201.452,262.376 202.403,262.374 201.600 C 262.373 201.270,262.101 200.550,261.769 200.000 L 261.167 199.000 261.432 200.000 M170.505 202.687 C 171.114 202.779,172.014 202.777,172.505 202.682 C 172.997 202.587,172.500 202.511,171.400 202.514 C 170.300 202.517,169.897 202.595,170.505 202.687 M176.700 202.682 C 177.195 202.778,178.005 202.778,178.500 202.682 C 178.995 202.587,178.590 202.509,177.600 202.509 C 176.610 202.509,176.205 202.587,176.700 202.682 M223.700 203.076 C 224.085 203.176,224.715 203.176,225.100 203.076 C 225.485 202.975,225.170 202.893,224.400 202.893 C 223.630 202.893,223.315 202.975,223.700 203.076 M137.829 204.229 C 137.681 204.815,137.651 205.384,137.761 205.494 C 137.871 205.604,138.081 205.215,138.229 204.629 C 138.376 204.042,138.406 203.473,138.296 203.363 C 138.186 203.253,137.976 203.642,137.829 204.229 M183.200 203.587 C 184.191 203.917,187.087 204.135,186.767 203.854 C 186.675 203.774,185.610 203.606,184.400 203.481 C 182.980 203.334,182.554 203.371,183.200 203.587 M218.800 203.600 C 217.433 203.888,217.428 203.895,218.600 203.919 C 219.260 203.933,220.160 203.789,220.600 203.600 C 221.562 203.187,220.764 203.187,218.800 203.600 M228.600 203.600 C 229.040 203.789,229.760 203.938,230.200 203.932 C 230.843 203.923,230.804 203.857,230.000 203.600 C 228.632 203.162,227.581 203.162,228.600 203.600 M189.705 204.287 C 190.314 204.379,191.214 204.377,191.705 204.282 C 192.197 204.187,191.700 204.111,190.600 204.114 C 189.500 204.117,189.097 204.195,189.705 204.287 M214.100 204.276 C 214.485 204.376,215.115 204.376,215.500 204.276 C 215.885 204.175,215.570 204.093,214.800 204.093 C 214.030 204.093,213.715 204.175,214.100 204.276 M231.200 204.134 C 231.200 204.237,231.781 204.524,232.491 204.772 C 233.201 205.019,233.606 205.057,233.391 204.856 C 232.935 204.429,231.200 203.858,231.200 204.134 M197.700 204.699 C 200.505 204.768,205.095 204.768,207.900 204.699 C 210.705 204.630,208.410 204.574,202.800 204.574 C 197.190 204.574,194.895 204.630,197.700 204.699 M263.462 206.000 C 263.598 206.770,263.862 207.670,264.048 208.000 C 264.252 208.361,264.288 208.043,264.138 207.200 C 264.002 206.430,263.738 205.530,263.552 205.200 C 263.348 204.839,263.312 205.157,263.462 206.000 M137.049 207.415 C 136.912 207.773,136.821 208.726,136.847 209.533 C 136.890 210.883,136.920 210.842,137.226 209.013 C 137.568 206.970,137.490 206.267,137.049 207.415 M238.200 207.665 C 238.860 208.165,240.494 209.570,241.832 210.787 C 244.188 212.932,244.180 212.918,241.571 210.335 C 240.090 208.869,238.456 207.465,237.939 207.213 C 237.272 206.888,237.347 207.019,238.200 207.665 M156.189 210.100 L 153.400 213.000 156.300 210.211 C 158.994 207.620,159.383 207.200,159.089 207.200 C 159.028 207.200,157.723 208.505,156.189 210.100 M264.446 210.000 C 264.465 210.330,264.624 211.050,264.800 211.600 L 265.120 212.600 265.154 211.600 C 265.173 211.050,265.013 210.330,264.800 210.000 C 264.455 209.467,264.416 209.467,264.446 210.000 M265.488 215.400 C 265.611 216.720,265.776 217.875,265.856 217.967 C 266.135 218.289,265.916 214.988,265.593 214.000 C 265.389 213.379,265.349 213.909,265.488 215.400 M135.822 217.622 C 135.666 219.410,135.623 220.956,135.726 221.059 C 135.829 221.162,136.042 219.785,136.200 218.000 C 136.358 216.215,136.401 214.668,136.297 214.563 C 136.192 214.458,135.978 215.835,135.822 217.622 M148.380 221.239 C 147.920 222.140,147.613 222.946,147.697 223.030 C 147.781 223.114,148.241 222.376,148.719 221.391 C 149.809 219.147,149.515 219.015,148.380 221.239 M266.600 233.800 C 266.600 239.740,266.719 243.700,266.865 242.600 C 267.213 239.976,267.217 227.105,266.870 224.800 C 266.722 223.810,266.600 227.860,266.600 233.800 M135.094 226.560 C 134.932 228.299,134.826 230.819,134.857 232.160 C 134.898 233.904,135.013 233.287,135.259 230.000 C 135.660 224.652,135.528 221.894,135.094 226.560 M146.844 224.844 C 146.598 225.551,146.466 226.200,146.552 226.285 C 146.638 226.371,146.909 225.862,147.156 225.156 C 147.402 224.449,147.534 223.800,147.448 223.715 C 147.362 223.629,147.091 224.138,146.844 224.844 M145.049 230.215 C 144.912 230.573,144.815 231.166,144.834 231.533 C 144.853 231.900,145.027 231.669,145.221 231.020 C 145.598 229.758,145.465 229.133,145.049 230.215 M253.656 233.200 C 253.656 233.530,253.811 234.160,254.000 234.600 C 254.217 235.104,254.344 235.178,254.344 234.800 C 254.344 234.470,254.189 233.840,254.000 233.400 C 253.783 232.896,253.656 232.822,253.656 233.200 M143.800 235.200 C 143.648 235.891,143.614 236.547,143.724 236.657 C 143.834 236.767,144.048 236.291,144.200 235.600 C 144.352 234.909,144.386 234.253,144.276 234.143 C 144.166 234.033,143.952 234.509,143.800 235.200 M143.000 239.600 C 142.846 240.510,142.804 241.338,142.907 241.440 C 143.010 241.543,143.213 240.877,143.360 239.960 C 143.507 239.043,143.548 238.215,143.453 238.120 C 143.358 238.024,143.154 238.690,143.000 239.600 M134.570 247.200 C 134.570 251.930,134.628 253.865,134.698 251.500 C 134.769 249.135,134.769 245.265,134.698 242.900 C 134.628 240.535,134.570 242.470,134.570 247.200 M255.687 243.200 C 255.683 243.750,255.824 244.650,256.000 245.200 C 256.431 246.544,256.431 245.092,256.000 243.400 C 255.726 242.322,255.694 242.302,255.687 243.200 M142.109 246.800 C 142.109 247.790,142.187 248.195,142.282 247.700 C 142.378 247.205,142.378 246.395,142.282 245.900 C 142.187 245.405,142.109 245.810,142.109 246.800 M265.792 250.538 C 265.639 251.969,265.593 253.378,265.690 253.670 C 265.787 253.961,265.990 252.868,266.142 251.241 C 266.293 249.614,266.339 248.205,266.243 248.110 C 266.148 248.015,265.945 249.108,265.792 250.538 M256.476 249.200 C 256.467 249.750,256.603 251.010,256.780 252.000 C 257.020 253.350,257.107 253.500,257.127 252.600 C 257.142 251.940,257.005 250.680,256.823 249.800 C 256.616 248.798,256.486 248.574,256.476 249.200 M141.693 250.400 C 141.693 251.170,141.775 251.485,141.876 251.100 C 141.976 250.715,141.976 250.085,141.876 249.700 C 141.775 249.315,141.693 249.630,141.693 250.400 M264.654 258.754 C 264.500 259.718,264.458 260.591,264.561 260.694 C 264.830 260.963,265.315 258.145,265.107 257.522 C 265.012 257.236,264.808 257.790,264.654 258.754 M141.361 264.400 C 141.361 267.810,141.422 269.205,141.497 267.500 C 141.572 265.795,141.572 263.005,141.497 261.300 C 141.422 259.595,141.361 260.990,141.361 264.400 M257.353 263.400 C 257.353 266.040,257.418 267.068,257.497 265.684 C 257.575 264.301,257.574 262.141,257.495 260.884 C 257.416 259.628,257.352 260.760,257.353 263.400 M134.840 262.433 C 134.861 264.065,135.023 266.390,135.198 267.600 C 135.405 269.024,135.443 268.036,135.306 264.800 C 135.072 259.276,134.778 257.780,134.840 262.433 M263.856 263.284 C 263.721 263.788,263.639 265.730,263.673 267.600 L 263.734 271.000 263.991 266.800 C 264.264 262.328,264.245 261.834,263.856 263.284 M135.680 273.000 C 135.668 273.660,135.803 275.010,135.980 276.000 C 136.216 277.328,136.305 277.485,136.320 276.600 C 136.332 275.940,136.197 274.590,136.020 273.600 C 135.784 272.272,135.695 272.115,135.680 273.000 M256.668 273.759 C 256.520 274.833,256.423 276.362,256.452 277.156 C 256.480 277.950,256.660 277.250,256.851 275.600 C 257.240 272.248,257.086 270.707,256.668 273.759 M262.849 275.400 C 262.816 275.840,262.696 276.650,262.583 277.200 L 262.377 278.200 262.806 277.219 C 263.042 276.679,263.161 275.869,263.072 275.419 C 262.913 274.621,262.907 274.621,262.849 275.400 M141.701 277.800 C 141.705 278.680,141.787 278.993,141.883 278.495 C 141.979 277.998,141.975 277.278,141.875 276.895 C 141.775 276.513,141.696 276.920,141.701 277.800 M261.822 281.022 C 261.672 281.825,261.628 282.562,261.726 282.660 C 261.824 282.757,262.027 282.181,262.178 281.378 C 262.328 280.575,262.372 279.838,262.274 279.740 C 262.176 279.643,261.973 280.219,261.822 281.022 M142.120 282.400 C 142.120 283.610,142.195 284.105,142.287 283.500 C 142.378 282.895,142.378 281.905,142.287 281.300 C 142.195 280.695,142.120 281.190,142.120 282.400 M255.794 284.938 C 255.638 287.024,255.591 288.971,255.690 289.265 C 255.789 289.559,255.998 287.935,256.156 285.655 C 256.314 283.375,256.361 281.428,256.261 281.327 C 256.161 281.227,255.951 282.852,255.794 284.938 M136.828 282.633 C 136.844 283.275,137.016 284.160,137.210 284.600 C 137.447 285.134,137.486 284.802,137.327 283.600 C 137.046 281.480,136.788 280.980,136.828 282.633 M137.668 287.400 C 137.662 287.840,137.811 288.560,138.000 289.000 C 138.438 290.019,138.438 288.968,138.000 287.600 C 137.743 286.796,137.677 286.757,137.668 287.400 M259.822 291.022 C 259.672 291.825,259.628 292.562,259.726 292.660 C 259.824 292.757,260.027 292.181,260.178 291.378 C 260.328 290.575,260.372 289.838,260.274 289.740 C 260.176 289.643,259.973 290.219,259.822 291.022 M142.830 292.033 C 142.846 293.005,143.012 294.610,143.198 295.600 C 143.443 296.908,143.476 296.470,143.317 294.000 C 143.081 290.348,142.781 289.136,142.830 292.033 M255.301 293.000 C 255.305 293.880,255.387 294.193,255.483 293.695 C 255.579 293.198,255.575 292.478,255.475 292.095 C 255.375 291.713,255.296 292.120,255.301 293.000 M258.629 296.229 C 258.481 296.815,258.438 297.372,258.532 297.466 C 258.627 297.560,258.824 297.158,258.971 296.571 C 259.119 295.985,259.162 295.428,259.068 295.334 C 258.973 295.240,258.776 295.642,258.629 296.229 M139.656 296.800 C 139.656 297.130,139.811 297.760,140.000 298.200 C 140.217 298.704,140.344 298.778,140.344 298.400 C 140.344 298.070,140.189 297.440,140.000 297.000 C 139.783 296.496,139.656 296.422,139.656 296.800 M254.673 299.760 C 254.515 301.718,254.463 303.396,254.556 303.489 C 254.803 303.736,255.312 297.863,255.122 296.962 C 255.033 296.543,254.831 297.802,254.673 299.760 M143.646 300.800 C 143.665 301.130,143.824 301.850,144.000 302.400 L 144.320 303.400 144.354 302.400 C 144.373 301.850,144.213 301.130,144.000 300.800 C 143.655 300.267,143.616 300.267,143.646 300.800 M140.806 301.633 C 140.809 302.165,140.989 302.870,141.206 303.200 C 141.482 303.622,141.523 303.385,141.342 302.400 C 141.025 300.675,140.798 300.349,140.806 301.633 M256.849 303.600 C 256.816 303.930,256.689 304.650,256.567 305.200 C 256.375 306.064,256.407 306.103,256.799 305.488 C 257.048 305.097,257.175 304.377,257.081 303.888 C 256.986 303.400,256.882 303.270,256.849 303.600 M144.648 305.400 C 144.791 306.060,145.066 306.870,145.259 307.200 C 145.484 307.584,145.518 307.368,145.352 306.600 C 145.209 305.940,144.934 305.130,144.741 304.800 C 144.516 304.416,144.482 304.632,144.648 305.400 M141.656 305.200 C 141.656 305.530,141.811 306.160,142.000 306.600 C 142.217 307.104,142.344 307.178,142.344 306.800 C 142.344 306.470,142.189 305.840,142.000 305.400 C 141.783 304.896,141.656 304.822,141.656 305.200 M255.800 308.000 C 255.648 308.691,255.607 309.341,255.709 309.442 C 255.811 309.544,256.009 309.053,256.150 308.350 C 256.291 307.647,256.331 306.998,256.241 306.908 C 256.150 306.817,255.952 307.309,255.800 308.000 M251.753 308.900 C 250.376 311.236,250.286 311.435,250.987 310.600 C 251.800 309.632,252.500 308.400,252.238 308.400 C 252.133 308.400,251.915 308.625,251.753 308.900 M143.668 313.200 C 143.662 313.750,143.811 314.560,144.000 315.000 L 144.344 315.800 144.332 315.000 C 144.326 314.560,144.176 313.750,144.000 313.200 L 143.680 312.200 143.668 313.200 M148.065 314.000 C 148.402 314.550,148.929 315.405,149.235 315.900 C 149.542 316.395,149.938 316.800,150.117 316.800 C 150.295 316.800,149.946 316.125,149.342 315.300 C 147.941 313.386,147.273 312.706,148.065 314.000 M254.854 314.400 C 254.819 314.950,254.696 315.850,254.583 316.400 L 254.377 317.400 254.807 316.415 C 255.043 315.874,255.165 314.974,255.078 314.415 L 254.920 313.400 254.854 314.400 M245.955 316.700 C 244.681 318.108,243.856 319.200,244.066 319.200 C 244.157 319.200,244.908 318.390,245.735 317.400 C 247.387 315.424,247.535 314.953,245.955 316.700 M144.468 317.600 C 144.488 318.639,145.118 320.346,145.132 319.400 C 145.138 318.960,144.989 318.240,144.800 317.800 C 144.589 317.310,144.461 317.232,144.468 317.600 M253.800 319.200 C 253.648 319.891,253.614 320.547,253.724 320.657 C 253.834 320.767,254.048 320.291,254.200 319.600 C 254.352 318.909,254.386 318.253,254.276 318.143 C 254.166 318.033,253.952 318.509,253.800 319.200 M151.200 318.525 C 151.200 318.594,151.785 319.179,152.500 319.825 L 153.800 321.000 152.625 319.700 C 151.530 318.488,151.200 318.216,151.200 318.525 M241.381 321.300 L 239.800 323.000 241.594 321.400 C 242.580 320.520,243.465 319.755,243.561 319.700 C 243.656 319.645,243.560 319.600,243.348 319.600 C 243.136 319.600,242.251 320.365,241.381 321.300 M253.200 321.303 C 253.200 321.359,253.023 322.022,252.807 322.776 C 252.591 323.529,252.568 323.978,252.755 323.773 C 253.164 323.326,253.703 321.200,253.408 321.200 C 253.293 321.200,253.200 321.246,253.200 321.303 M146.629 324.800 C 146.776 325.350,147.064 326.070,147.267 326.400 C 147.525 326.817,147.557 326.695,147.371 326.000 C 147.224 325.450,146.936 324.730,146.733 324.400 C 146.475 323.983,146.443 324.105,146.629 324.800 M188.076 324.340 C 187.568 324.483,188.974 324.600,191.200 324.600 C 193.426 324.600,194.832 324.483,194.324 324.340 C 193.816 324.197,192.410 324.080,191.200 324.080 C 189.990 324.080,188.584 324.197,188.076 324.340 M206.100 324.694 C 207.145 324.776,208.855 324.776,209.900 324.694 C 210.945 324.612,210.090 324.544,208.000 324.544 C 205.910 324.544,205.055 324.612,206.100 324.694 M157.744 325.109 C 158.060 325.621,160.400 327.353,160.400 327.075 C 160.400 326.976,159.739 326.391,158.932 325.775 C 158.124 325.159,157.589 324.859,157.744 325.109 M183.656 325.259 C 182.917 325.472,182.390 325.723,182.485 325.818 C 182.580 325.913,183.454 325.740,184.429 325.435 C 186.418 324.811,185.745 324.658,183.656 325.259 M197.160 325.430 C 198.190 325.900,198.869 325.959,199.960 325.673 L 201.400 325.295 199.600 325.346 C 198.610 325.374,197.350 325.264,196.800 325.102 C 196.250 324.941,196.412 325.088,197.160 325.430 M251.611 325.745 C 251.385 326.325,251.024 327.250,250.810 327.800 C 250.130 329.542,250.728 328.879,251.586 326.938 C 252.039 325.914,252.323 324.989,252.216 324.883 C 252.110 324.776,251.837 325.164,251.611 325.745 M233.500 326.827 C 232.675 327.263,232.000 327.708,232.000 327.818 C 232.000 327.927,232.720 327.649,233.600 327.200 C 234.480 326.751,235.200 326.297,235.200 326.192 C 235.200 325.930,235.197 325.931,233.500 326.827 M220.000 326.984 C 220.000 327.094,220.720 327.551,221.600 328.000 C 222.480 328.449,223.200 328.726,223.200 328.616 C 223.200 328.506,222.480 328.049,221.600 327.600 C 220.720 327.151,220.000 326.874,220.000 326.984 M224.349 329.700 C 224.651 330.085,225.281 330.379,225.749 330.354 C 226.557 330.310,226.560 330.297,225.800 330.111 C 225.360 330.002,224.730 329.708,224.400 329.457 C 223.878 329.060,223.872 329.091,224.349 329.700 M168.002 330.443 C 169.296 330.803,171.614 330.818,172.483 330.472 C 172.859 330.322,171.780 330.192,170.086 330.183 C 168.276 330.172,167.416 330.280,168.002 330.443 M193.300 330.691 C 194.125 330.778,195.475 330.778,196.300 330.691 C 197.125 330.605,196.450 330.534,194.800 330.534 C 193.150 330.534,192.475 330.605,193.300 330.691 M203.300 330.691 C 204.125 330.778,205.475 330.778,206.300 330.691 C 207.125 330.605,206.450 330.534,204.800 330.534 C 203.150 330.534,202.475 330.605,203.300 330.691 M214.363 332.838 C 216.041 333.583,216.089 333.650,215.363 334.232 C 214.640 334.812,214.647 334.821,215.511 334.402 C 216.623 333.863,216.333 333.298,214.564 332.559 C 212.527 331.708,212.354 331.947,214.363 332.838 M247.114 334.100 C 246.344 335.255,244.879 337.126,243.857 338.259 C 242.836 339.391,242.000 340.422,242.000 340.550 C 242.000 341.175,247.468 334.542,248.422 332.759 C 249.204 331.298,248.501 332.019,247.114 334.100 M151.450 334.500 C 152.445 336.171,154.988 339.253,156.647 340.800 C 158.545 342.569,158.540 342.559,156.372 340.200 C 155.160 338.880,153.559 336.945,152.816 335.900 C 151.581 334.164,150.733 333.294,151.450 334.500 M205.400 338.400 C 204.896 338.617,204.822 338.744,205.200 338.744 C 205.530 338.744,206.160 338.589,206.600 338.400 C 207.104 338.183,207.178 338.056,206.800 338.056 C 206.470 338.056,205.840 338.211,205.400 338.400 M196.476 339.260 C 196.984 339.403,198.390 339.520,199.600 339.520 C 200.810 339.520,202.216 339.403,202.724 339.260 C 203.232 339.117,201.826 339.000,199.600 339.000 C 197.374 339.000,195.968 339.117,196.476 339.260 M159.163 343.349 C 159.725 344.033,165.265 348.017,166.400 348.554 C 166.730 348.709,166.555 348.514,166.010 348.119 C 165.466 347.723,163.576 346.334,161.810 345.032 C 160.045 343.729,158.853 342.972,159.163 343.349 M167.800 349.407 C 168.240 349.766,168.960 350.235,169.400 350.451 L 170.200 350.844 169.400 350.193 C 168.960 349.834,168.240 349.365,167.800 349.149 L 167.000 348.756 167.800 349.407 M229.100 349.627 C 228.275 350.063,227.600 350.508,227.600 350.618 C 227.600 350.727,228.320 350.449,229.200 350.000 C 230.080 349.551,230.800 349.097,230.800 348.992 C 230.800 348.730,230.797 348.731,229.100 349.627 M171.200 351.564 C 172.091 352.271,173.600 352.924,173.600 352.603 C 173.600 352.536,172.835 352.096,171.900 351.625 C 170.333 350.837,170.278 350.832,171.200 351.564 M225.665 351.592 C 224.002 352.520,223.707 352.802,224.660 352.551 C 225.337 352.374,227.662 350.799,227.200 350.832 C 227.090 350.840,226.399 351.181,225.665 351.592 M180.000 355.831 C 180.000 356.101,182.078 356.856,182.276 356.657 C 182.367 356.567,181.892 356.301,181.220 356.067 C 180.549 355.833,180.000 355.727,180.000 355.831 M212.800 357.200 C 212.267 357.545,212.267 357.588,212.800 357.588 C 213.130 357.588,213.670 357.413,214.000 357.200 C 214.533 356.855,214.533 356.812,214.000 356.812 C 213.670 356.812,213.130 356.987,212.800 357.200 M189.400 359.200 C 189.840 359.389,190.470 359.544,190.800 359.544 C 191.178 359.544,191.104 359.417,190.600 359.200 C 190.160 359.011,189.530 358.856,189.200 358.856 C 188.822 358.856,188.896 358.983,189.400 359.200 M205.800 359.200 C 205.296 359.417,205.222 359.544,205.600 359.544 C 205.930 359.544,206.560 359.389,207.000 359.200 C 207.504 358.983,207.578 358.856,207.200 358.856 C 206.870 358.856,206.240 359.011,205.800 359.200 M193.000 359.997 C 193.764 360.328,196.714 360.555,196.367 360.256 C 196.275 360.177,195.300 360.009,194.200 359.882 C 192.913 359.733,192.485 359.774,193.000 359.997 M201.200 360.000 L 199.400 360.280 201.200 360.334 C 202.190 360.363,203.270 360.213,203.600 360.000 C 204.305 359.545,204.129 359.545,201.200 360.000 M197.792 381.658 C 196.916 382.789,195.739 384.274,195.176 384.958 C 194.614 385.641,192.634 388.159,190.776 390.554 C 188.919 392.949,186.187 396.459,184.705 398.354 C 181.673 402.230,181.552 402.660,183.100 404.069 C 183.705 404.619,184.741 405.684,185.402 406.435 C 186.063 407.186,188.097 409.474,189.923 411.520 C 192.062 413.917,193.178 415.481,193.063 415.920 C 192.729 417.198,192.045 420.198,191.403 423.200 C 191.050 424.850,190.597 426.830,190.395 427.600 C 190.194 428.370,189.748 430.260,189.405 431.800 C 189.061 433.340,188.610 435.320,188.404 436.200 C 188.197 437.080,187.738 439.150,187.384 440.800 C 187.030 442.450,186.600 444.070,186.427 444.399 C 186.218 444.800,186.777 446.058,188.117 448.199 C 189.219 449.960,191.648 453.920,193.515 457.000 C 200.438 468.422,199.422 467.704,201.998 463.000 C 202.722 461.680,203.648 460.122,204.057 459.538 C 204.465 458.954,204.800 458.392,204.800 458.289 C 204.800 458.185,205.970 456.076,207.400 453.600 C 208.830 451.124,210.000 449.028,210.000 448.941 C 210.000 448.854,210.474 448.067,211.052 447.193 C 212.017 445.735,212.068 445.461,211.660 443.901 C 211.416 442.966,211.014 441.120,210.766 439.800 C 210.519 438.480,210.172 436.680,209.997 435.800 C 209.821 434.920,209.382 432.670,209.019 430.800 C 208.657 428.930,208.183 426.500,207.964 425.400 C 207.746 424.300,207.395 422.410,207.185 421.200 C 206.974 419.990,206.600 418.243,206.354 417.318 C 205.996 415.973,206.016 415.524,206.453 415.074 C 206.754 414.765,207.527 413.901,208.170 413.156 C 211.590 409.193,215.106 405.246,216.277 404.054 C 217.894 402.409,217.894 402.499,216.300 400.571 C 215.585 399.706,214.444 398.279,213.764 397.399 C 208.905 391.109,203.798 384.567,203.615 384.400 C 203.496 384.290,202.612 383.165,201.650 381.900 C 199.537 379.119,199.747 379.132,197.792 381.658 " stroke="none" fill="#b01721" fill-rule="evenodd"></path></g></svg>