<svg id="svg" version="1.1" xmlns="http://www.w3.org/2000/svg" xmlns:xlink="http://www.w3.org/1999/xlink" width="400" height="400" viewBox="0, 0, 400,400"><g id="svgg"><path id="path0" d="M184.700 0.267 C 181.779 0.357,179.600 0.590,179.600 0.812 C 179.600 1.030,178.209 1.200,176.424 1.200 C 174.677 1.200,173.136 1.380,173.000 1.600 C 172.864 1.820,171.593 2.000,170.176 2.000 C 168.725 2.000,167.600 2.175,167.600 2.400 C 167.600 2.620,166.788 2.800,165.795 2.800 C 164.802 2.800,163.677 2.972,163.295 3.182 C 162.913 3.391,161.205 3.677,159.500 3.816 C 157.795 3.955,156.400 4.233,156.400 4.434 C 156.400 4.635,155.691 4.800,154.824 4.800 C 153.957 4.800,153.148 4.960,153.027 5.156 C 152.819 5.492,152.324 5.615,148.696 6.233 C 147.869 6.373,147.094 6.649,146.973 6.844 C 146.852 7.040,146.311 7.200,145.771 7.200 C 145.231 7.200,144.477 7.362,144.095 7.561 C 143.713 7.760,142.590 8.137,141.600 8.400 C 140.610 8.663,139.487 9.040,139.105 9.239 C 138.723 9.438,138.059 9.600,137.629 9.600 C 137.199 9.600,136.749 9.759,136.629 9.954 C 136.508 10.148,135.602 10.429,134.614 10.577 C 133.627 10.725,132.714 11.016,132.586 11.223 C 132.458 11.430,131.913 11.600,131.376 11.600 C 130.839 11.600,130.400 11.780,130.400 12.000 C 130.400 12.220,129.950 12.400,129.400 12.400 C 128.850 12.400,128.400 12.580,128.400 12.800 C 128.400 13.020,128.051 13.200,127.624 13.200 C 127.197 13.200,126.736 13.380,126.600 13.600 C 126.464 13.820,125.913 14.000,125.376 14.000 C 124.839 14.000,124.400 14.180,124.400 14.400 C 124.400 14.620,124.135 14.800,123.812 14.800 C 123.489 14.800,122.583 15.160,121.800 15.600 C 121.017 16.040,120.111 16.400,119.788 16.400 C 119.465 16.400,119.200 16.580,119.200 16.800 C 119.200 17.020,118.858 17.200,118.441 17.200 C 118.023 17.200,116.063 18.010,114.086 19.000 C 112.108 19.990,110.290 20.800,110.045 20.800 C 109.800 20.800,109.600 20.980,109.600 21.200 C 109.600 21.420,109.240 21.600,108.800 21.600 C 108.360 21.600,107.999 21.735,107.997 21.900 C 107.994 22.193,107.664 22.387,104.800 23.773 C 104.030 24.146,103.130 24.621,102.800 24.828 C 102.470 25.036,101.750 25.422,101.200 25.686 C 100.650 25.949,99.480 26.629,98.600 27.195 C 97.720 27.761,96.508 28.473,95.907 28.776 C 95.305 29.080,94.495 29.615,94.107 29.967 C 93.718 30.318,92.950 30.837,92.400 31.119 C 90.311 32.190,85.122 35.677,83.825 36.881 C 83.398 37.276,82.813 37.600,82.525 37.600 C 82.236 37.600,81.999 37.735,81.997 37.900 C 81.996 38.065,81.334 38.650,80.526 39.200 C 79.719 39.750,78.865 40.380,78.629 40.600 C 78.393 40.820,77.570 41.475,76.800 42.055 C 76.030 42.635,75.006 43.456,74.525 43.880 C 74.044 44.303,73.172 44.999,72.588 45.425 C 72.003 45.851,70.687 46.963,69.663 47.896 C 68.638 48.828,67.545 49.593,67.233 49.596 C 66.922 49.598,66.773 49.706,66.902 49.835 C 67.032 49.965,66.224 50.910,65.106 51.935 C 63.989 52.961,62.132 54.764,60.980 55.942 C 58.416 58.563,58.563 58.416,55.942 60.980 C 54.764 62.132,52.961 63.989,51.935 65.106 C 50.910 66.224,49.965 67.032,49.835 66.902 C 49.706 66.773,49.598 66.922,49.596 67.233 C 49.593 67.545,48.828 68.638,47.896 69.663 C 46.963 70.687,45.851 72.003,45.425 72.588 C 44.999 73.172,44.303 74.044,43.880 74.525 C 43.456 75.006,42.635 76.030,42.055 76.800 C 41.475 77.570,40.820 78.393,40.600 78.629 C 40.380 78.865,39.750 79.719,39.200 80.526 C 38.650 81.334,38.065 81.996,37.900 81.997 C 37.735 81.999,37.600 82.272,37.600 82.604 C 37.600 82.936,37.097 83.734,36.481 84.378 C 35.866 85.021,35.101 86.052,34.781 86.669 C 34.462 87.285,33.862 88.185,33.449 88.670 C 32.574 89.697,31.807 90.956,31.117 92.500 C 30.846 93.105,30.484 93.600,30.312 93.600 C 30.141 93.600,30.000 93.842,30.000 94.138 C 30.000 94.434,29.640 95.002,29.200 95.400 C 28.760 95.798,28.400 96.289,28.400 96.490 C 28.400 96.691,27.897 97.608,27.283 98.528 C 26.668 99.448,25.949 100.650,25.686 101.200 C 25.422 101.750,25.036 102.470,24.828 102.800 C 24.620 103.130,23.968 104.435,23.378 105.700 C 22.789 106.965,22.147 108.000,21.953 108.000 C 21.759 108.000,21.600 108.360,21.600 108.800 C 21.600 109.240,21.420 109.600,21.200 109.600 C 20.980 109.600,20.797 109.825,20.794 110.100 C 20.791 110.375,19.981 112.202,18.994 114.160 C 18.007 116.118,17.200 118.053,17.200 118.460 C 17.200 118.867,17.020 119.200,16.800 119.200 C 16.580 119.200,16.400 119.453,16.400 119.762 C 16.400 120.071,16.014 121.106,15.543 122.062 C 15.072 123.018,14.508 124.250,14.290 124.800 C 14.071 125.350,13.749 126.160,13.573 126.600 C 13.397 127.040,13.025 128.075,12.746 128.900 C 12.467 129.725,12.095 130.400,11.920 130.400 C 11.744 130.400,11.600 130.839,11.600 131.376 C 11.600 131.913,11.444 132.449,11.253 132.568 C 11.061 132.686,10.788 133.514,10.645 134.409 C 10.502 135.303,10.226 136.342,10.031 136.717 C 9.837 137.093,9.463 138.210,9.200 139.200 C 8.937 140.190,8.560 141.313,8.361 141.695 C 8.162 142.077,8.000 142.741,8.000 143.171 C 8.000 143.601,7.820 144.064,7.600 144.200 C 7.380 144.336,7.200 145.067,7.200 145.824 C 7.200 146.581,7.020 147.200,6.800 147.200 C 6.580 147.200,6.400 147.819,6.400 148.576 C 6.400 149.333,6.240 150.052,6.044 150.173 C 5.708 150.380,5.473 151.391,4.943 154.900 C 4.818 155.725,4.568 156.400,4.388 156.400 C 4.208 156.400,3.933 158.024,3.778 160.009 C 3.622 161.993,3.339 163.714,3.148 163.832 C 2.956 163.951,2.800 164.836,2.800 165.800 C 2.800 166.764,2.620 167.664,2.400 167.800 C 2.180 167.936,2.000 169.196,2.000 170.600 C 2.000 172.004,1.820 173.264,1.600 173.400 C 1.380 173.536,1.200 174.951,1.200 176.544 C 1.200 178.315,1.007 179.633,0.704 179.936 C -0.020 180.660,-0.024 219.336,0.700 220.060 C 1.014 220.374,1.200 221.713,1.200 223.656 C 1.200 225.359,1.380 226.864,1.600 227.000 C 1.820 227.136,2.000 228.306,2.000 229.600 C 2.000 230.894,2.180 232.064,2.400 232.200 C 2.620 232.336,2.800 233.326,2.800 234.400 C 2.800 235.474,2.956 236.449,3.148 236.568 C 3.339 236.686,3.625 238.271,3.783 240.091 C 3.941 241.911,4.214 243.580,4.388 243.800 C 4.562 244.020,4.800 244.830,4.915 245.600 C 5.031 246.370,5.339 247.720,5.600 248.600 C 5.861 249.480,6.168 250.787,6.281 251.504 C 6.395 252.221,6.649 252.906,6.844 253.027 C 7.040 253.148,7.200 253.766,7.200 254.400 C 7.200 255.034,7.380 255.664,7.600 255.800 C 7.820 255.936,8.000 256.566,8.000 257.200 C 8.000 257.834,8.180 258.464,8.400 258.600 C 8.620 258.736,8.800 259.276,8.800 259.800 C 8.800 260.324,8.980 260.864,9.200 261.000 C 9.420 261.136,9.600 261.657,9.600 262.157 C 9.600 262.657,9.735 263.202,9.900 263.366 C 10.065 263.531,10.402 264.506,10.650 265.533 C 11.154 267.625,12.475 271.294,12.835 271.600 C 12.964 271.710,13.318 272.655,13.622 273.700 C 13.926 274.745,14.315 275.600,14.487 275.600 C 14.659 275.600,14.800 275.949,14.800 276.376 C 14.800 276.803,14.980 277.264,15.200 277.400 C 15.420 277.536,15.600 277.997,15.600 278.424 C 15.600 278.851,15.780 279.200,16.000 279.200 C 16.220 279.200,16.400 279.560,16.400 280.000 C 16.400 280.440,16.580 280.800,16.800 280.800 C 17.020 280.800,17.204 281.205,17.209 281.700 C 17.220 282.883,25.592 299.545,26.894 300.975 C 27.282 301.402,27.600 301.987,27.600 302.275 C 27.600 302.564,27.780 302.800,28.000 302.800 C 28.220 302.800,28.400 302.962,28.400 303.160 C 28.400 303.358,29.483 305.203,30.807 307.260 C 32.131 309.317,33.333 311.270,33.479 311.600 C 33.625 311.930,34.072 312.491,34.472 312.847 C 34.873 313.203,35.200 313.699,35.200 313.951 C 35.200 314.202,35.740 314.972,36.400 315.663 C 37.060 316.354,37.600 317.091,37.600 317.302 C 37.600 317.683,38.872 319.404,40.397 321.086 C 40.839 321.573,41.200 322.123,41.200 322.308 C 41.200 322.492,41.785 323.294,42.500 324.089 C 43.836 325.576,45.041 327.008,47.303 329.800 C 48.016 330.680,49.409 332.250,50.400 333.288 C 52.836 335.844,53.200 336.298,53.200 336.780 C 53.200 337.007,53.560 337.418,54.000 337.693 C 54.440 337.968,54.800 338.407,54.800 338.669 C 54.800 338.932,55.160 339.260,55.600 339.400 C 56.040 339.540,56.400 339.832,56.400 340.051 C 56.400 340.269,56.584 340.333,56.810 340.194 C 57.035 340.055,57.170 340.096,57.110 340.285 C 57.049 340.475,57.450 341.095,58.000 341.662 C 58.550 342.230,59.872 343.618,60.939 344.747 C 62.005 345.876,63.056 346.800,63.273 346.800 C 63.491 346.800,64.636 347.790,65.817 349.000 C 66.999 350.210,68.183 351.200,68.449 351.200 C 68.715 351.200,68.822 351.311,68.686 351.448 C 68.384 351.749,69.378 352.800,69.964 352.800 C 70.196 352.800,71.231 353.610,72.265 354.600 C 73.298 355.590,74.305 356.400,74.503 356.400 C 74.701 356.400,75.554 357.120,76.400 358.000 C 77.246 358.880,78.176 359.602,78.469 359.604 C 78.761 359.606,79.411 360.128,79.913 360.764 C 80.415 361.400,81.270 362.031,81.813 362.168 C 82.356 362.304,82.800 362.592,82.800 362.808 C 82.800 363.023,83.067 363.200,83.393 363.200 C 83.719 363.200,84.484 363.649,85.093 364.197 C 87.220 366.113,88.602 367.199,88.917 367.200 C 89.091 367.200,89.610 367.551,90.071 367.980 C 90.531 368.409,91.389 368.866,91.976 368.995 C 92.564 369.124,93.299 369.583,93.611 370.015 C 93.922 370.447,94.457 370.800,94.800 370.800 C 95.143 370.800,95.683 371.160,96.000 371.600 C 96.317 372.040,96.897 372.400,97.288 372.400 C 97.680 372.400,98.000 372.580,98.000 372.800 C 98.000 373.020,98.360 373.200,98.800 373.200 C 99.240 373.200,99.600 373.380,99.600 373.600 C 99.600 373.820,99.813 374.000,100.074 374.000 C 100.335 374.000,100.920 374.349,101.374 374.775 C 101.828 375.201,102.739 375.647,103.397 375.766 C 104.055 375.885,104.655 376.166,104.730 376.391 C 104.805 376.616,105.212 376.800,105.633 376.800 C 106.055 376.800,106.400 376.980,106.400 377.200 C 106.400 377.420,106.670 377.600,107.000 377.600 C 107.330 377.600,107.600 377.780,107.600 378.000 C 107.600 378.220,107.960 378.400,108.400 378.400 C 108.840 378.400,109.200 378.580,109.200 378.800 C 109.200 379.020,109.560 379.200,110.000 379.200 C 110.440 379.200,110.800 379.380,110.800 379.600 C 110.800 379.820,111.160 380.000,111.600 380.000 C 112.040 380.000,112.400 380.180,112.400 380.400 C 112.400 380.620,112.760 380.800,113.200 380.800 C 113.640 380.800,114.000 380.938,114.000 381.106 C 114.000 381.477,116.969 382.800,117.803 382.800 C 118.131 382.800,118.400 382.980,118.400 383.200 C 118.400 383.420,118.940 383.600,119.600 383.600 C 120.260 383.600,120.800 383.780,120.800 384.000 C 120.800 384.220,121.070 384.400,121.400 384.400 C 121.730 384.400,122.000 384.580,122.000 384.800 C 122.000 385.020,122.360 385.200,122.800 385.200 C 123.240 385.200,123.600 385.380,123.600 385.600 C 123.600 385.820,124.140 386.000,124.800 386.000 C 125.460 386.000,126.000 386.180,126.000 386.400 C 126.000 386.620,126.461 386.800,127.024 386.800 C 127.604 386.800,127.940 386.973,127.800 387.200 C 127.660 387.426,127.988 387.600,128.553 387.600 C 129.103 387.600,129.664 387.780,129.800 388.000 C 129.936 388.220,130.487 388.400,131.024 388.400 C 131.561 388.400,132.000 388.557,132.000 388.748 C 132.000 388.940,132.893 389.215,133.984 389.360 C 135.075 389.505,136.075 389.798,136.207 390.012 C 136.339 390.225,136.977 390.400,137.624 390.400 C 138.271 390.400,138.800 390.580,138.800 390.800 C 138.800 391.020,139.340 391.200,140.000 391.200 C 140.660 391.200,141.200 391.380,141.200 391.600 C 141.200 391.820,141.650 392.000,142.200 392.000 C 142.750 392.000,143.200 392.180,143.200 392.400 C 143.200 392.620,143.920 392.800,144.800 392.800 C 145.680 392.800,146.400 392.980,146.400 393.200 C 146.400 393.420,146.839 393.600,147.376 393.600 C 147.913 393.600,148.464 393.780,148.600 394.000 C 148.736 394.220,149.467 394.400,150.224 394.400 C 150.981 394.400,151.600 394.580,151.600 394.800 C 151.600 395.020,152.374 395.200,153.320 395.200 C 154.266 395.200,155.212 395.372,155.423 395.583 C 155.633 395.793,157.289 396.089,159.103 396.240 C 160.916 396.391,162.400 396.669,162.400 396.858 C 162.400 397.046,163.390 397.200,164.600 397.200 C 165.810 397.200,166.800 397.380,166.800 397.600 C 166.800 397.820,167.790 398.000,169.000 398.000 C 170.210 398.000,171.200 398.180,171.200 398.400 C 171.200 398.632,172.507 398.800,174.320 398.800 C 176.283 398.800,177.625 398.985,177.940 399.300 C 178.328 399.688,183.383 399.800,200.487 399.800 C 217.768 399.800,222.569 399.692,222.700 399.300 C 222.813 398.960,223.816 398.800,225.833 398.800 C 227.544 398.800,228.800 398.631,228.800 398.400 C 228.800 398.180,229.790 398.000,231.000 398.000 C 232.210 398.000,233.200 397.820,233.200 397.600 C 233.200 397.378,234.267 397.200,235.600 397.200 C 236.920 397.200,238.000 397.039,238.000 396.842 C 238.000 396.646,239.620 396.357,241.600 396.200 C 243.580 396.043,245.200 395.754,245.200 395.558 C 245.200 395.361,245.920 395.200,246.800 395.200 C 247.680 395.200,248.400 395.020,248.400 394.800 C 248.400 394.580,249.019 394.400,249.776 394.400 C 250.533 394.400,251.264 394.220,251.400 394.000 C 251.536 393.780,252.267 393.600,253.024 393.600 C 253.781 393.600,254.400 393.420,254.400 393.200 C 254.400 392.980,254.940 392.800,255.600 392.800 C 256.260 392.800,256.800 392.620,256.800 392.400 C 256.800 392.180,257.250 392.000,257.800 392.000 C 258.350 392.000,258.803 391.775,258.806 391.500 C 258.810 391.167,258.942 391.200,259.200 391.600 C 259.458 392.000,259.590 392.033,259.594 391.700 C 259.597 391.412,260.110 391.200,260.800 391.200 C 261.460 391.200,262.000 391.020,262.000 390.800 C 262.000 390.580,262.540 390.400,263.200 390.400 C 263.860 390.400,264.400 390.237,264.400 390.038 C 264.400 389.838,265.300 389.551,266.400 389.400 C 267.499 389.249,268.500 388.962,268.623 388.763 C 268.746 388.563,269.197 388.400,269.624 388.400 C 270.051 388.400,270.400 388.220,270.400 388.000 C 270.400 387.780,270.850 387.600,271.400 387.600 C 271.950 387.600,272.400 387.420,272.400 387.200 C 272.400 386.980,272.760 386.800,273.200 386.800 C 273.640 386.800,274.000 386.620,274.000 386.400 C 274.000 386.180,274.540 386.000,275.200 386.000 C 275.860 386.000,276.400 385.820,276.400 385.600 C 276.400 385.380,276.760 385.200,277.200 385.200 C 277.640 385.200,278.000 385.020,278.000 384.800 C 278.000 384.580,278.450 384.400,279.000 384.400 C 279.550 384.400,280.000 384.220,280.000 384.000 C 280.000 383.780,280.360 383.600,280.800 383.600 C 281.240 383.600,281.600 383.420,281.600 383.200 C 281.600 382.980,281.915 382.799,282.300 382.798 C 282.685 382.796,283.516 382.526,284.146 382.198 C 284.776 381.869,285.641 381.600,286.069 381.600 C 286.497 381.600,286.736 381.420,286.600 381.200 C 286.460 380.973,286.796 380.800,287.376 380.800 C 287.939 380.800,288.400 380.620,288.400 380.400 C 288.400 380.180,288.760 380.000,289.200 380.000 C 289.640 380.000,290.000 379.820,290.000 379.600 C 290.000 379.380,290.360 379.200,290.800 379.200 C 291.240 379.200,291.600 379.020,291.600 378.800 C 291.600 378.580,291.868 378.400,292.197 378.400 C 292.525 378.400,293.018 378.040,293.293 377.600 C 293.568 377.160,294.109 376.800,294.496 376.800 C 294.883 376.800,295.200 376.620,295.200 376.400 C 295.200 376.180,295.480 376.000,295.822 376.000 C 296.838 376.000,300.022 374.409,300.263 373.781 C 300.385 373.461,300.826 373.200,301.243 373.200 C 301.659 373.200,302.000 373.020,302.000 372.800 C 302.000 372.580,302.360 372.400,302.800 372.400 C 303.240 372.400,303.600 372.220,303.600 372.000 C 303.600 371.780,303.920 371.600,304.312 371.600 C 304.703 371.600,305.283 371.240,305.600 370.800 C 305.917 370.360,306.407 370.000,306.688 370.000 C 306.970 370.000,307.200 369.823,307.200 369.608 C 307.200 369.392,307.695 369.093,308.300 368.944 C 308.905 368.794,309.691 368.341,310.047 367.936 C 310.403 367.531,310.948 367.200,311.259 367.200 C 311.569 367.200,312.083 366.840,312.400 366.400 C 312.717 365.960,313.167 365.600,313.400 365.600 C 313.633 365.600,314.083 365.240,314.400 364.800 C 314.717 364.360,315.215 364.000,315.506 364.000 C 315.798 364.000,316.486 363.550,317.036 363.000 C 317.586 362.450,318.282 362.000,318.583 362.000 C 318.883 362.000,319.583 361.460,320.139 360.800 C 320.694 360.140,321.358 359.600,321.614 359.600 C 321.870 359.600,322.583 359.060,323.200 358.400 C 323.817 357.740,324.534 357.200,324.794 357.200 C 325.054 357.200,325.879 356.570,326.626 355.800 C 327.374 355.030,328.178 354.400,328.412 354.400 C 328.647 354.400,330.127 353.095,331.702 351.500 C 333.277 349.905,334.692 348.640,334.846 348.688 C 335.000 348.736,336.448 347.438,338.063 345.804 C 342.188 341.630,342.492 341.326,345.612 338.269 C 347.146 336.768,348.400 335.305,348.400 335.020 C 348.400 334.735,348.988 333.984,349.708 333.351 C 350.427 332.718,351.819 331.210,352.802 330.000 C 353.785 328.790,354.691 327.710,354.816 327.600 C 354.940 327.490,355.572 326.680,356.220 325.800 C 356.868 324.920,357.893 323.723,358.499 323.140 C 359.104 322.556,359.600 321.791,359.600 321.440 C 359.600 321.088,359.777 320.800,359.994 320.800 C 360.211 320.800,360.886 320.035,361.494 319.100 C 362.102 318.165,362.735 317.340,362.900 317.267 C 363.065 317.193,363.200 316.923,363.200 316.667 C 363.201 316.410,363.606 315.720,364.100 315.134 C 366.135 312.722,366.400 312.382,366.400 312.186 C 366.400 312.073,367.030 311.065,367.800 309.945 C 368.570 308.826,369.200 307.660,369.200 307.355 C 369.200 307.050,369.380 306.800,369.600 306.800 C 369.820 306.800,370.000 306.500,370.000 306.133 C 370.000 305.767,370.115 305.582,370.256 305.723 C 370.513 305.979,371.816 304.011,372.258 302.700 C 372.387 302.315,372.652 302.000,372.847 302.000 C 373.041 302.000,373.200 301.655,373.200 301.233 C 373.200 300.812,373.344 300.407,373.520 300.333 C 373.978 300.143,376.000 296.406,376.000 295.750 C 376.000 295.447,376.180 295.200,376.400 295.200 C 376.620 295.200,376.800 294.840,376.800 294.400 C 376.800 293.960,376.958 293.600,377.152 293.600 C 377.345 293.600,378.529 291.485,379.783 288.900 C 381.037 286.315,382.228 283.887,382.431 283.505 C 382.634 283.123,382.800 282.538,382.800 282.205 C 382.800 281.872,382.980 281.600,383.200 281.600 C 383.420 281.600,383.600 281.328,383.600 280.995 C 383.600 280.662,383.757 280.077,383.950 279.695 C 385.514 276.589,386.000 275.421,386.000 274.762 C 386.000 274.343,386.180 274.000,386.400 274.000 C 386.620 274.000,386.800 273.728,386.800 273.395 C 386.800 273.062,386.959 272.477,387.153 272.095 C 388.199 270.038,389.600 265.822,389.600 264.729 C 389.600 264.328,389.780 264.000,390.000 264.000 C 390.220 264.000,390.400 263.460,390.400 262.800 C 390.400 262.140,390.580 261.600,390.800 261.600 C 391.020 261.600,391.200 261.161,391.200 260.624 C 391.200 260.087,391.380 259.536,391.600 259.400 C 391.820 259.264,392.000 258.634,392.000 258.000 C 392.000 257.366,392.180 256.736,392.400 256.600 C 392.620 256.464,392.800 255.834,392.800 255.200 C 392.800 254.566,392.980 253.936,393.200 253.800 C 393.420 253.664,393.600 253.034,393.600 252.400 C 393.600 251.766,393.780 251.136,394.000 251.000 C 394.220 250.864,394.400 250.371,394.400 249.905 C 394.400 249.438,394.569 248.504,394.775 247.828 C 395.518 245.395,396.400 240.857,396.400 239.466 C 396.400 238.686,396.580 237.936,396.800 237.800 C 397.020 237.664,397.200 236.573,397.200 235.376 C 397.200 234.179,397.364 233.200,397.564 233.200 C 397.914 233.200,398.151 231.488,398.645 225.400 C 398.769 223.860,399.080 222.347,399.336 222.039 C 400.031 221.198,399.996 178.636,399.300 177.940 C 398.999 177.639,398.800 176.367,398.800 174.744 C 398.800 173.261,398.620 171.936,398.400 171.800 C 398.180 171.664,398.000 170.483,398.000 169.176 C 398.000 167.859,397.822 166.800,397.600 166.800 C 397.380 166.800,397.200 165.810,397.200 164.600 C 397.200 163.390,397.046 162.400,396.858 162.400 C 396.670 162.400,396.410 161.273,396.282 159.895 C 395.989 156.756,394.677 150.882,393.961 149.505 C 393.762 149.123,393.600 148.268,393.600 147.605 C 393.600 146.942,393.420 146.400,393.200 146.400 C 392.980 146.400,392.800 145.871,392.800 145.224 C 392.800 144.577,392.620 143.936,392.400 143.800 C 392.180 143.664,392.000 143.023,392.000 142.376 C 392.000 141.729,391.820 141.200,391.600 141.200 C 391.380 141.200,391.200 140.660,391.200 140.000 C 391.200 139.340,391.020 138.800,390.800 138.800 C 390.580 138.800,390.400 138.348,390.400 137.795 C 390.400 137.242,390.231 136.477,390.023 136.095 C 389.816 135.713,389.336 134.320,388.957 133.000 C 388.577 131.680,387.919 129.790,387.493 128.800 C 387.068 127.810,386.558 126.595,386.360 126.100 C 385.985 125.162,385.629 124.286,384.736 122.100 C 384.444 121.385,384.069 120.800,383.902 120.800 C 383.736 120.800,383.600 120.474,383.600 120.075 C 383.600 119.676,383.150 118.417,382.600 117.277 C 382.050 116.137,381.600 114.933,381.600 114.602 C 381.600 114.271,381.420 114.000,381.200 114.000 C 380.980 114.000,380.800 113.640,380.800 113.200 C 380.800 112.760,380.665 112.399,380.500 112.397 C 380.141 112.393,379.200 110.456,379.200 109.720 C 379.200 109.434,379.054 109.200,378.875 109.200 C 378.696 109.200,378.302 108.570,378.000 107.800 C 377.698 107.030,377.304 106.400,377.125 106.400 C 376.946 106.400,376.800 106.055,376.800 105.633 C 376.800 105.212,376.665 104.807,376.500 104.733 C 376.335 104.660,375.661 103.520,375.002 102.200 C 374.343 100.880,373.713 99.710,373.602 99.600 C 373.208 99.210,371.947 96.990,371.729 96.300 C 371.607 95.915,371.348 95.600,371.153 95.600 C 370.959 95.600,370.800 95.330,370.800 95.000 C 370.800 94.670,370.620 94.400,370.400 94.400 C 370.180 94.400,370.000 94.164,370.000 93.875 C 370.000 93.587,369.676 93.002,369.280 92.575 C 368.884 92.149,368.432 91.467,368.277 91.059 C 367.894 90.056,364.772 85.557,363.901 84.753 C 363.515 84.397,363.200 83.964,363.200 83.791 C 363.200 83.617,362.750 82.886,362.200 82.164 C 361.650 81.443,361.200 80.727,361.200 80.574 C 361.200 80.420,360.876 80.003,360.481 79.647 C 360.086 79.291,359.325 78.370,358.790 77.600 C 358.255 76.830,357.453 75.823,357.009 75.361 C 356.564 74.900,355.721 73.910,355.135 73.161 C 354.549 72.413,353.695 71.350,353.237 70.800 C 352.779 70.250,351.819 69.092,351.102 68.227 C 349.592 66.402,337.301 54.037,333.781 50.800 C 331.280 48.500,329.134 46.666,326.839 44.867 C 326.090 44.280,325.100 43.436,324.639 42.991 C 324.177 42.547,323.170 41.741,322.400 41.202 C 321.630 40.663,320.820 40.079,320.600 39.905 C 317.891 37.765,316.529 36.807,316.188 36.804 C 315.962 36.802,315.517 36.440,315.200 36.000 C 314.883 35.560,314.427 35.200,314.187 35.200 C 313.947 35.200,313.399 34.885,312.969 34.500 C 311.712 33.376,307.780 30.800,307.320 30.800 C 307.088 30.800,306.671 30.527,306.394 30.193 C 306.117 29.859,305.240 29.279,304.445 28.906 C 303.650 28.532,302.651 27.905,302.225 27.513 C 301.798 27.121,301.228 26.800,300.958 26.800 C 300.688 26.800,300.407 26.662,300.333 26.494 C 300.260 26.325,298.760 25.471,297.000 24.596 C 295.240 23.720,293.710 22.905,293.600 22.783 C 293.059 22.186,282.387 17.200,281.650 17.200 C 281.182 17.200,280.800 17.020,280.800 16.800 C 280.800 16.580,280.440 16.400,280.000 16.400 C 279.560 16.400,279.200 16.220,279.200 16.000 C 279.200 15.780,278.840 15.600,278.400 15.600 C 277.960 15.600,277.600 15.420,277.600 15.200 C 277.600 14.980,277.150 14.800,276.600 14.800 C 276.050 14.800,275.600 14.620,275.600 14.400 C 275.600 14.180,275.328 14.000,274.996 14.000 C 274.663 14.000,273.628 13.662,272.696 13.250 C 269.207 11.707,266.617 10.780,265.123 10.541 C 264.276 10.406,263.486 10.139,263.368 9.947 C 263.249 9.756,262.713 9.600,262.176 9.600 C 261.639 9.600,261.200 9.420,261.200 9.200 C 261.200 8.980,260.660 8.800,260.000 8.800 C 259.340 8.800,258.800 8.620,258.800 8.400 C 258.800 8.180,258.170 8.000,257.400 8.000 C 256.630 8.000,256.000 7.840,256.000 7.644 C 256.000 7.448,255.325 7.173,254.500 7.032 C 250.874 6.415,250.400 6.295,250.400 5.998 C 250.400 5.825,249.725 5.582,248.900 5.457 C 245.163 4.893,244.173 4.683,243.789 4.377 C 243.563 4.197,241.983 3.923,240.278 3.769 C 238.573 3.614,237.082 3.333,236.965 3.144 C 236.848 2.955,235.773 2.800,234.576 2.800 C 233.379 2.800,232.400 2.620,232.400 2.400 C 232.400 2.174,231.267 2.000,229.800 2.000 C 228.333 2.000,227.200 1.826,227.200 1.600 C 227.200 1.368,225.893 1.200,224.080 1.200 C 222.364 1.200,220.777 1.017,220.553 0.793 C 220.123 0.363,194.040 -0.019,184.700 0.267 M211.154 55.640 C 220.137 57.135,226.254 59.459,235.400 64.850 C 236.940 65.758,239.010 66.953,240.000 67.505 C 240.990 68.057,242.790 69.080,244.000 69.779 C 245.210 70.478,248.344 72.119,250.963 73.425 C 259.085 77.474,265.324 84.735,269.331 94.800 C 269.725 95.790,270.217 96.913,270.424 97.295 C 270.631 97.677,270.800 98.341,270.800 98.771 C 270.800 99.201,270.959 99.651,271.154 99.771 C 271.349 99.892,271.598 100.487,271.709 101.095 C 271.820 101.703,272.184 103.190,272.518 104.400 C 276.494 118.790,276.834 142.471,273.361 163.000 C 272.379 168.804,271.949 172.466,272.120 173.570 C 272.209 174.142,272.307 173.774,272.340 172.743 C 272.440 169.633,275.636 169.615,278.727 172.706 L 280.508 174.487 280.234 178.117 C 279.975 181.550,279.797 182.730,278.746 188.000 C 276.440 199.558,271.592 207.956,266.690 208.883 C 265.707 209.069,265.610 208.996,265.840 208.246 C 265.983 207.781,265.952 207.540,265.772 207.711 C 265.592 207.882,265.392 208.512,265.328 209.111 C 265.218 210.145,265.024 211.028,263.991 215.200 C 263.745 216.190,263.394 218.080,263.210 219.400 C 261.658 230.524,260.185 235.604,256.538 242.400 C 252.558 249.817,245.924 257.097,239.957 260.595 C 238.305 261.564,235.817 263.057,234.200 264.052 C 233.540 264.458,232.595 264.968,232.100 265.185 C 231.133 265.609,230.879 266.064,231.700 265.900 C 232.082 265.824,232.226 267.507,232.309 273.041 L 232.418 280.282 235.323 283.041 C 236.921 284.558,240.550 287.960,243.388 290.600 C 246.226 293.240,249.961 296.750,251.688 298.400 L 254.827 301.400 252.168 305.800 C 250.705 308.220,248.967 311.190,248.306 312.400 C 247.644 313.610,246.695 315.320,246.197 316.200 C 245.699 317.080,244.911 318.475,244.446 319.300 C 243.981 320.125,243.260 321.385,242.845 322.100 C 242.430 322.815,241.058 325.200,239.795 327.400 C 238.532 329.600,237.162 331.985,236.750 332.700 C 235.572 334.743,234.373 336.848,233.286 338.779 C 232.736 339.757,231.747 341.467,231.087 342.579 C 229.831 344.696,228.964 346.199,227.555 348.700 C 227.090 349.525,226.035 351.370,225.210 352.800 C 224.385 354.230,223.256 356.210,222.701 357.200 C 222.146 358.190,220.658 360.800,219.395 363.000 C 216.546 367.964,215.819 369.235,215.138 370.445 C 214.842 370.970,214.510 371.490,214.400 371.600 C 214.290 371.710,213.823 372.520,213.362 373.400 C 212.511 375.024,212.050 375.846,208.988 381.200 C 208.045 382.850,206.852 384.943,206.336 385.852 C 199.673 397.605,200.174 397.020,198.754 394.700 C 198.182 393.765,196.765 391.470,195.606 389.600 C 194.447 387.730,191.512 382.960,189.083 379.000 C 186.654 375.040,184.247 371.243,183.733 370.562 C 183.220 369.881,182.800 369.193,182.800 369.032 C 182.800 368.872,181.990 367.488,181.000 365.958 C 180.010 364.427,179.200 363.001,179.200 362.788 C 179.200 362.574,179.050 362.400,178.868 362.400 C 178.685 362.400,178.283 361.905,177.975 361.300 C 177.666 360.695,176.466 358.709,175.307 356.886 C 174.148 355.063,173.200 353.486,173.200 353.381 C 173.200 353.276,172.419 351.978,171.464 350.495 C 168.019 345.147,165.600 341.136,165.600 340.772 C 165.600 340.567,165.420 340.400,165.200 340.400 C 164.980 340.400,164.800 340.224,164.800 340.010 C 164.800 339.795,163.630 337.811,162.200 335.600 C 160.770 333.389,159.600 331.492,159.600 331.384 C 159.600 331.276,158.990 330.245,158.244 329.094 C 157.498 327.942,155.672 325.020,154.188 322.600 C 152.703 320.180,150.613 316.815,149.544 315.122 C 148.475 313.429,147.600 311.932,147.600 311.794 C 147.600 311.657,147.060 310.759,146.400 309.800 C 145.740 308.841,145.200 307.951,145.200 307.824 C 145.200 307.696,144.550 306.667,143.756 305.537 C 142.465 303.700,142.383 303.441,142.989 303.102 C 143.362 302.894,144.147 302.236,144.733 301.641 C 145.320 301.046,148.494 298.049,151.786 294.980 C 160.506 286.852,160.469 286.886,164.364 283.400 L 167.940 280.200 167.970 273.496 L 168.000 266.791 171.241 268.421 C 173.024 269.317,174.545 269.989,174.620 269.913 C 174.695 269.838,172.472 268.619,169.679 267.205 C 150.223 257.353,140.875 245.031,137.206 224.400 C 136.717 221.652,136.556 220.930,136.001 219.000 C 134.942 215.320,134.005 211.250,133.977 210.200 C 133.933 208.610,133.271 206.929,133.228 208.300 C 133.145 210.952,127.510 207.744,124.750 203.475 C 120.351 196.668,115.910 177.156,118.026 173.929 C 121.048 169.319,127.414 169.064,127.717 173.541 C 127.860 175.651,127.863 175.642,127.763 173.400 C 127.704 172.080,127.474 169.020,127.253 166.600 C 125.673 149.323,127.656 111.687,130.762 100.000 C 133.785 88.626,137.109 81.447,141.533 76.739 C 144.492 73.590,146.036 72.507,152.600 68.975 C 159.756 65.124,161.448 64.485,170.000 62.406 C 170.770 62.219,172.120 61.876,173.000 61.643 C 173.880 61.411,178.740 60.224,183.800 59.007 C 188.860 57.789,193.630 56.625,194.400 56.419 C 198.868 55.228,206.532 54.871,211.154 55.640 M170.900 98.276 C 171.285 98.376,171.915 98.376,172.300 98.276 C 172.685 98.175,172.370 98.093,171.600 98.093 C 170.830 98.093,170.515 98.175,170.900 98.276 M164.400 99.195 C 163.991 99.455,164.310 99.499,165.400 99.332 C 167.377 99.029,167.714 98.798,166.167 98.806 C 165.525 98.809,164.730 98.984,164.400 99.195 M227.105 99.083 C 227.602 99.179,228.322 99.175,228.705 99.075 C 229.087 98.975,228.680 98.896,227.800 98.901 C 226.920 98.905,226.607 98.987,227.105 99.083 M181.900 99.882 C 182.395 99.978,183.205 99.978,183.700 99.882 C 184.195 99.787,183.790 99.709,182.800 99.709 C 181.810 99.709,181.405 99.787,181.900 99.882 M220.600 100.003 C 220.085 100.226,220.513 100.267,221.800 100.118 C 222.900 99.991,223.875 99.823,223.967 99.744 C 224.314 99.445,221.364 99.672,220.600 100.003 M232.433 99.743 C 232.525 99.821,233.230 100.001,234.000 100.142 C 234.985 100.323,235.222 100.282,234.800 100.006 C 234.258 99.650,232.037 99.403,232.433 99.743 M189.500 100.689 C 190.215 100.778,191.385 100.778,192.100 100.689 C 192.815 100.601,192.230 100.528,190.800 100.528 C 189.370 100.528,188.785 100.601,189.500 100.689 M215.300 100.687 C 215.905 100.778,216.895 100.778,217.500 100.687 C 218.105 100.595,217.610 100.520,216.400 100.520 C 215.190 100.520,214.695 100.595,215.300 100.687 M197.111 101.093 C 198.051 101.178,199.491 101.177,200.311 101.091 C 201.130 101.005,200.360 100.936,198.600 100.937 C 196.840 100.939,196.170 101.009,197.111 101.093 M208.311 101.093 C 209.251 101.178,210.691 101.177,211.511 101.091 C 212.330 101.005,211.560 100.936,209.800 100.937 C 208.040 100.939,207.370 101.009,208.311 101.093 M154.400 104.049 C 153.006 105.271,153.005 105.272,154.288 104.419 C 154.996 103.948,155.682 103.391,155.812 103.181 C 156.197 102.557,155.877 102.754,154.400 104.049 M241.200 102.967 C 241.200 103.059,241.875 103.550,242.700 104.057 C 243.525 104.565,244.965 105.682,245.900 106.541 C 246.835 107.399,247.600 107.965,247.600 107.798 C 247.600 107.417,246.391 106.344,243.717 104.352 C 241.744 102.882,241.200 102.583,241.200 102.967 M150.981 106.900 L 149.400 108.600 151.100 107.019 C 152.681 105.548,152.984 105.200,152.681 105.200 C 152.616 105.200,151.851 105.965,150.981 106.900 M148.586 109.378 C 148.374 109.675,147.783 110.476,147.273 111.159 C 146.763 111.841,146.418 112.400,146.506 112.400 C 146.789 112.400,149.286 109.153,149.126 108.993 C 149.041 108.908,148.798 109.081,148.586 109.378 M142.980 118.040 C 142.411 119.162,142.013 120.147,142.095 120.229 C 142.177 120.311,142.727 119.393,143.318 118.189 C 143.908 116.985,144.306 116.000,144.202 116.000 C 144.098 116.000,143.548 116.918,142.980 118.040 M139.879 125.100 C 139.569 125.653,139.132 127.802,139.380 127.554 C 139.677 127.256,140.405 124.800,140.196 124.800 C 140.114 124.800,139.971 124.935,139.879 125.100 M137.829 131.829 C 137.681 132.415,137.638 132.972,137.732 133.066 C 137.827 133.160,138.024 132.758,138.171 132.171 C 138.319 131.585,138.362 131.028,138.268 130.934 C 138.173 130.840,137.976 131.242,137.829 131.829 M260.644 132.200 C 260.973 133.671,261.202 133.990,261.194 132.967 C 261.191 132.545,261.005 131.930,260.782 131.600 C 260.485 131.162,260.448 131.324,260.644 132.200 M137.029 135.429 C 136.881 136.015,136.838 136.572,136.932 136.666 C 137.027 136.760,137.224 136.358,137.371 135.771 C 137.519 135.185,137.562 134.628,137.468 134.534 C 137.373 134.440,137.176 134.842,137.029 135.429 M262.480 139.800 C 262.480 140.240,262.624 141.050,262.800 141.600 C 263.054 142.392,263.120 142.433,263.120 141.800 C 263.120 141.360,262.976 140.550,262.800 140.000 C 262.546 139.208,262.480 139.167,262.480 139.800 M135.456 143.684 C 135.321 144.188,135.230 145.140,135.253 145.800 C 135.281 146.628,135.397 146.384,135.626 145.013 C 135.976 142.923,135.874 142.126,135.456 143.684 M263.472 145.800 C 263.599 146.900,263.769 147.875,263.851 147.967 C 264.132 148.282,263.920 145.799,263.580 144.800 C 263.351 144.126,263.316 144.451,263.472 145.800 M134.659 151.088 C 134.521 151.919,134.432 153.680,134.461 155.000 C 134.505 157.005,134.565 156.775,134.824 153.600 C 135.150 149.607,135.080 148.541,134.659 151.088 M264.297 152.400 C 264.415 154.050,264.576 155.475,264.656 155.567 C 264.922 155.875,264.709 151.813,264.394 150.600 C 264.212 149.897,264.172 150.642,264.297 152.400 M265.000 166.747 C 265.000 171.009,265.125 173.799,265.277 172.947 C 265.620 171.031,265.610 164.156,265.260 161.200 C 265.113 159.955,265.000 162.364,265.000 166.747 M134.164 168.200 C 134.163 171.940,134.223 173.524,134.297 171.720 C 134.371 169.915,134.372 166.855,134.298 164.920 C 134.225 162.984,134.164 164.460,134.164 168.200 M128.291 180.200 C 128.411 181.740,128.575 183.075,128.655 183.167 C 128.922 183.473,128.709 179.816,128.389 178.600 C 128.198 177.872,128.159 178.502,128.291 180.200 M264.287 180.960 C 264.121 182.918,264.063 184.597,264.158 184.691 C 264.421 184.955,264.891 179.953,264.730 178.598 C 264.651 177.939,264.452 179.002,264.287 180.960 M271.309 179.200 C 271.309 180.190,271.387 180.595,271.482 180.100 C 271.578 179.605,271.578 178.795,271.482 178.300 C 271.387 177.805,271.309 178.210,271.309 179.200 M134.423 182.233 C 134.436 183.315,134.599 184.920,134.786 185.800 C 135.023 186.917,135.060 186.373,134.908 184.000 C 134.665 180.214,134.388 179.201,134.423 182.233 M270.493 184.400 C 270.493 185.170,270.575 185.485,270.676 185.100 C 270.776 184.715,270.776 184.085,270.676 183.700 C 270.575 183.315,270.493 183.630,270.493 184.400 M129.088 186.600 C 129.211 187.920,129.376 189.075,129.456 189.167 C 129.735 189.489,129.516 186.188,129.193 185.200 C 128.989 184.579,128.949 185.109,129.088 186.600 M263.448 191.149 C 263.292 193.210,263.245 194.978,263.344 195.077 C 263.595 195.328,264.129 188.588,263.910 187.934 C 263.812 187.640,263.604 189.087,263.448 191.149 M269.422 189.822 C 269.272 190.625,269.228 191.362,269.326 191.460 C 269.424 191.557,269.627 190.981,269.778 190.178 C 269.928 189.375,269.972 188.638,269.874 188.540 C 269.776 188.443,269.573 189.019,269.422 189.822 M135.286 192.800 C 135.271 193.790,135.403 195.410,135.580 196.400 C 136.024 198.899,136.054 196.361,135.617 193.200 L 135.313 191.000 135.286 192.800 M130.093 192.800 C 130.093 193.570,130.175 193.885,130.276 193.500 C 130.376 193.115,130.376 192.485,130.276 192.100 C 130.175 191.715,130.093 192.030,130.093 192.800 M268.640 193.640 C 268.493 194.557,268.452 195.385,268.547 195.480 C 268.642 195.576,268.846 194.910,269.000 194.000 C 269.154 193.090,269.196 192.262,269.093 192.160 C 268.990 192.057,268.787 192.723,268.640 193.640 M267.850 197.650 C 267.517 199.317,267.840 199.640,268.200 198.000 C 268.352 197.309,268.393 196.659,268.291 196.558 C 268.189 196.456,267.991 196.947,267.850 197.650 M262.592 202.192 C 262.432 204.746,262.389 206.923,262.496 207.029 C 262.603 207.136,262.819 205.132,262.976 202.576 C 263.133 200.020,263.177 197.843,263.072 197.739 C 262.968 197.634,262.752 199.638,262.592 202.192 M131.668 201.000 C 131.662 201.440,131.811 202.160,132.000 202.600 C 132.438 203.619,132.438 202.568,132.000 201.200 C 131.743 200.396,131.677 200.357,131.668 201.000 M136.023 202.233 C 136.036 203.315,136.199 204.920,136.386 205.800 C 136.623 206.917,136.660 206.373,136.508 204.000 C 136.265 200.214,135.988 199.201,136.023 202.233 M266.249 204.615 C 266.112 204.973,266.018 205.656,266.041 206.133 C 266.067 206.681,266.203 206.486,266.410 205.603 C 266.760 204.116,266.665 203.533,266.249 204.615 M136.868 209.800 C 136.862 210.240,137.011 210.960,137.200 211.400 C 137.638 212.419,137.638 211.368,137.200 210.000 C 136.943 209.196,136.877 209.157,136.868 209.800 M261.764 211.973 C 261.554 213.492,261.504 214.659,261.652 214.568 C 261.963 214.376,262.569 209.636,262.315 209.382 C 262.222 209.289,261.974 210.455,261.764 211.973 M137.844 214.600 C 138.173 216.071,138.402 216.390,138.394 215.367 C 138.391 214.945,138.205 214.330,137.982 214.000 C 137.685 213.562,137.648 213.724,137.844 214.600 M260.253 216.500 L 259.533 217.800 260.358 216.800 C 261.089 215.913,261.414 215.200,261.086 215.200 C 261.024 215.200,260.649 215.785,260.253 216.500 M139.418 219.700 C 139.568 220.195,139.855 220.776,140.056 220.991 C 140.257 221.206,140.219 220.801,139.972 220.091 C 139.465 218.638,138.997 218.308,139.418 219.700 M255.544 223.500 C 254.393 224.889,253.906 225.600,254.104 225.600 C 254.214 225.600,254.786 224.970,255.373 224.200 C 256.463 222.771,256.595 222.232,255.544 223.500 M249.392 230.500 L 245.400 234.600 249.500 230.608 C 251.755 228.412,253.600 226.567,253.600 226.508 C 253.600 226.218,253.101 226.692,249.392 230.500 M144.949 228.919 C 146.587 231.177,149.089 234.000,149.454 234.000 C 149.594 234.000,148.920 233.138,147.955 232.084 C 146.990 231.030,145.606 229.455,144.879 228.584 L 143.558 227.000 144.949 228.919 M243.585 235.629 L 242.200 236.858 243.700 235.781 C 245.026 234.830,245.457 234.400,245.085 234.400 C 245.022 234.400,244.347 234.953,243.585 235.629 M151.400 235.966 C 152.178 236.861,154.400 238.598,154.400 238.312 C 154.400 238.234,153.545 237.467,152.500 236.608 C 151.455 235.749,150.960 235.460,151.400 235.966 M186.200 236.420 C 185.411 236.635,185.822 236.670,187.400 236.523 C 188.720 236.400,189.875 236.232,189.967 236.150 C 190.264 235.882,187.434 236.085,186.200 236.420 M191.233 236.149 C 191.325 236.231,192.300 236.401,193.400 236.528 C 194.749 236.684,195.074 236.649,194.400 236.420 C 193.401 236.080,190.918 235.868,191.233 236.149 M206.200 236.369 C 205.008 236.514,206.381 236.613,209.600 236.614 C 213.206 236.616,214.336 236.525,213.000 236.343 C 210.670 236.025,208.973 236.032,206.200 236.369 M182.600 237.200 C 182.096 237.417,182.022 237.544,182.400 237.544 C 182.730 237.544,183.360 237.389,183.800 237.200 C 184.304 236.983,184.378 236.856,184.000 236.856 C 183.670 236.856,183.040 237.011,182.600 237.200 M201.200 237.200 C 200.396 237.457,200.357 237.523,201.000 237.532 C 201.440 237.538,202.160 237.389,202.600 237.200 C 203.619 236.762,202.568 236.762,201.200 237.200 M239.400 238.400 C 238.740 238.837,238.380 239.192,238.600 239.188 C 239.001 239.182,241.176 237.623,240.800 237.612 C 240.690 237.608,240.060 237.963,239.400 238.400 M176.933 239.122 C 176.016 239.495,175.116 239.951,174.933 240.136 C 174.512 240.560,178.066 239.199,178.580 238.740 C 179.093 238.281,178.880 238.331,176.933 239.122 M155.200 239.220 C 156.587 240.161,157.378 240.435,156.400 239.636 C 155.850 239.186,155.220 238.817,155.000 238.815 C 154.780 238.813,154.870 238.996,155.200 239.220 M236.000 240.200 C 235.010 240.730,234.342 241.172,234.516 241.182 C 234.941 241.206,238.000 239.634,238.000 239.392 C 238.000 239.127,238.017 239.120,236.000 240.200 M225.000 240.265 C 226.022 241.233,228.533 242.871,227.927 242.174 C 227.557 241.748,226.657 241.059,225.927 240.643 C 225.197 240.227,224.780 240.057,225.000 240.265 M170.822 242.116 C 169.751 242.776,168.814 242.962,166.622 242.952 C 164.329 242.942,164.063 243.000,165.200 243.260 C 167.177 243.712,169.653 243.282,171.456 242.174 C 172.305 241.652,172.820 241.234,172.600 241.246 C 172.380 241.257,171.580 241.649,170.822 242.116 M193.700 242.676 C 194.085 242.776,194.715 242.776,195.100 242.676 C 195.485 242.575,195.170 242.493,194.400 242.493 C 193.630 242.493,193.315 242.575,193.700 242.676 M204.900 242.676 C 205.285 242.776,205.915 242.776,206.300 242.676 C 206.685 242.575,206.370 242.493,205.600 242.493 C 204.830 242.493,204.515 242.575,204.900 242.676 M188.000 243.606 C 187.578 243.882,187.815 243.923,188.800 243.742 C 190.525 243.425,190.851 243.198,189.567 243.206 C 189.035 243.209,188.330 243.389,188.000 243.606 M200.000 243.618 C 199.562 243.915,199.724 243.952,200.600 243.756 C 202.071 243.427,202.390 243.198,201.367 243.206 C 200.945 243.209,200.330 243.395,200.000 243.618 M209.633 243.343 C 209.725 243.421,210.430 243.601,211.200 243.742 C 212.185 243.923,212.422 243.882,212.000 243.606 C 211.458 243.250,209.237 243.003,209.633 243.343 M181.322 246.258 C 181.045 246.982,181.713 247.603,184.100 248.839 C 186.339 249.999,185.912 249.420,183.600 248.161 C 181.642 247.096,181.101 246.268,182.100 245.865 C 182.492 245.707,182.489 245.656,182.087 245.632 C 181.806 245.614,181.461 245.896,181.322 246.258 M217.990 245.863 C 218.989 246.359,218.182 247.222,215.300 248.741 C 213.595 249.640,212.380 250.378,212.600 250.381 C 214.750 250.415,219.854 246.121,218.090 245.763 C 217.810 245.707,217.764 245.751,217.990 245.863 M193.600 252.405 C 193.930 252.616,194.725 252.791,195.367 252.794 C 196.914 252.802,196.577 252.571,194.600 252.268 C 193.510 252.101,193.191 252.145,193.600 252.405 M205.000 252.400 C 203.893 252.682,203.877 252.709,204.800 252.747 C 205.350 252.769,206.070 252.613,206.400 252.400 C 207.081 251.960,206.729 251.960,205.000 252.400 M198.500 253.323 C 199.377 253.532,200.623 253.532,201.500 253.323 C 202.805 253.014,202.610 252.967,200.000 252.967 C 197.390 252.967,197.195 253.014,198.500 253.323 M224.265 269.047 C 223.640 269.386,223.215 269.748,223.320 269.853 C 223.424 269.957,224.115 269.674,224.855 269.223 C 226.413 268.273,225.948 268.135,224.265 269.047 M175.200 270.183 C 175.200 270.424,177.663 271.600,178.161 271.598 C 178.403 271.596,178.150 271.362,177.600 271.076 C 176.272 270.387,175.200 269.988,175.200 270.183 M220.533 270.722 C 219.616 271.095,218.716 271.551,218.533 271.736 C 218.112 272.160,221.666 270.799,222.180 270.340 C 222.693 269.881,222.480 269.931,220.533 270.722 M181.027 272.740 C 181.534 273.183,185.679 274.454,185.899 274.234 C 185.996 274.137,185.473 273.879,184.738 273.660 C 184.002 273.440,182.782 273.070,182.027 272.837 C 181.272 272.604,180.822 272.561,181.027 272.740 M211.600 274.018 C 211.162 274.315,211.324 274.352,212.200 274.156 C 213.671 273.827,213.990 273.598,212.967 273.606 C 212.545 273.609,211.930 273.795,211.600 274.018 M187.000 274.800 C 187.440 274.989,188.070 275.144,188.400 275.144 C 188.778 275.144,188.704 275.017,188.200 274.800 C 187.760 274.611,187.130 274.456,186.800 274.456 C 186.422 274.456,186.496 274.583,187.000 274.800 M208.600 274.800 C 207.581 275.238,208.632 275.238,210.000 274.800 C 210.804 274.543,210.843 274.477,210.200 274.468 C 209.760 274.462,209.040 274.611,208.600 274.800 M190.200 275.600 C 190.640 275.789,191.270 275.944,191.600 275.944 C 191.978 275.944,191.904 275.817,191.400 275.600 C 190.960 275.411,190.330 275.256,190.000 275.256 C 189.622 275.256,189.696 275.383,190.200 275.600 M205.400 275.600 C 204.381 276.038,205.432 276.038,206.800 275.600 C 207.604 275.343,207.643 275.277,207.000 275.268 C 206.560 275.262,205.840 275.411,205.400 275.600 M194.076 276.460 C 194.584 276.603,196.440 276.720,198.200 276.720 C 199.960 276.720,201.816 276.603,202.324 276.460 C 202.832 276.317,200.976 276.200,198.200 276.200 C 195.424 276.200,193.568 276.317,194.076 276.460 " stroke="none" fill="#2d3452" fill-rule="evenodd"></path><path id="path1" d="M166.400 99.208 C 158.586 100.572,148.972 107.548,145.570 114.322 C 145.272 114.915,144.709 115.876,144.317 116.458 C 143.422 117.789,141.191 122.988,140.051 126.400 C 133.846 144.975,133.035 166.056,136.951 207.000 C 137.998 217.941,141.745 225.707,149.995 234.033 C 157.347 241.454,166.149 244.752,171.088 241.938 C 180.441 236.609,190.072 234.668,196.468 236.823 C 198.511 237.511,199.212 237.578,200.755 237.234 C 201.770 237.008,203.445 236.638,204.477 236.411 C 211.704 234.827,223.167 237.579,228.175 242.100 C 229.090 242.925,229.219 242.938,230.681 242.350 C 231.297 242.103,232.160 241.762,232.600 241.592 C 242.823 237.653,252.782 228.608,259.899 216.800 C 261.397 214.314,261.486 213.972,261.927 209.000 C 262.609 201.304,262.826 198.687,263.203 193.600 C 263.391 191.070,263.782 186.300,264.072 183.000 C 267.774 140.909,257.128 108.780,236.976 101.223 C 233.551 99.939,227.985 99.105,225.890 99.563 C 214.456 102.061,193.406 101.898,176.600 99.182 C 174.104 98.778,168.784 98.792,166.400 99.208 M121.800 170.841 C 118.328 171.909,116.969 174.435,117.551 178.743 C 119.909 196.198,124.723 207.057,130.886 208.825 C 133.536 209.585,133.521 209.626,132.381 204.800 C 130.818 198.180,130.058 194.235,129.183 188.200 C 128.672 184.672,128.018 179.092,127.642 175.035 C 127.214 170.422,126.000 169.550,121.800 170.841 M272.899 170.861 C 272.624 171.136,272.400 172.194,272.400 173.213 C 272.400 174.233,272.231 176.042,272.024 177.233 C 271.817 178.425,271.448 180.750,271.204 182.400 C 270.960 184.050,270.606 186.210,270.416 187.200 C 269.617 191.378,269.113 193.896,268.777 195.400 C 267.990 198.918,266.000 208.356,266.000 208.571 C 266.000 209.146,267.761 208.705,269.157 207.781 C 273.145 205.142,276.851 197.497,278.746 188.000 C 281.086 176.269,280.937 173.966,277.684 171.665 C 276.254 170.653,273.559 170.201,272.899 170.861 M190.000 243.581 C 186.362 244.262,181.427 246.196,181.797 246.796 C 182.738 248.317,191.234 251.606,196.670 252.552 C 201.923 253.467,208.423 252.068,215.500 248.500 C 219.437 246.515,219.433 246.505,213.600 244.556 C 210.173 243.410,208.910 243.323,200.200 243.625 C 199.540 243.648,197.380 243.572,195.400 243.455 C 193.420 243.339,190.990 243.396,190.000 243.581 M225.800 268.745 C 217.879 272.647,214.079 274.062,207.819 275.438 C 206.269 275.779,204.349 276.225,203.554 276.429 C 201.696 276.906,195.125 276.909,193.246 276.435 C 192.451 276.234,190.810 275.851,189.600 275.585 C 186.152 274.826,180.929 273.085,178.705 271.953 C 178.323 271.759,177.738 271.600,177.405 271.600 C 177.072 271.600,176.800 271.420,176.800 271.200 C 176.800 270.980,176.541 270.800,176.224 270.800 C 175.907 270.800,174.087 269.990,172.178 269.000 C 170.270 268.010,168.549 267.200,168.354 267.200 C 168.159 267.200,167.987 270.125,167.970 273.700 L 167.940 280.200 164.364 283.400 C 160.469 286.886,160.506 286.852,151.786 294.980 C 148.494 298.049,145.320 301.046,144.733 301.641 C 144.147 302.236,143.362 302.894,142.989 303.102 C 142.383 303.441,142.465 303.700,143.756 305.537 C 144.550 306.667,145.200 307.693,145.200 307.817 C 145.200 308.798,147.450 310.986,149.631 312.127 C 151.044 312.865,155.080 315.230,158.600 317.381 C 162.120 319.533,165.540 321.606,166.200 321.989 C 166.860 322.372,169.110 323.727,171.200 325.000 C 179.139 329.838,178.791 329.725,179.828 327.800 C 180.879 325.848,181.238 326.046,185.262 330.800 C 186.286 332.010,187.726 333.653,188.462 334.451 C 191.633 337.891,192.000 338.423,192.000 339.573 C 192.000 340.222,191.820 340.864,191.600 341.000 C 191.380 341.136,191.216 341.912,191.236 342.724 L 191.272 344.200 191.828 342.200 C 192.793 338.733,192.717 338.539,188.556 333.788 C 186.441 331.375,183.651 328.315,182.356 326.989 C 179.240 323.801,178.789 324.914,187.791 313.562 C 189.116 311.891,192.347 307.796,194.971 304.462 C 197.595 301.128,199.859 298.400,200.002 298.400 C 200.145 298.400,202.044 300.695,204.222 303.500 C 206.401 306.305,208.367 308.805,208.591 309.055 C 208.816 309.306,209.670 310.386,210.489 311.455 C 211.308 312.525,213.783 315.694,215.989 318.498 C 218.195 321.302,220.000 323.783,220.000 324.012 C 220.000 324.241,217.369 327.382,214.153 330.992 C 206.744 339.310,207.035 338.882,207.523 340.718 L 207.917 342.200 207.968 340.400 C 208.023 338.437,207.959 338.527,213.919 332.053 C 215.613 330.212,217.054 328.502,217.120 328.253 C 217.554 326.618,219.169 326.364,220.089 327.784 C 221.332 329.703,220.799 329.885,229.301 324.649 C 231.666 323.192,233.781 322.000,234.001 322.000 C 234.220 322.000,234.400 321.820,234.400 321.600 C 234.400 321.380,234.546 321.200,234.725 321.200 C 234.903 321.200,237.558 319.690,240.625 317.843 C 245.672 314.805,247.352 314.171,245.981 315.823 C 245.709 316.151,245.590 316.523,245.716 316.649 C 245.843 316.776,246.411 315.962,246.979 314.842 C 248.347 312.141,249.539 310.024,250.381 308.800 C 251.524 307.139,251.666 306.800,251.224 306.800 C 250.991 306.800,250.800 306.997,250.800 307.238 C 250.800 308.410,248.797 310.167,244.893 312.420 C 242.532 313.783,240.060 315.214,239.400 315.600 C 238.740 315.986,237.030 316.976,235.600 317.800 C 234.170 318.624,232.415 319.636,231.700 320.049 C 230.985 320.462,229.815 321.137,229.100 321.550 C 228.385 321.962,226.491 323.060,224.891 323.989 C 222.016 325.660,220.800 325.835,220.800 324.579 C 220.800 324.075,217.866 319.842,216.794 318.800 C 216.681 318.690,215.562 317.245,214.307 315.589 C 213.053 313.934,211.660 312.186,211.213 311.706 C 210.766 311.226,210.400 310.661,210.400 310.450 C 210.400 310.239,210.265 310.007,210.099 309.933 C 209.934 309.860,208.666 308.360,207.281 306.600 C 205.896 304.840,204.547 303.126,204.282 302.791 C 204.017 302.456,203.013 301.151,202.051 299.891 C 199.915 297.093,200.083 297.092,197.949 299.900 C 196.987 301.165,195.968 302.445,195.684 302.744 C 195.401 303.044,194.054 304.754,192.692 306.544 C 190.126 309.919,189.294 310.970,188.580 311.745 C 188.349 311.995,187.419 313.208,186.512 314.439 C 185.606 315.670,184.622 316.930,184.325 317.239 C 183.056 318.558,179.846 323.104,179.340 324.300 C 178.643 325.946,178.458 325.933,175.105 324.000 C 173.579 323.120,172.166 322.400,171.965 322.400 C 171.764 322.400,171.600 322.241,171.600 322.047 C 171.600 321.852,171.285 321.590,170.900 321.464 C 170.515 321.338,169.390 320.752,168.400 320.161 C 167.410 319.570,165.799 318.636,164.821 318.086 C 163.843 317.536,162.133 316.547,161.021 315.887 C 159.909 315.228,158.460 314.376,157.800 313.994 C 155.731 312.799,148.664 308.746,147.200 307.916 C 141.743 304.822,141.680 304.986,151.967 295.400 C 153.619 293.860,155.429 292.150,155.990 291.600 C 156.550 291.050,157.906 289.805,159.004 288.834 C 160.102 287.863,162.507 285.627,164.349 283.865 L 167.699 280.662 175.549 284.688 C 179.867 286.902,186.370 290.234,190.000 292.093 C 193.630 293.952,197.355 295.889,198.277 296.398 L 199.953 297.324 202.677 295.917 C 204.175 295.143,206.840 293.740,208.600 292.800 C 211.848 291.066,219.204 287.233,226.767 283.335 C 229.058 282.154,231.153 281.005,231.423 280.781 C 231.780 280.485,233.030 281.438,236.056 284.317 C 238.335 286.485,241.004 288.966,241.986 289.829 C 242.968 290.693,245.488 293.045,247.586 295.055 C 249.684 297.065,251.985 299.196,252.700 299.790 C 254.054 300.916,254.334 301.906,253.527 302.713 C 253.266 302.974,253.163 303.296,253.297 303.431 C 253.431 303.565,253.818 303.138,254.157 302.482 L 254.774 301.291 249.087 295.922 C 245.959 292.970,242.234 289.484,240.809 288.177 C 239.384 286.870,236.909 284.555,235.309 283.032 L 232.400 280.265 232.400 273.156 C 232.400 269.246,232.265 265.989,232.100 265.918 C 231.935 265.848,229.100 267.120,225.800 268.745 M252.104 305.074 C 251.417 306.553,251.694 306.625,252.544 305.188 C 252.930 304.534,253.100 304.001,252.923 304.003 C 252.745 304.005,252.377 304.487,252.104 305.074 M147.609 311.730 C 147.604 311.911,148.401 313.299,149.381 314.813 C 150.360 316.327,151.454 318.130,151.810 318.820 C 152.167 319.510,152.553 319.981,152.667 319.866 C 152.782 319.751,152.049 318.379,151.038 316.816 C 150.027 315.254,149.196 313.846,149.191 313.688 C 149.178 313.268,147.619 311.339,147.609 311.730 M244.253 318.791 C 243.674 319.667,243.200 320.480,243.200 320.599 C 243.200 320.718,242.750 321.529,242.200 322.400 C 241.204 323.977,240.872 324.904,241.562 324.180 C 241.762 323.971,242.327 323.080,242.819 322.200 C 243.311 321.320,244.143 319.835,244.669 318.900 C 245.874 316.758,245.639 316.697,244.253 318.791 M154.881 323.700 C 155.196 324.195,156.136 325.736,156.970 327.123 C 157.804 328.511,158.586 329.547,158.707 329.426 C 158.829 329.304,158.630 328.875,158.264 328.471 C 157.899 328.067,157.600 327.613,157.600 327.462 C 157.600 327.098,154.740 322.800,154.497 322.800 C 154.393 322.800,154.566 323.205,154.881 323.700 M238.646 328.586 C 238.291 329.128,238.000 329.743,238.000 329.953 C 238.000 330.162,237.865 330.393,237.700 330.467 C 237.535 330.540,236.886 331.590,236.258 332.800 C 234.987 335.250,235.416 335.100,236.829 332.600 C 237.326 331.720,238.169 330.235,238.701 329.300 C 239.743 327.468,239.705 326.969,238.646 328.586 M159.618 331.400 C 159.618 331.620,159.970 332.250,160.400 332.800 C 160.830 333.350,161.182 333.620,161.182 333.400 C 161.182 333.180,160.830 332.550,160.400 332.000 C 159.970 331.450,159.618 331.180,159.618 331.400 M162.244 335.700 C 162.405 335.975,163.046 336.952,163.668 337.872 C 164.291 338.792,164.800 339.737,164.800 339.972 C 164.800 340.207,164.991 340.400,165.224 340.400 C 165.693 340.400,165.573 340.153,163.932 337.728 C 163.309 336.808,162.800 335.863,162.800 335.628 C 162.800 335.393,162.609 335.200,162.376 335.200 C 162.143 335.200,162.084 335.425,162.244 335.700 M234.186 336.500 L 233.552 337.800 234.367 336.800 C 235.152 335.837,235.408 335.200,235.010 335.200 C 234.906 335.200,234.535 335.785,234.186 336.500 M233.084 338.273 C 231.110 341.561,230.557 343.248,232.434 340.259 C 233.104 339.192,233.568 338.235,233.466 338.133 C 233.364 338.030,233.192 338.094,233.084 338.273 M208.046 343.200 C 208.109 345.080,208.714 346.446,208.754 344.800 C 208.773 344.030,208.613 343.130,208.400 342.800 C 208.095 342.328,208.019 342.414,208.046 343.200 M229.866 343.900 C 229.285 345.175,229.279 345.280,229.821 344.600 C 230.790 343.385,231.267 342.400,230.888 342.400 C 230.701 342.400,230.241 343.075,229.866 343.900 M190.617 344.900 C 190.470 345.366,190.362 345.928,189.773 349.300 C 189.648 350.015,189.392 350.960,189.205 351.400 C 189.017 351.840,188.761 352.830,188.635 353.600 C 188.509 354.370,188.243 355.720,188.044 356.600 C 185.319 368.653,184.897 370.793,185.328 370.390 C 185.452 370.275,186.019 368.025,186.588 365.390 C 187.157 362.756,187.786 359.970,187.986 359.200 C 188.335 357.855,188.777 355.935,189.572 352.300 C 189.777 351.365,190.130 349.790,190.357 348.800 C 191.086 345.619,191.269 344.400,191.019 344.400 C 190.885 344.400,190.704 344.625,190.617 344.900 M168.360 345.400 C 169.034 346.705,169.588 347.428,169.585 347.000 C 169.583 346.780,169.214 346.150,168.764 345.600 C 168.221 344.936,168.085 344.869,168.360 345.400 M228.253 346.900 L 227.533 348.200 228.358 347.200 C 229.089 346.313,229.414 345.600,229.086 345.600 C 229.024 345.600,228.649 346.185,228.253 346.900 M208.800 346.927 C 208.800 347.290,209.249 349.795,209.798 352.494 C 210.347 355.192,210.992 358.390,211.231 359.600 C 211.470 360.810,211.816 362.520,212.000 363.400 C 212.293 364.798,212.893 367.834,213.443 370.700 C 213.613 371.586,214.800 372.003,214.800 371.176 C 214.800 370.943,214.620 370.864,214.400 371.000 C 214.180 371.136,214.000 371.139,214.000 371.007 C 214.000 370.669,212.239 361.609,211.589 358.600 C 210.717 354.562,210.067 351.252,209.685 348.906 C 209.352 346.854,208.800 345.621,208.800 346.927 M170.220 348.726 C 171.579 351.026,172.433 351.787,171.320 349.706 C 170.704 348.554,170.055 347.609,169.877 347.606 C 169.700 347.603,169.854 348.107,170.220 348.726 M225.704 351.074 C 225.017 352.553,225.294 352.625,226.144 351.188 C 226.530 350.534,226.700 350.001,226.523 350.003 C 226.345 350.005,225.977 350.487,225.704 351.074 M223.853 354.391 C 223.274 355.267,222.800 356.080,222.800 356.199 C 222.800 356.318,222.350 357.129,221.800 358.000 C 220.804 359.579,220.473 360.502,221.163 359.780 C 221.363 359.571,222.015 358.500,222.613 357.400 C 223.210 356.300,224.051 354.815,224.482 354.100 C 225.589 352.263,225.117 352.481,223.853 354.391 M173.218 353.400 C 173.218 353.620,173.570 354.250,174.000 354.800 C 174.430 355.350,174.782 355.620,174.782 355.400 C 174.782 355.180,174.430 354.550,174.000 354.000 C 173.570 353.450,173.218 353.180,173.218 353.400 M176.195 358.190 C 176.603 358.845,177.299 360.060,177.743 360.890 C 178.186 361.721,178.701 362.400,178.887 362.400 C 179.232 362.400,176.665 358.126,175.884 357.400 C 175.647 357.180,175.787 357.536,176.195 358.190 M218.409 363.900 C 217.865 364.945,217.325 365.890,217.210 366.000 C 217.094 366.110,216.486 367.190,215.858 368.400 C 214.641 370.745,214.992 370.745,216.313 368.400 C 216.747 367.630,217.744 365.875,218.529 364.500 C 219.314 363.125,219.831 362.000,219.678 362.000 C 219.524 362.000,218.953 362.855,218.409 363.900 M179.215 363.000 C 179.217 363.220,179.586 363.850,180.036 364.400 C 180.579 365.064,180.715 365.131,180.440 364.600 C 179.766 363.295,179.212 362.572,179.215 363.000 M182.606 368.600 C 183.797 370.846,185.200 372.494,185.200 371.646 C 185.200 371.354,184.750 370.761,184.200 370.329 C 183.650 369.896,183.196 369.330,183.191 369.071 C 183.186 368.812,182.814 368.150,182.364 367.600 C 181.744 366.842,181.802 367.084,182.606 368.600 " stroke="none" fill="#eabaa2" fill-rule="evenodd"></path><path id="path2" d="M231.375 280.783 C 231.169 280.988,229.110 282.129,226.800 283.319 C 219.409 287.126,211.892 291.042,208.600 292.800 C 206.840 293.740,204.175 295.143,202.677 295.917 L 199.953 297.324 198.277 296.398 C 197.355 295.889,193.630 293.952,190.000 292.093 C 186.370 290.234,179.867 286.902,175.549 284.688 L 167.699 280.662 164.349 283.865 C 162.507 285.627,160.102 287.863,159.004 288.834 C 157.906 289.805,156.550 291.050,155.990 291.600 C 155.429 292.150,153.619 293.860,151.967 295.400 C 141.680 304.986,141.743 304.822,147.200 307.916 C 148.664 308.746,155.731 312.799,157.800 313.994 C 158.460 314.376,159.909 315.228,161.021 315.887 C 162.133 316.547,163.843 317.536,164.821 318.086 C 165.799 318.636,167.410 319.570,168.400 320.161 C 169.390 320.752,170.515 321.338,170.900 321.464 C 171.285 321.590,171.600 321.852,171.600 322.047 C 171.600 322.241,171.764 322.400,171.965 322.400 C 172.166 322.400,173.579 323.120,175.105 324.000 C 178.458 325.933,178.643 325.946,179.340 324.300 C 179.846 323.104,183.056 318.558,184.325 317.239 C 184.622 316.930,185.601 315.682,186.500 314.465 C 188.131 312.257,189.029 311.117,189.816 310.255 C 190.045 310.005,191.343 308.335,192.700 306.544 C 194.058 304.754,195.401 303.044,195.684 302.744 C 195.968 302.445,196.987 301.165,197.949 299.900 C 200.083 297.092,199.915 297.093,202.051 299.891 C 203.013 301.151,204.017 302.456,204.282 302.791 C 204.547 303.126,205.896 304.840,207.281 306.600 C 208.666 308.360,209.934 309.860,210.099 309.933 C 210.265 310.007,210.400 310.239,210.400 310.450 C 210.400 310.661,210.766 311.226,211.213 311.706 C 211.660 312.186,213.053 313.934,214.307 315.589 C 215.562 317.245,216.681 318.690,216.794 318.800 C 217.866 319.842,220.800 324.075,220.800 324.579 C 220.800 325.835,222.016 325.660,224.891 323.989 C 226.491 323.060,228.385 321.962,229.100 321.550 C 229.815 321.137,230.985 320.462,231.700 320.049 C 232.415 319.636,234.170 318.624,235.600 317.800 C 237.030 316.976,238.740 315.986,239.400 315.600 C 240.060 315.214,242.532 313.783,244.893 312.420 C 248.797 310.167,250.800 308.410,250.800 307.238 C 250.800 306.997,250.936 306.800,251.102 306.800 C 251.269 306.800,251.659 306.215,251.970 305.500 C 252.281 304.785,252.640 304.110,252.768 304.000 C 254.274 302.702,254.248 301.077,252.700 299.790 C 251.985 299.196,249.684 297.065,247.586 295.055 C 245.488 293.045,242.968 290.699,241.986 289.843 C 241.004 288.987,238.670 286.827,236.800 285.043 C 232.167 280.623,231.814 280.347,231.375 280.783 M148.373 312.362 C 148.828 313.001,149.200 313.625,149.200 313.749 C 149.200 313.873,150.010 315.227,151.000 316.758 C 151.990 318.288,152.800 319.734,152.800 319.970 C 152.800 320.207,152.980 320.400,153.200 320.400 C 153.420 320.400,153.600 320.588,153.600 320.818 C 153.600 321.048,154.455 322.538,155.500 324.129 C 158.120 328.119,158.368 328.516,158.670 329.200 C 158.816 329.530,159.444 330.552,160.067 331.472 C 160.690 332.392,161.200 333.337,161.200 333.572 C 161.200 333.807,161.380 334.000,161.600 334.000 C 161.820 334.000,162.000 334.270,162.000 334.600 C 162.000 334.930,162.180 335.200,162.400 335.200 C 162.620 335.200,162.800 335.374,162.800 335.588 C 162.800 335.801,163.610 337.227,164.600 338.758 C 165.590 340.288,166.400 341.734,166.400 341.970 C 166.400 342.207,166.580 342.400,166.800 342.400 C 167.020 342.400,167.200 342.593,167.200 342.828 C 167.200 343.063,167.740 344.041,168.400 345.000 C 169.060 345.959,169.600 346.854,169.600 346.989 C 169.600 347.124,169.784 347.451,170.008 347.717 C 170.771 348.621,174.800 355.285,174.800 355.643 C 174.800 355.839,174.935 356.001,175.100 356.003 C 175.265 356.005,175.597 356.410,175.837 356.903 C 176.077 357.396,177.618 359.960,179.262 362.600 C 180.905 365.240,182.508 367.850,182.825 368.400 C 184.410 371.156,185.039 371.383,185.315 369.300 C 185.424 368.475,186.002 365.640,186.598 363.000 C 187.195 360.360,187.845 357.480,188.044 356.600 C 188.243 355.720,188.509 354.370,188.635 353.600 C 188.761 352.830,189.017 351.840,189.205 351.400 C 189.545 350.601,189.851 349.128,190.265 346.297 C 190.386 345.471,190.645 344.695,190.842 344.574 C 191.039 344.452,191.200 343.654,191.200 342.800 C 191.200 341.946,191.380 341.136,191.600 341.000 C 191.820 340.864,192.000 340.222,192.000 339.573 C 192.000 338.423,191.633 337.891,188.462 334.451 C 187.726 333.653,186.286 332.010,185.262 330.800 C 181.238 326.046,180.879 325.848,179.828 327.800 C 178.791 329.725,179.139 329.838,171.200 325.000 C 169.110 323.727,166.860 322.372,166.200 321.989 C 165.540 321.606,162.120 319.539,158.600 317.394 C 147.961 310.912,147.006 310.442,148.373 312.362 M240.625 317.843 C 237.558 319.689,234.903 321.200,234.725 321.200 C 234.546 321.200,234.400 321.380,234.400 321.600 C 234.400 321.820,234.220 322.000,234.001 322.000 C 233.781 322.000,231.666 323.192,229.301 324.649 C 220.799 329.885,221.332 329.703,220.089 327.784 C 219.169 326.364,217.554 326.618,217.120 328.253 C 217.054 328.502,215.613 330.212,213.919 332.053 C 207.162 339.393,207.512 338.532,208.771 344.700 C 209.804 349.758,209.996 350.710,210.362 352.600 C 210.827 354.994,211.127 356.459,211.589 358.600 C 211.946 360.251,212.353 362.292,213.423 367.788 C 213.764 369.542,214.101 371.035,214.172 371.105 C 214.306 371.240,215.378 369.458,216.402 367.400 C 216.730 366.740,217.089 366.110,217.199 366.000 C 217.310 365.890,217.837 364.990,218.370 364.000 C 218.904 363.010,219.444 362.110,219.570 362.000 C 219.697 361.890,220.173 361.080,220.629 360.200 C 221.969 357.614,223.640 354.675,224.383 353.600 C 224.763 353.050,225.327 352.015,225.635 351.300 C 225.943 350.585,226.331 350.000,226.498 350.000 C 226.664 350.000,226.800 349.851,226.800 349.668 C 226.800 349.334,230.089 343.346,230.682 342.600 C 230.857 342.380,231.270 341.664,231.600 341.010 C 231.930 340.355,233.102 338.285,234.204 336.410 C 235.306 334.534,236.476 332.460,236.803 331.800 C 237.131 331.140,237.489 330.510,237.599 330.400 C 237.710 330.290,238.025 329.795,238.300 329.300 C 238.575 328.805,239.025 327.995,239.300 327.500 C 239.575 327.005,239.890 326.510,240.000 326.400 C 240.110 326.290,240.573 325.480,241.029 324.600 C 242.287 322.171,244.014 319.117,244.760 318.000 C 247.477 313.936,247.134 313.923,240.625 317.843 " stroke="none" fill="#f8f7f7" fill-rule="evenodd"></path><path id="path3" d="M318.574 38.358 C 318.723 38.599,319.216 38.995,319.671 39.238 C 320.262 39.554,320.420 39.556,320.226 39.242 C 320.077 39.001,319.584 38.605,319.129 38.362 C 318.538 38.046,318.380 38.044,318.574 38.358 M330.602 48.002 C 331.002 48.444,331.411 48.722,331.512 48.621 C 331.728 48.405,330.588 47.200,330.167 47.200 C 330.007 47.200,330.203 47.561,330.602 48.002 M68.060 48.642 C 67.762 48.978,67.599 49.332,67.695 49.429 C 67.792 49.526,68.198 49.244,68.598 48.802 C 68.997 48.361,69.161 48.007,68.962 48.015 C 68.763 48.024,68.357 48.305,68.060 48.642 M338.814 55.491 C 340.016 56.751,341.045 57.861,341.100 57.957 C 341.155 58.054,341.200 57.961,341.200 57.751 C 341.200 57.272,337.403 53.200,336.956 53.200 C 336.775 53.200,337.611 54.231,338.814 55.491 M198.000 55.675 C 196.790 55.879,195.170 56.214,194.400 56.419 C 193.630 56.625,188.860 57.789,183.800 59.007 C 178.740 60.224,173.880 61.411,173.000 61.643 C 172.120 61.876,170.770 62.219,170.000 62.406 C 161.448 64.485,159.756 65.124,152.600 68.975 C 146.036 72.507,144.492 73.590,141.533 76.739 C 137.109 81.447,133.785 88.626,130.762 100.000 C 129.279 105.580,127.906 117.144,127.204 129.971 C 126.697 139.222,126.722 160.772,127.246 166.600 C 128.487 180.396,128.662 181.903,130.042 190.698 C 130.647 194.552,132.313 202.856,133.223 206.555 C 133.651 208.290,134.002 210.090,134.005 210.555 C 134.009 211.304,135.034 215.642,136.001 219.000 C 136.556 220.930,136.717 221.652,137.206 224.400 C 141.031 245.910,150.409 257.720,172.124 268.377 C 187.735 276.037,197.469 277.847,207.800 275.010 C 210.000 274.406,212.297 273.821,212.905 273.710 C 213.513 273.599,214.108 273.349,214.229 273.154 C 214.349 272.959,214.799 272.800,215.229 272.800 C 215.659 272.800,216.323 272.635,216.705 272.433 C 217.845 271.830,221.172 270.400,221.435 270.400 C 221.751 270.400,232.633 264.973,234.200 264.034 C 234.860 263.638,236.120 262.881,237.000 262.352 C 237.880 261.824,239.211 261.033,239.957 260.595 C 245.924 257.097,252.558 249.817,256.538 242.400 C 260.185 235.604,261.658 230.524,263.210 219.400 C 263.394 218.080,263.745 216.190,263.991 215.200 C 264.918 211.458,265.218 210.170,265.388 209.200 C 265.577 208.121,266.132 205.560,266.731 203.000 C 269.022 193.208,271.275 180.030,272.373 170.000 C 272.577 168.130,273.020 164.980,273.357 163.000 C 276.835 142.566,276.494 118.792,272.518 104.400 C 272.184 103.190,271.820 101.703,271.709 101.095 C 271.598 100.487,271.349 99.892,271.154 99.771 C 270.959 99.651,270.800 99.201,270.800 98.771 C 270.800 98.341,270.631 97.677,270.424 97.295 C 270.217 96.913,269.725 95.790,269.331 94.800 C 265.324 84.735,259.085 77.474,250.963 73.425 C 248.344 72.119,245.210 70.478,244.000 69.779 C 242.790 69.080,240.990 68.057,240.000 67.505 C 239.010 66.953,236.940 65.758,235.400 64.850 C 221.845 56.860,209.279 53.777,198.000 55.675 M344.330 60.972 C 345.573 62.166,346.663 63.071,346.751 62.982 C 346.946 62.787,342.750 58.800,342.350 58.800 C 342.196 58.800,343.087 59.777,344.330 60.972 M48.460 68.242 C 48.162 68.578,47.999 68.932,48.095 69.029 C 48.192 69.126,48.598 68.844,48.998 68.402 C 49.397 67.961,49.561 67.607,49.362 67.615 C 49.163 67.624,48.757 67.905,48.460 68.242 M178.400 99.002 C 191.194 101.131,212.202 101.637,220.600 100.018 C 226.853 98.813,227.651 98.750,230.725 99.221 C 238.965 100.482,246.074 104.787,251.148 111.589 C 251.726 112.365,252.425 113.238,252.700 113.529 C 252.975 113.819,253.200 114.211,253.200 114.400 C 253.200 114.589,253.437 114.981,253.727 115.271 C 254.220 115.766,257.763 122.834,258.403 124.600 C 258.563 125.040,258.881 125.850,259.110 126.400 C 259.699 127.812,260.044 128.817,260.411 130.200 C 260.587 130.860,260.995 132.390,261.318 133.600 C 264.765 146.500,266.086 163.195,264.848 178.200 C 264.116 187.079,263.709 192.307,263.229 199.000 C 262.141 214.179,262.078 214.502,259.553 218.062 C 259.139 218.646,258.800 219.230,258.800 219.359 C 258.800 221.076,247.492 233.183,242.800 236.490 C 234.542 242.310,229.776 243.782,226.582 241.501 C 219.955 236.767,210.916 235.406,200.604 237.589 C 199.161 237.895,198.276 237.886,197.404 237.559 C 194.814 236.585,190.641 236.075,188.200 236.433 C 184.665 236.953,181.453 237.682,181.020 238.064 C 180.811 238.249,180.376 238.400,180.054 238.400 C 179.280 238.400,176.920 239.412,172.984 241.430 C 167.819 244.079,164.289 243.983,158.502 241.036 C 152.642 238.053,143.579 228.788,140.858 223.000 C 137.473 215.802,136.624 211.059,135.197 191.400 C 133.463 167.518,133.970 150.047,136.777 137.000 C 137.013 135.900,137.314 134.460,137.446 133.800 C 137.791 132.064,139.572 125.973,140.077 124.800 C 140.313 124.250,140.643 123.440,140.810 123.000 C 145.306 111.131,154.145 101.976,163.600 99.394 C 168.578 98.034,172.034 97.943,178.400 99.002 M197.400 242.978 C 199.485 243.470,200.167 243.467,202.600 242.955 C 206.500 242.133,210.623 242.789,216.500 245.164 C 216.995 245.364,217.728 245.633,218.130 245.763 C 221.547 246.864,211.778 251.499,202.500 253.179 C 196.042 254.348,176.750 247.412,181.870 245.763 C 182.554 245.542,183.044 245.352,185.300 244.433 C 186.507 243.942,187.706 243.634,190.800 243.022 C 194.305 242.329,194.636 242.327,197.400 242.978 M47.200 330.167 C 47.200 330.588,48.405 331.728,48.621 331.512 C 48.722 331.411,48.444 331.002,48.002 330.602 C 47.561 330.203,47.200 330.007,47.200 330.167 " stroke="none" fill="#280d05" fill-rule="evenodd"></path><path id="path4" d="M170.707 98.690 C 171.426 98.779,172.506 98.777,173.107 98.686 C 173.708 98.595,173.120 98.522,171.800 98.524 C 170.480 98.526,169.988 98.601,170.707 98.690 M193.100 101.082 C 193.595 101.178,194.405 101.178,194.900 101.082 C 195.395 100.987,194.990 100.909,194.000 100.909 C 193.010 100.909,192.605 100.987,193.100 101.082 M203.107 101.490 C 203.826 101.579,204.906 101.577,205.507 101.486 C 206.108 101.395,205.520 101.322,204.200 101.324 C 202.880 101.326,202.388 101.401,203.107 101.490 M134.524 159.400 C 134.526 160.720,134.601 161.212,134.690 160.493 C 134.779 159.774,134.777 158.694,134.686 158.093 C 134.595 157.492,134.522 158.080,134.524 159.400 M264.953 167.400 C 264.953 170.040,265.018 171.068,265.097 169.684 C 265.175 168.301,265.174 166.141,265.095 164.884 C 265.016 163.628,264.952 164.760,264.953 167.400 M134.534 177.600 C 134.534 179.250,134.605 179.925,134.691 179.100 C 134.778 178.275,134.778 176.925,134.691 176.100 C 134.605 175.275,134.534 175.950,134.534 177.600 M135.293 190.000 C 135.293 190.770,135.375 191.085,135.476 190.700 C 135.576 190.315,135.576 189.685,135.476 189.300 C 135.375 188.915,135.293 189.230,135.293 190.000 M136.093 199.200 C 136.093 199.970,136.175 200.285,136.276 199.900 C 136.376 199.515,136.376 198.885,136.276 198.500 C 136.175 198.115,136.093 198.430,136.093 199.200 M206.100 236.276 C 206.485 236.376,207.115 236.376,207.500 236.276 C 207.885 236.175,207.570 236.093,206.800 236.093 C 206.030 236.093,205.715 236.175,206.100 236.276 M193.705 243.087 C 194.314 243.179,195.214 243.177,195.705 243.082 C 196.197 242.987,195.700 242.911,194.600 242.914 C 193.500 242.917,193.097 242.995,193.705 243.087 M204.505 243.087 C 205.114 243.179,206.014 243.177,206.505 243.082 C 206.997 242.987,206.500 242.911,205.400 242.914 C 204.300 242.917,203.897 242.995,204.505 243.087 M194.971 304.462 C 192.347 307.796,189.116 311.891,187.791 313.562 C 178.789 324.914,179.240 323.801,182.356 326.989 C 187.479 332.232,192.400 338.177,192.400 339.122 C 192.400 339.641,192.044 341.537,191.608 343.333 C 191.172 345.130,190.624 347.500,190.388 348.600 C 189.384 353.297,188.474 357.318,187.988 359.200 C 187.789 359.970,187.245 362.400,186.778 364.600 C 186.311 366.800,185.696 369.419,185.410 370.420 L 184.891 372.239 188.081 377.420 C 191.412 382.828,193.994 387.009,197.637 392.892 C 198.827 394.813,199.904 396.388,200.032 396.392 C 200.229 396.399,202.671 392.318,206.336 385.852 C 206.852 384.943,208.045 382.850,208.988 381.200 C 209.932 379.550,211.085 377.525,211.552 376.700 C 212.018 375.875,212.766 374.554,213.213 373.765 C 213.870 372.604,213.952 372.087,213.637 371.065 C 213.423 370.369,213.043 368.720,212.792 367.400 C 212.540 366.080,212.184 364.280,212.000 363.400 C 211.474 360.886,210.909 358.065,208.976 348.286 C 207.383 340.231,207.240 339.078,207.741 338.364 C 208.052 337.919,210.938 334.601,214.153 330.992 C 217.369 327.382,220.000 324.241,220.000 324.012 C 220.000 323.783,218.195 321.302,215.989 318.498 C 213.783 315.694,211.308 312.525,210.489 311.455 C 209.670 310.386,208.816 309.306,208.591 309.055 C 208.367 308.805,206.401 306.305,204.222 303.500 C 202.044 300.695,200.145 298.400,200.002 298.400 C 199.859 298.400,197.595 301.128,194.971 304.462 " stroke="none" fill="#bb1524" fill-rule="evenodd"></path></g></svg>