<?xml version="1.0" encoding="utf-8"?>
<!-- Generator: Adobe Illustrator 24.1.3, SVG Export Plug-In . SVG Version: 6.00 Build 0)  -->
<svg version="1.1" id="Capa_1" focusable="false" xmlns="http://www.w3.org/2000/svg" xmlns:xlink="http://www.w3.org/1999/xlink"
	 x="0px" y="0px" viewBox="0 0 512 512" style="enable-background:new 0 0 512 512;" xml:space="preserve">
<style type="text/css">
	.st0{fill:#FF4C60;}
</style>
<path class="st0" d="M320,336c0,8.8-7.2,16-16,16h-96c-8.8,0-16-7.2-16-16v-48H0v144c0,25.6,22.4,48,48,48h416c25.6,0,48-22.4,48-48
	V288H320V336z M464,128h-80V80c0-25.6-22.4-48-48-48H176c-25.6,0-48,22.4-48,48v48H48c-25.6,0-48,22.4-48,48v80h512v-80
	C512,150.4,489.6,128,464,128z M320,128H192V96h128V128z"/>
</svg>
