<svg id="Capa_1" enable-background="new 0 0 512 512" height="512" viewBox="0 0 512 512" width="512" xmlns="http://www.w3.org/2000/svg"><g><g><g><path d="m256 128-10.667 138.666 10.667 201.667h201c30.327 0 55-24.673 55-55v-264z" fill="#518fbb"/><path d="m256 468.333v-340.333l-256 21.333v264c0 30.327 24.673 55 55 55z" fill="#5fa7db"/></g><g><g><path d="m111 43.667-15 52.333 15 53.333h145l10.667-53.333-10.667-52.333z" fill="#f7f0eb"/><path d="m0 43.667h111v105.667h-111z" fill="#bedffe"/></g><path d="m256 43.667h256v105.667h-256z" fill="#efe2dd"/></g></g><g><path d="m297.067 335c-13.863 0-26.379 5.844-35.242 15.186l-5.825-3.09-10.667-.23 10.667 62.676c8.624 13.603 23.803 22.658 41.067 22.658 26.798 0 48.6-21.802 48.6-48.6-.001-26.798-21.802-48.6-48.6-48.6zm0 67.2c-10.257 0-18.601-8.344-18.601-18.6s8.344-18.6 18.601-18.6c10.256 0 18.6 8.344 18.6 18.6-.001 10.256-8.344 18.6-18.6 18.6z" fill="#f7f0eb"/><path d="m262.004 273.201c8.852 9.232 21.293 14.999 35.063 14.999 26.798 0 48.6-21.802 48.6-48.6s-21.802-48.6-48.6-48.6c-17.264 0-32.443 9.056-41.067 22.658l-10.667 58.542 10.667 4.222zm35.063-52.201c10.256 0 18.6 8.344 18.6 18.6s-8.344 18.6-18.6 18.6c-10.257 0-18.601-8.344-18.601-18.6s8.344-18.6 18.601-18.6z" fill="#f7f0eb"/><path d="m218.438 327.176c1.568-4.77 2.429-9.857 2.429-15.144 0-5.388-.895-10.568-2.521-15.416l37.654-20.194v-62.763c-4.763 7.513-7.534 16.407-7.534 25.942 0 2.23.164 4.422.457 6.574l-48.717 26.128c-7.91-5.579-17.545-8.87-27.94-8.87-26.798 0-48.6 21.802-48.6 48.6s21.802 48.6 48.6 48.6c10.56 0 20.337-3.393 28.316-9.138l48.308 25.789c-.27 2.069-.424 4.174-.424 6.316 0 9.535 2.771 18.429 7.534 25.942v-62.446zm-46.172 3.457c-10.256 0-18.6-8.344-18.6-18.6s8.344-18.6 18.6-18.6 18.6 8.344 18.6 18.6c.001 10.256-8.343 18.6-18.6 18.6z" fill="#fffbf5"/></g></g></svg>